%TF.GenerationSoftware,KiCad,Pcbnew,(5.1.10-1-10_14)*%
%TF.CreationDate,2021-07-19T20:00:40-07:00*%
%TF.ProjectId,XDS-Analog-to-StudioHub,5844532d-416e-4616-9c6f-672d746f2d53,rev?*%
%TF.SameCoordinates,Original*%
%TF.FileFunction,Soldermask,Top*%
%TF.FilePolarity,Negative*%
%FSLAX46Y46*%
G04 Gerber Fmt 4.6, Leading zero omitted, Abs format (unit mm)*
G04 Created by KiCad (PCBNEW (5.1.10-1-10_14)) date 2021-07-19 20:00:40*
%MOMM*%
%LPD*%
G01*
G04 APERTURE LIST*
%ADD10R,1.700000X1.700000*%
%ADD11O,1.700000X1.700000*%
%ADD12R,1.500000X1.500000*%
%ADD13C,1.500000*%
%ADD14C,3.250000*%
%ADD15C,2.300000*%
%ADD16R,1.600000X1.600000*%
%ADD17C,1.600000*%
%ADD18C,4.000000*%
G04 APERTURE END LIST*
D10*
%TO.C,JP11*%
X113665000Y-92080080D03*
D11*
X111125000Y-92080080D03*
%TD*%
D12*
%TO.C,J1*%
X131318000Y-92202000D03*
D13*
X131318000Y-94234000D03*
X131318000Y-96266000D03*
X131318000Y-98298000D03*
X129538000Y-93218000D03*
X129538000Y-95250000D03*
X129538000Y-97282000D03*
X129538000Y-99314000D03*
D14*
X133858000Y-89412000D03*
X133858000Y-102112000D03*
D15*
X130428000Y-103892000D03*
X130428000Y-87632000D03*
%TD*%
D10*
%TO.C,JP8*%
X113665000Y-103124000D03*
D11*
X111125000Y-103124000D03*
%TD*%
D16*
%TO.C,J2*%
X100929440Y-101213920D03*
D17*
X100929440Y-98443920D03*
X100929440Y-95673920D03*
X100929440Y-92903920D03*
X100929440Y-90133920D03*
X98089440Y-99828920D03*
X98089440Y-97058920D03*
X98089440Y-94288920D03*
X98089440Y-91518920D03*
D18*
X100629440Y-83173920D03*
X100629440Y-108173920D03*
%TD*%
D11*
%TO.C,JP5*%
X121031000Y-100584000D03*
D10*
X121031000Y-103124000D03*
%TD*%
D11*
%TO.C,JP6*%
X111125000Y-95758000D03*
D10*
X113665000Y-95758000D03*
%TD*%
%TO.C,JP7*%
X113665000Y-99441000D03*
D11*
X111125000Y-99441000D03*
%TD*%
D10*
%TO.C,JP9*%
X117348000Y-103124000D03*
D11*
X117348000Y-100584000D03*
%TD*%
%TO.C,JP10*%
X111125000Y-88419001D03*
D10*
X113665000Y-88419001D03*
%TD*%
%TO.C,R+*%
X121031000Y-88392000D03*
D11*
X121031000Y-90932000D03*
X121031000Y-93472000D03*
%TD*%
%TO.C,R-*%
X117348000Y-93472000D03*
X117348000Y-90932000D03*
D10*
X117348000Y-88392000D03*
%TD*%
M02*
