M48
; DRILL file {KiCad (5.1.10-1-10_14)} date Wednesday, June 16, 2021 at 10:39:56 PM
; FORMAT={-:-/ absolute / metric / decimal}
; #@! TF.CreationDate,2021-06-16T22:39:56-07:00
; #@! TF.GenerationSoftware,Kicad,Pcbnew,(5.1.10-1-10_14)
; #@! TF.FileFunction,Plated,1,2,PTH
FMAT,2
METRIC
T1C0.890
T2C1.000
T3C1.570
T4C3.200
%
G90
G05
T1
X121.893Y-88.214
X121.893Y-90.246
X121.893Y-92.278
X121.893Y-94.31
X123.673Y-87.198
X123.673Y-89.23
X123.673Y-91.262
X123.673Y-93.294
T2
X98.089Y-91.519
X98.089Y-94.289
X98.089Y-97.059
X98.089Y-99.829
X100.929Y-90.134
X100.929Y-92.904
X100.929Y-95.674
X100.929Y-98.444
X100.929Y-101.214
X110.434Y-98.918
X110.435Y-102.572
X110.439Y-109.87
X110.444Y-106.223
X110.454Y-91.594
X110.454Y-95.255
X110.475Y-84.201
X110.475Y-87.904
X112.974Y-98.918
X112.975Y-102.572
X112.979Y-109.87
X112.984Y-106.223
X112.994Y-91.594
X112.994Y-95.255
X113.015Y-84.201
X113.015Y-87.904
X118.176Y-109.804
X118.207Y-106.075
X118.212Y-102.413
X120.716Y-109.804
X120.747Y-106.075
X120.752Y-102.413
T3
X122.783Y-82.628
X122.783Y-98.888
T4
X100.629Y-83.174
X100.629Y-108.174
T0
M30
