%TF.GenerationSoftware,KiCad,Pcbnew,(5.1.10-1-10_14)*%
%TF.CreationDate,2021-07-19T20:00:40-07:00*%
%TF.ProjectId,XDS-Analog-to-StudioHub,5844532d-416e-4616-9c6f-672d746f2d53,rev?*%
%TF.SameCoordinates,Original*%
%TF.FileFunction,Copper,L1,Top*%
%TF.FilePolarity,Positive*%
%FSLAX46Y46*%
G04 Gerber Fmt 4.6, Leading zero omitted, Abs format (unit mm)*
G04 Created by KiCad (PCBNEW (5.1.10-1-10_14)) date 2021-07-19 20:00:40*
%MOMM*%
%LPD*%
G01*
G04 APERTURE LIST*
%TA.AperFunction,ComponentPad*%
%ADD10R,1.700000X1.700000*%
%TD*%
%TA.AperFunction,ComponentPad*%
%ADD11O,1.700000X1.700000*%
%TD*%
%TA.AperFunction,ComponentPad*%
%ADD12R,1.500000X1.500000*%
%TD*%
%TA.AperFunction,ComponentPad*%
%ADD13C,1.500000*%
%TD*%
%TA.AperFunction,ComponentPad*%
%ADD14C,2.300000*%
%TD*%
%TA.AperFunction,ComponentPad*%
%ADD15R,1.600000X1.600000*%
%TD*%
%TA.AperFunction,ComponentPad*%
%ADD16C,1.600000*%
%TD*%
%TA.AperFunction,ComponentPad*%
%ADD17C,4.000000*%
%TD*%
%TA.AperFunction,Conductor*%
%ADD18C,0.200000*%
%TD*%
%TA.AperFunction,Conductor*%
%ADD19C,0.254000*%
%TD*%
%TA.AperFunction,Conductor*%
%ADD20C,0.100000*%
%TD*%
G04 APERTURE END LIST*
D10*
%TO.P,JP11,1*%
%TO.N,Net-(J1-Pad1)*%
X113665000Y-92080080D03*
D11*
%TO.P,JP11,2*%
%TO.N,Net-(J2-Pad3)*%
X111125000Y-92080080D03*
%TD*%
D12*
%TO.P,J1,1*%
%TO.N,Net-(J1-Pad1)*%
X131318000Y-92202000D03*
D13*
%TO.P,J1,3*%
%TO.N,Net-(J1-Pad3)*%
X131318000Y-94234000D03*
%TO.P,J1,5*%
%TO.N,N/C*%
X131318000Y-96266000D03*
%TO.P,J1,7*%
X131318000Y-98298000D03*
%TO.P,J1,2*%
%TO.N,Net-(J1-Pad2)*%
X129538000Y-93218000D03*
%TO.P,J1,4*%
%TO.N,Net-(J1-Pad4)*%
X129538000Y-95250000D03*
%TO.P,J1,6*%
%TO.N,Net-(J1-Pad6)*%
X129538000Y-97282000D03*
%TO.P,J1,8*%
%TO.N,N/C*%
X129538000Y-99314000D03*
D14*
%TO.P,J1,SH*%
%TO.N,Net-(J1-PadSH)*%
X130428000Y-103892000D03*
X130428000Y-87632000D03*
%TD*%
D10*
%TO.P,JP8,1*%
%TO.N,Net-(J1-PadSH)*%
X113665000Y-103124000D03*
D11*
%TO.P,JP8,2*%
%TO.N,Net-(J2-Pad0)*%
X111125000Y-103124000D03*
%TD*%
D15*
%TO.P,J2,1*%
%TO.N,Net-(J2-Pad1)*%
X100929440Y-101213920D03*
D16*
%TO.P,J2,2*%
%TO.N,Net-(J2-Pad2)*%
X100929440Y-98443920D03*
%TO.P,J2,3*%
%TO.N,Net-(J2-Pad3)*%
X100929440Y-95673920D03*
%TO.P,J2,4*%
%TO.N,Net-(J2-Pad2)*%
X100929440Y-92903920D03*
%TO.P,J2,5*%
%TO.N,Net-(J2-Pad5)*%
X100929440Y-90133920D03*
%TO.P,J2,6*%
%TO.N,Net-(J2-Pad6)*%
X98089440Y-99828920D03*
%TO.P,J2,7*%
%TO.N,Net-(J2-Pad2)*%
X98089440Y-97058920D03*
%TO.P,J2,8*%
%TO.N,Net-(J2-Pad8)*%
X98089440Y-94288920D03*
%TO.P,J2,9*%
%TO.N,Net-(J2-Pad9)*%
X98089440Y-91518920D03*
D17*
%TO.P,J2,0*%
%TO.N,Net-(J2-Pad0)*%
X100629440Y-83173920D03*
X100629440Y-108173920D03*
%TD*%
D11*
%TO.P,JP5,2*%
%TO.N,Net-(J2-Pad2)*%
X121031000Y-100584000D03*
D10*
%TO.P,JP5,1*%
%TO.N,Net-(J1-Pad4)*%
X121031000Y-103124000D03*
%TD*%
D11*
%TO.P,JP6,2*%
%TO.N,Net-(J2-Pad6)*%
X111125000Y-95758000D03*
D10*
%TO.P,JP6,1*%
%TO.N,Net-(J1-Pad2)*%
X113665000Y-95758000D03*
%TD*%
%TO.P,JP7,1*%
%TO.N,Net-(J1-Pad1)*%
X113665000Y-99441000D03*
D11*
%TO.P,JP7,2*%
%TO.N,Net-(J2-Pad1)*%
X111125000Y-99441000D03*
%TD*%
D10*
%TO.P,JP9,1*%
%TO.N,Net-(J1-PadSH)*%
X117348000Y-103124000D03*
D11*
%TO.P,JP9,2*%
%TO.N,Net-(J2-Pad2)*%
X117348000Y-100584000D03*
%TD*%
%TO.P,JP10,2*%
%TO.N,Net-(J2-Pad8)*%
X111125000Y-88419001D03*
D10*
%TO.P,JP10,1*%
%TO.N,Net-(J1-Pad2)*%
X113665000Y-88419001D03*
%TD*%
%TO.P,R+,1*%
%TO.N,Net-(J2-Pad5)*%
X121031000Y-88392000D03*
D11*
%TO.P,R+,2*%
%TO.N,Net-(J1-Pad3)*%
X121031000Y-90932000D03*
%TO.P,R+,3*%
%TO.N,Net-(J2-Pad1)*%
X121031000Y-93472000D03*
%TD*%
%TO.P,R-,3*%
%TO.N,Net-(J2-Pad6)*%
X117348000Y-93472000D03*
%TO.P,R-,2*%
%TO.N,Net-(J1-Pad6)*%
X117348000Y-90932000D03*
D10*
%TO.P,R-,1*%
%TO.N,Net-(J2-Pad9)*%
X117348000Y-88392000D03*
%TD*%
D18*
%TO.N,Net-(J1-Pad3)*%
X127635000Y-94234000D02*
X131318000Y-94234000D01*
X124333000Y-90932000D02*
X127635000Y-94234000D01*
X121031000Y-90932000D02*
X124333000Y-90932000D01*
%TO.N,Net-(J1-Pad6)*%
X129538000Y-96645000D02*
X129538000Y-97282000D01*
X124825001Y-91932001D02*
X129538000Y-96645000D01*
X118348001Y-91932001D02*
X124825001Y-91932001D01*
X117348000Y-90932000D02*
X118348001Y-91932001D01*
%TO.N,Net-(J1-PadSH)*%
X117348000Y-103124000D02*
X113665000Y-103124000D01*
%TO.N,Net-(J2-Pad1)*%
X102702360Y-99441000D02*
X100929440Y-101213920D01*
X111125000Y-99441000D02*
X102702360Y-99441000D01*
X121031000Y-93472000D02*
X117224989Y-97278011D01*
X113287989Y-97278011D02*
X111125000Y-99441000D01*
X117224989Y-97278011D02*
X113287989Y-97278011D01*
%TO.N,Net-(J2-Pad2)*%
X97139439Y-93832919D02*
X97139439Y-96108919D01*
X97139439Y-96108919D02*
X98089440Y-97058920D01*
X98068438Y-92903920D02*
X97139439Y-93832919D01*
X100929440Y-92903920D02*
X98068438Y-92903920D01*
X99544440Y-97058920D02*
X100929440Y-98443920D01*
X98089440Y-97058920D02*
X99544440Y-97058920D01*
X121031000Y-100584000D02*
X117348000Y-100584000D01*
X97139439Y-98008921D02*
X98089440Y-97058920D01*
X97139439Y-100284921D02*
X97139439Y-98008921D01*
X101849441Y-102163921D02*
X99018439Y-102163921D01*
X103429362Y-100584000D02*
X101849441Y-102163921D01*
X99018439Y-102163921D02*
X97139439Y-100284921D01*
X117348000Y-100584000D02*
X103429362Y-100584000D01*
%TO.N,Net-(J2-Pad3)*%
X103251000Y-92456000D02*
X100929440Y-94777560D01*
X100929440Y-94777560D02*
X100929440Y-95673920D01*
X110749080Y-92456000D02*
X103251000Y-92456000D01*
X111125000Y-92080080D02*
X110749080Y-92456000D01*
%TO.N,Net-(J2-Pad5)*%
X103644360Y-87419000D02*
X100929440Y-90133920D01*
X116268500Y-89344500D02*
X116268500Y-89063068D01*
X114624432Y-87419000D02*
X103644360Y-87419000D01*
X116316001Y-89392001D02*
X116268500Y-89344500D01*
X120030999Y-89392001D02*
X116316001Y-89392001D01*
X116268500Y-89063068D02*
X114624432Y-87419000D01*
X121031000Y-88392000D02*
X120030999Y-89392001D01*
%TO.N,Net-(J2-Pad6)*%
X101592362Y-99187000D02*
X100950442Y-99828920D01*
X109855000Y-99187000D02*
X101592362Y-99187000D01*
X111125000Y-97917000D02*
X109855000Y-99187000D01*
X100950442Y-99828920D02*
X98089440Y-99828920D01*
X111125000Y-95758000D02*
X111125000Y-97917000D01*
X112395000Y-97028000D02*
X111125000Y-95758000D01*
X117348000Y-93472000D02*
X117348000Y-96774000D01*
X117094000Y-97028000D02*
X112395000Y-97028000D01*
X117348000Y-96774000D02*
X117094000Y-97028000D01*
%TO.N,Net-(J2-Pad8)*%
X100950442Y-94288920D02*
X98089440Y-94288920D01*
X111125000Y-90424000D02*
X109347000Y-92202000D01*
X103037362Y-92202000D02*
X100950442Y-94288920D01*
X109347000Y-92202000D02*
X103037362Y-92202000D01*
X111125000Y-88419001D02*
X111125000Y-90424000D01*
%TO.N,Net-(J2-Pad9)*%
X102439371Y-87168989D02*
X98089440Y-91518920D01*
X116967000Y-88773000D02*
X116332000Y-88773000D01*
X114727989Y-87168989D02*
X102439371Y-87168989D01*
X117348000Y-88392000D02*
X116967000Y-88773000D01*
X116332000Y-88773000D02*
X114727989Y-87168989D01*
%TD*%
D19*
%TO.N,Net-(J1-PadSH)*%
X99381299Y-80838813D02*
X98949725Y-81127182D01*
X98582702Y-81494205D01*
X98294333Y-81925779D01*
X98095701Y-82405319D01*
X97994440Y-82914395D01*
X97994440Y-83433445D01*
X98095701Y-83942521D01*
X98294333Y-84422061D01*
X98582702Y-84853635D01*
X98949725Y-85220658D01*
X99381299Y-85509027D01*
X99860839Y-85707659D01*
X100369915Y-85808920D01*
X100888965Y-85808920D01*
X101398041Y-85707659D01*
X101877581Y-85509027D01*
X102309155Y-85220658D01*
X102676178Y-84853635D01*
X102964547Y-84422061D01*
X103163179Y-83942521D01*
X103264440Y-83433445D01*
X103264440Y-82914395D01*
X103163179Y-82405319D01*
X102964547Y-81925779D01*
X102676178Y-81494205D01*
X102309155Y-81127182D01*
X101877581Y-80838813D01*
X101592672Y-80720800D01*
X139339726Y-80720800D01*
X139339995Y-111019884D01*
X132793204Y-111018726D01*
X132793139Y-111018720D01*
X132756707Y-111018720D01*
X132728418Y-111018715D01*
X132728367Y-111018720D01*
X93832280Y-111018720D01*
X93832280Y-107914395D01*
X97994440Y-107914395D01*
X97994440Y-108433445D01*
X98095701Y-108942521D01*
X98294333Y-109422061D01*
X98582702Y-109853635D01*
X98949725Y-110220658D01*
X99381299Y-110509027D01*
X99860839Y-110707659D01*
X100369915Y-110808920D01*
X100888965Y-110808920D01*
X101398041Y-110707659D01*
X101877581Y-110509027D01*
X102309155Y-110220658D01*
X102676178Y-109853635D01*
X102964547Y-109422061D01*
X103163179Y-108942521D01*
X103264440Y-108433445D01*
X103264440Y-107914395D01*
X103163179Y-107405319D01*
X102964547Y-106925779D01*
X102676178Y-106494205D01*
X102309155Y-106127182D01*
X101877581Y-105838813D01*
X101398041Y-105640181D01*
X100888965Y-105538920D01*
X100369915Y-105538920D01*
X99860839Y-105640181D01*
X99381299Y-105838813D01*
X98949725Y-106127182D01*
X98582702Y-106494205D01*
X98294333Y-106925779D01*
X98095701Y-107405319D01*
X97994440Y-107914395D01*
X93832280Y-107914395D01*
X93832280Y-105134349D01*
X129365256Y-105134349D01*
X129479118Y-105414090D01*
X129794296Y-105569961D01*
X130133826Y-105661349D01*
X130484661Y-105684741D01*
X130833319Y-105639240D01*
X131166400Y-105526594D01*
X131376882Y-105414090D01*
X131490744Y-105134349D01*
X130428000Y-104071605D01*
X129365256Y-105134349D01*
X93832280Y-105134349D01*
X93832280Y-102977740D01*
X109640000Y-102977740D01*
X109640000Y-103270260D01*
X109697068Y-103557158D01*
X109809010Y-103827411D01*
X109971525Y-104070632D01*
X110178368Y-104277475D01*
X110421589Y-104439990D01*
X110691842Y-104551932D01*
X110978740Y-104609000D01*
X111271260Y-104609000D01*
X111558158Y-104551932D01*
X111828411Y-104439990D01*
X112071632Y-104277475D01*
X112203487Y-104145620D01*
X112225498Y-104218180D01*
X112284463Y-104328494D01*
X112363815Y-104425185D01*
X112460506Y-104504537D01*
X112570820Y-104563502D01*
X112690518Y-104599812D01*
X112815000Y-104612072D01*
X113379250Y-104609000D01*
X113538000Y-104450250D01*
X113538000Y-103251000D01*
X113792000Y-103251000D01*
X113792000Y-104450250D01*
X113950750Y-104609000D01*
X114515000Y-104612072D01*
X114639482Y-104599812D01*
X114759180Y-104563502D01*
X114869494Y-104504537D01*
X114966185Y-104425185D01*
X115045537Y-104328494D01*
X115104502Y-104218180D01*
X115140812Y-104098482D01*
X115153072Y-103974000D01*
X115859928Y-103974000D01*
X115872188Y-104098482D01*
X115908498Y-104218180D01*
X115967463Y-104328494D01*
X116046815Y-104425185D01*
X116143506Y-104504537D01*
X116253820Y-104563502D01*
X116373518Y-104599812D01*
X116498000Y-104612072D01*
X117062250Y-104609000D01*
X117221000Y-104450250D01*
X117221000Y-103251000D01*
X117475000Y-103251000D01*
X117475000Y-104450250D01*
X117633750Y-104609000D01*
X118198000Y-104612072D01*
X118322482Y-104599812D01*
X118442180Y-104563502D01*
X118552494Y-104504537D01*
X118649185Y-104425185D01*
X118728537Y-104328494D01*
X118787502Y-104218180D01*
X118823812Y-104098482D01*
X118836072Y-103974000D01*
X118833000Y-103409750D01*
X118674250Y-103251000D01*
X117475000Y-103251000D01*
X117221000Y-103251000D01*
X116021750Y-103251000D01*
X115863000Y-103409750D01*
X115859928Y-103974000D01*
X115153072Y-103974000D01*
X115150000Y-103409750D01*
X114991250Y-103251000D01*
X113792000Y-103251000D01*
X113538000Y-103251000D01*
X113518000Y-103251000D01*
X113518000Y-102997000D01*
X113538000Y-102997000D01*
X113538000Y-101797750D01*
X113792000Y-101797750D01*
X113792000Y-102997000D01*
X114991250Y-102997000D01*
X115150000Y-102838250D01*
X115153072Y-102274000D01*
X115140812Y-102149518D01*
X115104502Y-102029820D01*
X115045537Y-101919506D01*
X114966185Y-101822815D01*
X114869494Y-101743463D01*
X114759180Y-101684498D01*
X114639482Y-101648188D01*
X114515000Y-101635928D01*
X113950750Y-101639000D01*
X113792000Y-101797750D01*
X113538000Y-101797750D01*
X113379250Y-101639000D01*
X112815000Y-101635928D01*
X112690518Y-101648188D01*
X112570820Y-101684498D01*
X112460506Y-101743463D01*
X112363815Y-101822815D01*
X112284463Y-101919506D01*
X112225498Y-102029820D01*
X112203487Y-102102380D01*
X112071632Y-101970525D01*
X111828411Y-101808010D01*
X111558158Y-101696068D01*
X111271260Y-101639000D01*
X110978740Y-101639000D01*
X110691842Y-101696068D01*
X110421589Y-101808010D01*
X110178368Y-101970525D01*
X109971525Y-102177368D01*
X109809010Y-102420589D01*
X109697068Y-102690842D01*
X109640000Y-102977740D01*
X93832280Y-102977740D01*
X93832280Y-93832919D01*
X96400883Y-93832919D01*
X96404439Y-93869024D01*
X96404440Y-96072804D01*
X96400883Y-96108919D01*
X96415074Y-96253004D01*
X96453354Y-96379193D01*
X96457103Y-96391552D01*
X96525353Y-96519239D01*
X96617202Y-96631157D01*
X96645247Y-96654173D01*
X96696618Y-96705544D01*
X96654440Y-96917585D01*
X96654440Y-97200255D01*
X96696618Y-97412296D01*
X96645247Y-97463667D01*
X96617202Y-97486683D01*
X96525353Y-97598601D01*
X96477391Y-97688332D01*
X96457103Y-97726288D01*
X96415074Y-97864836D01*
X96400883Y-98008921D01*
X96404440Y-98045036D01*
X96404439Y-100248816D01*
X96400883Y-100284921D01*
X96415074Y-100429006D01*
X96419321Y-100443006D01*
X96457102Y-100567553D01*
X96525352Y-100695240D01*
X96617201Y-100807158D01*
X96645247Y-100830175D01*
X98473185Y-102658114D01*
X98496201Y-102686159D01*
X98608119Y-102778008D01*
X98735806Y-102846258D01*
X98874354Y-102888286D01*
X98982334Y-102898921D01*
X98982343Y-102898921D01*
X99018438Y-102902476D01*
X99054533Y-102898921D01*
X101813336Y-102898921D01*
X101849441Y-102902477D01*
X101885546Y-102898921D01*
X101993526Y-102888286D01*
X102132074Y-102846258D01*
X102259761Y-102778008D01*
X102371679Y-102686159D01*
X102394699Y-102658109D01*
X103733809Y-101319000D01*
X116053117Y-101319000D01*
X116194525Y-101530632D01*
X116326380Y-101662487D01*
X116253820Y-101684498D01*
X116143506Y-101743463D01*
X116046815Y-101822815D01*
X115967463Y-101919506D01*
X115908498Y-102029820D01*
X115872188Y-102149518D01*
X115859928Y-102274000D01*
X115863000Y-102838250D01*
X116021750Y-102997000D01*
X117221000Y-102997000D01*
X117221000Y-102977000D01*
X117475000Y-102977000D01*
X117475000Y-102997000D01*
X118674250Y-102997000D01*
X118833000Y-102838250D01*
X118836072Y-102274000D01*
X118823812Y-102149518D01*
X118787502Y-102029820D01*
X118728537Y-101919506D01*
X118649185Y-101822815D01*
X118552494Y-101743463D01*
X118442180Y-101684498D01*
X118369620Y-101662487D01*
X118501475Y-101530632D01*
X118642883Y-101319000D01*
X119736117Y-101319000D01*
X119877525Y-101530632D01*
X120009380Y-101662487D01*
X119936820Y-101684498D01*
X119826506Y-101743463D01*
X119729815Y-101822815D01*
X119650463Y-101919506D01*
X119591498Y-102029820D01*
X119555188Y-102149518D01*
X119542928Y-102274000D01*
X119542928Y-103974000D01*
X119555188Y-104098482D01*
X119591498Y-104218180D01*
X119650463Y-104328494D01*
X119729815Y-104425185D01*
X119826506Y-104504537D01*
X119936820Y-104563502D01*
X120056518Y-104599812D01*
X120181000Y-104612072D01*
X121881000Y-104612072D01*
X122005482Y-104599812D01*
X122125180Y-104563502D01*
X122235494Y-104504537D01*
X122332185Y-104425185D01*
X122411537Y-104328494D01*
X122470502Y-104218180D01*
X122506812Y-104098482D01*
X122519072Y-103974000D01*
X122519072Y-103948661D01*
X128635259Y-103948661D01*
X128680760Y-104297319D01*
X128793406Y-104630400D01*
X128905910Y-104840882D01*
X129185651Y-104954744D01*
X130248395Y-103892000D01*
X129185651Y-102829256D01*
X128905910Y-102943118D01*
X128750039Y-103258296D01*
X128658651Y-103597826D01*
X128635259Y-103948661D01*
X122519072Y-103948661D01*
X122519072Y-102649651D01*
X129365256Y-102649651D01*
X130428000Y-103712395D01*
X130442143Y-103698253D01*
X130621748Y-103877858D01*
X130607605Y-103892000D01*
X131670349Y-104954744D01*
X131950090Y-104840882D01*
X132105961Y-104525704D01*
X132197349Y-104186174D01*
X132220741Y-103835339D01*
X132196055Y-103646177D01*
X132417334Y-103867456D01*
X132787489Y-104114786D01*
X133198782Y-104285149D01*
X133635409Y-104372000D01*
X134080591Y-104372000D01*
X134517218Y-104285149D01*
X134928511Y-104114786D01*
X135298666Y-103867456D01*
X135613456Y-103552666D01*
X135860786Y-103182511D01*
X136031149Y-102771218D01*
X136118000Y-102334591D01*
X136118000Y-101889409D01*
X136031149Y-101452782D01*
X135860786Y-101041489D01*
X135613456Y-100671334D01*
X135298666Y-100356544D01*
X134928511Y-100109214D01*
X134517218Y-99938851D01*
X134080591Y-99852000D01*
X133635409Y-99852000D01*
X133198782Y-99938851D01*
X132787489Y-100109214D01*
X132417334Y-100356544D01*
X132102544Y-100671334D01*
X131855214Y-101041489D01*
X131684851Y-101452782D01*
X131598000Y-101889409D01*
X131598000Y-102334591D01*
X131645598Y-102573882D01*
X131606054Y-102534338D01*
X131490743Y-102649649D01*
X131376882Y-102369910D01*
X131061704Y-102214039D01*
X130722174Y-102122651D01*
X130371339Y-102099259D01*
X130022681Y-102144760D01*
X129689600Y-102257406D01*
X129479118Y-102369910D01*
X129365256Y-102649651D01*
X122519072Y-102649651D01*
X122519072Y-102274000D01*
X122506812Y-102149518D01*
X122470502Y-102029820D01*
X122411537Y-101919506D01*
X122332185Y-101822815D01*
X122235494Y-101743463D01*
X122125180Y-101684498D01*
X122052620Y-101662487D01*
X122184475Y-101530632D01*
X122346990Y-101287411D01*
X122458932Y-101017158D01*
X122516000Y-100730260D01*
X122516000Y-100437740D01*
X122458932Y-100150842D01*
X122346990Y-99880589D01*
X122184475Y-99637368D01*
X121977632Y-99430525D01*
X121734411Y-99268010D01*
X121464158Y-99156068D01*
X121177260Y-99099000D01*
X120884740Y-99099000D01*
X120597842Y-99156068D01*
X120327589Y-99268010D01*
X120084368Y-99430525D01*
X119877525Y-99637368D01*
X119736117Y-99849000D01*
X118642883Y-99849000D01*
X118501475Y-99637368D01*
X118294632Y-99430525D01*
X118051411Y-99268010D01*
X117781158Y-99156068D01*
X117494260Y-99099000D01*
X117201740Y-99099000D01*
X116914842Y-99156068D01*
X116644589Y-99268010D01*
X116401368Y-99430525D01*
X116194525Y-99637368D01*
X116053117Y-99849000D01*
X115153072Y-99849000D01*
X115153072Y-98591000D01*
X115140812Y-98466518D01*
X115104502Y-98346820D01*
X115045537Y-98236506D01*
X114966185Y-98139815D01*
X114869494Y-98060463D01*
X114780719Y-98013011D01*
X117188884Y-98013011D01*
X117224989Y-98016567D01*
X117261094Y-98013011D01*
X117369074Y-98002376D01*
X117507622Y-97960348D01*
X117635309Y-97892098D01*
X117747227Y-97800249D01*
X117770248Y-97772198D01*
X120635103Y-94907344D01*
X120884740Y-94957000D01*
X121177260Y-94957000D01*
X121464158Y-94899932D01*
X121734411Y-94787990D01*
X121977632Y-94625475D01*
X122184475Y-94418632D01*
X122346990Y-94175411D01*
X122458932Y-93905158D01*
X122516000Y-93618260D01*
X122516000Y-93325740D01*
X122458932Y-93038842D01*
X122346990Y-92768589D01*
X122279111Y-92667001D01*
X124520555Y-92667001D01*
X128378273Y-96524720D01*
X128310629Y-96625957D01*
X128206225Y-96878011D01*
X128153000Y-97145589D01*
X128153000Y-97418411D01*
X128206225Y-97685989D01*
X128310629Y-97938043D01*
X128462201Y-98164886D01*
X128595315Y-98298000D01*
X128462201Y-98431114D01*
X128310629Y-98657957D01*
X128206225Y-98910011D01*
X128153000Y-99177589D01*
X128153000Y-99450411D01*
X128206225Y-99717989D01*
X128310629Y-99970043D01*
X128462201Y-100196886D01*
X128655114Y-100389799D01*
X128881957Y-100541371D01*
X129134011Y-100645775D01*
X129401589Y-100699000D01*
X129674411Y-100699000D01*
X129941989Y-100645775D01*
X130194043Y-100541371D01*
X130420886Y-100389799D01*
X130613799Y-100196886D01*
X130765371Y-99970043D01*
X130869775Y-99717989D01*
X130889354Y-99619562D01*
X130914011Y-99629775D01*
X131181589Y-99683000D01*
X131454411Y-99683000D01*
X131721989Y-99629775D01*
X131974043Y-99525371D01*
X132200886Y-99373799D01*
X132393799Y-99180886D01*
X132545371Y-98954043D01*
X132649775Y-98701989D01*
X132703000Y-98434411D01*
X132703000Y-98161589D01*
X132649775Y-97894011D01*
X132545371Y-97641957D01*
X132393799Y-97415114D01*
X132260685Y-97282000D01*
X132393799Y-97148886D01*
X132545371Y-96922043D01*
X132649775Y-96669989D01*
X132703000Y-96402411D01*
X132703000Y-96129589D01*
X132649775Y-95862011D01*
X132545371Y-95609957D01*
X132393799Y-95383114D01*
X132260685Y-95250000D01*
X132393799Y-95116886D01*
X132545371Y-94890043D01*
X132649775Y-94637989D01*
X132703000Y-94370411D01*
X132703000Y-94097589D01*
X132649775Y-93830011D01*
X132545371Y-93577957D01*
X132460676Y-93451202D01*
X132519185Y-93403185D01*
X132598537Y-93306494D01*
X132657502Y-93196180D01*
X132693812Y-93076482D01*
X132706072Y-92952000D01*
X132706072Y-91452000D01*
X132696413Y-91353931D01*
X132787489Y-91414786D01*
X133198782Y-91585149D01*
X133635409Y-91672000D01*
X134080591Y-91672000D01*
X134517218Y-91585149D01*
X134928511Y-91414786D01*
X135298666Y-91167456D01*
X135613456Y-90852666D01*
X135860786Y-90482511D01*
X136031149Y-90071218D01*
X136118000Y-89634591D01*
X136118000Y-89189409D01*
X136031149Y-88752782D01*
X135860786Y-88341489D01*
X135613456Y-87971334D01*
X135298666Y-87656544D01*
X134928511Y-87409214D01*
X134517218Y-87238851D01*
X134080591Y-87152000D01*
X133635409Y-87152000D01*
X133198782Y-87238851D01*
X132787489Y-87409214D01*
X132417334Y-87656544D01*
X132200896Y-87872982D01*
X132220741Y-87575339D01*
X132175240Y-87226681D01*
X132062594Y-86893600D01*
X131950090Y-86683118D01*
X131670349Y-86569256D01*
X130607605Y-87632000D01*
X130621748Y-87646143D01*
X130442143Y-87825748D01*
X130428000Y-87811605D01*
X129365256Y-88874349D01*
X129479118Y-89154090D01*
X129794296Y-89309961D01*
X130133826Y-89401349D01*
X130484661Y-89424741D01*
X130833319Y-89379240D01*
X131166400Y-89266594D01*
X131376882Y-89154090D01*
X131490743Y-88874351D01*
X131606054Y-88989662D01*
X131645598Y-88950118D01*
X131598000Y-89189409D01*
X131598000Y-89634591D01*
X131684851Y-90071218D01*
X131855214Y-90482511D01*
X132077270Y-90814841D01*
X132068000Y-90813928D01*
X130568000Y-90813928D01*
X130443518Y-90826188D01*
X130323820Y-90862498D01*
X130213506Y-90921463D01*
X130116815Y-91000815D01*
X130037463Y-91097506D01*
X129978498Y-91207820D01*
X129942188Y-91327518D01*
X129929928Y-91452000D01*
X129929928Y-91883826D01*
X129674411Y-91833000D01*
X129401589Y-91833000D01*
X129134011Y-91886225D01*
X128881957Y-91990629D01*
X128655114Y-92142201D01*
X128462201Y-92335114D01*
X128310629Y-92561957D01*
X128206225Y-92814011D01*
X128153000Y-93081589D01*
X128153000Y-93354411D01*
X128181761Y-93499000D01*
X127939447Y-93499000D01*
X124878259Y-90437813D01*
X124855238Y-90409762D01*
X124743320Y-90317913D01*
X124615633Y-90249663D01*
X124477085Y-90207635D01*
X124369105Y-90197000D01*
X124333000Y-90193444D01*
X124296895Y-90197000D01*
X122325883Y-90197000D01*
X122184475Y-89985368D01*
X122052620Y-89853513D01*
X122125180Y-89831502D01*
X122235494Y-89772537D01*
X122332185Y-89693185D01*
X122411537Y-89596494D01*
X122470502Y-89486180D01*
X122506812Y-89366482D01*
X122519072Y-89242000D01*
X122519072Y-87688661D01*
X128635259Y-87688661D01*
X128680760Y-88037319D01*
X128793406Y-88370400D01*
X128905910Y-88580882D01*
X129185651Y-88694744D01*
X130248395Y-87632000D01*
X129185651Y-86569256D01*
X128905910Y-86683118D01*
X128750039Y-86998296D01*
X128658651Y-87337826D01*
X128635259Y-87688661D01*
X122519072Y-87688661D01*
X122519072Y-87542000D01*
X122506812Y-87417518D01*
X122470502Y-87297820D01*
X122411537Y-87187506D01*
X122332185Y-87090815D01*
X122235494Y-87011463D01*
X122125180Y-86952498D01*
X122005482Y-86916188D01*
X121881000Y-86903928D01*
X120181000Y-86903928D01*
X120056518Y-86916188D01*
X119936820Y-86952498D01*
X119826506Y-87011463D01*
X119729815Y-87090815D01*
X119650463Y-87187506D01*
X119591498Y-87297820D01*
X119555188Y-87417518D01*
X119542928Y-87542000D01*
X119542928Y-88657001D01*
X118836072Y-88657001D01*
X118836072Y-87542000D01*
X118823812Y-87417518D01*
X118787502Y-87297820D01*
X118728537Y-87187506D01*
X118649185Y-87090815D01*
X118552494Y-87011463D01*
X118442180Y-86952498D01*
X118322482Y-86916188D01*
X118198000Y-86903928D01*
X116498000Y-86903928D01*
X116373518Y-86916188D01*
X116253820Y-86952498D01*
X116143506Y-87011463D01*
X116046815Y-87090815D01*
X115967463Y-87187506D01*
X115908498Y-87297820D01*
X115905651Y-87307205D01*
X115273247Y-86674801D01*
X115250227Y-86646751D01*
X115138309Y-86554902D01*
X115010622Y-86486652D01*
X114872074Y-86444624D01*
X114764094Y-86433989D01*
X114727989Y-86430433D01*
X114691884Y-86433989D01*
X102475465Y-86433989D01*
X102439370Y-86430434D01*
X102403275Y-86433989D01*
X102403266Y-86433989D01*
X102295286Y-86444624D01*
X102156738Y-86486652D01*
X102029051Y-86554902D01*
X101917133Y-86646751D01*
X101894117Y-86674796D01*
X98442816Y-90126098D01*
X98230775Y-90083920D01*
X97948105Y-90083920D01*
X97670866Y-90139067D01*
X97409713Y-90247240D01*
X97174681Y-90404283D01*
X96974803Y-90604161D01*
X96817760Y-90839193D01*
X96709587Y-91100346D01*
X96654440Y-91377585D01*
X96654440Y-91660255D01*
X96709587Y-91937494D01*
X96817760Y-92198647D01*
X96974803Y-92433679D01*
X97174681Y-92633557D01*
X97249417Y-92683494D01*
X96645247Y-93287665D01*
X96617201Y-93310682D01*
X96525352Y-93422600D01*
X96457102Y-93550287D01*
X96433442Y-93628285D01*
X96415074Y-93688834D01*
X96400883Y-93832919D01*
X93832280Y-93832919D01*
X93832280Y-86389651D01*
X129365256Y-86389651D01*
X130428000Y-87452395D01*
X131490744Y-86389651D01*
X131376882Y-86109910D01*
X131061704Y-85954039D01*
X130722174Y-85862651D01*
X130371339Y-85839259D01*
X130022681Y-85884760D01*
X129689600Y-85997406D01*
X129479118Y-86109910D01*
X129365256Y-86389651D01*
X93832280Y-86389651D01*
X93832280Y-80720800D01*
X99666208Y-80720800D01*
X99381299Y-80838813D01*
%TA.AperFunction,Conductor*%
D20*
G36*
X99381299Y-80838813D02*
G01*
X98949725Y-81127182D01*
X98582702Y-81494205D01*
X98294333Y-81925779D01*
X98095701Y-82405319D01*
X97994440Y-82914395D01*
X97994440Y-83433445D01*
X98095701Y-83942521D01*
X98294333Y-84422061D01*
X98582702Y-84853635D01*
X98949725Y-85220658D01*
X99381299Y-85509027D01*
X99860839Y-85707659D01*
X100369915Y-85808920D01*
X100888965Y-85808920D01*
X101398041Y-85707659D01*
X101877581Y-85509027D01*
X102309155Y-85220658D01*
X102676178Y-84853635D01*
X102964547Y-84422061D01*
X103163179Y-83942521D01*
X103264440Y-83433445D01*
X103264440Y-82914395D01*
X103163179Y-82405319D01*
X102964547Y-81925779D01*
X102676178Y-81494205D01*
X102309155Y-81127182D01*
X101877581Y-80838813D01*
X101592672Y-80720800D01*
X139339726Y-80720800D01*
X139339995Y-111019884D01*
X132793204Y-111018726D01*
X132793139Y-111018720D01*
X132756707Y-111018720D01*
X132728418Y-111018715D01*
X132728367Y-111018720D01*
X93832280Y-111018720D01*
X93832280Y-107914395D01*
X97994440Y-107914395D01*
X97994440Y-108433445D01*
X98095701Y-108942521D01*
X98294333Y-109422061D01*
X98582702Y-109853635D01*
X98949725Y-110220658D01*
X99381299Y-110509027D01*
X99860839Y-110707659D01*
X100369915Y-110808920D01*
X100888965Y-110808920D01*
X101398041Y-110707659D01*
X101877581Y-110509027D01*
X102309155Y-110220658D01*
X102676178Y-109853635D01*
X102964547Y-109422061D01*
X103163179Y-108942521D01*
X103264440Y-108433445D01*
X103264440Y-107914395D01*
X103163179Y-107405319D01*
X102964547Y-106925779D01*
X102676178Y-106494205D01*
X102309155Y-106127182D01*
X101877581Y-105838813D01*
X101398041Y-105640181D01*
X100888965Y-105538920D01*
X100369915Y-105538920D01*
X99860839Y-105640181D01*
X99381299Y-105838813D01*
X98949725Y-106127182D01*
X98582702Y-106494205D01*
X98294333Y-106925779D01*
X98095701Y-107405319D01*
X97994440Y-107914395D01*
X93832280Y-107914395D01*
X93832280Y-105134349D01*
X129365256Y-105134349D01*
X129479118Y-105414090D01*
X129794296Y-105569961D01*
X130133826Y-105661349D01*
X130484661Y-105684741D01*
X130833319Y-105639240D01*
X131166400Y-105526594D01*
X131376882Y-105414090D01*
X131490744Y-105134349D01*
X130428000Y-104071605D01*
X129365256Y-105134349D01*
X93832280Y-105134349D01*
X93832280Y-102977740D01*
X109640000Y-102977740D01*
X109640000Y-103270260D01*
X109697068Y-103557158D01*
X109809010Y-103827411D01*
X109971525Y-104070632D01*
X110178368Y-104277475D01*
X110421589Y-104439990D01*
X110691842Y-104551932D01*
X110978740Y-104609000D01*
X111271260Y-104609000D01*
X111558158Y-104551932D01*
X111828411Y-104439990D01*
X112071632Y-104277475D01*
X112203487Y-104145620D01*
X112225498Y-104218180D01*
X112284463Y-104328494D01*
X112363815Y-104425185D01*
X112460506Y-104504537D01*
X112570820Y-104563502D01*
X112690518Y-104599812D01*
X112815000Y-104612072D01*
X113379250Y-104609000D01*
X113538000Y-104450250D01*
X113538000Y-103251000D01*
X113792000Y-103251000D01*
X113792000Y-104450250D01*
X113950750Y-104609000D01*
X114515000Y-104612072D01*
X114639482Y-104599812D01*
X114759180Y-104563502D01*
X114869494Y-104504537D01*
X114966185Y-104425185D01*
X115045537Y-104328494D01*
X115104502Y-104218180D01*
X115140812Y-104098482D01*
X115153072Y-103974000D01*
X115859928Y-103974000D01*
X115872188Y-104098482D01*
X115908498Y-104218180D01*
X115967463Y-104328494D01*
X116046815Y-104425185D01*
X116143506Y-104504537D01*
X116253820Y-104563502D01*
X116373518Y-104599812D01*
X116498000Y-104612072D01*
X117062250Y-104609000D01*
X117221000Y-104450250D01*
X117221000Y-103251000D01*
X117475000Y-103251000D01*
X117475000Y-104450250D01*
X117633750Y-104609000D01*
X118198000Y-104612072D01*
X118322482Y-104599812D01*
X118442180Y-104563502D01*
X118552494Y-104504537D01*
X118649185Y-104425185D01*
X118728537Y-104328494D01*
X118787502Y-104218180D01*
X118823812Y-104098482D01*
X118836072Y-103974000D01*
X118833000Y-103409750D01*
X118674250Y-103251000D01*
X117475000Y-103251000D01*
X117221000Y-103251000D01*
X116021750Y-103251000D01*
X115863000Y-103409750D01*
X115859928Y-103974000D01*
X115153072Y-103974000D01*
X115150000Y-103409750D01*
X114991250Y-103251000D01*
X113792000Y-103251000D01*
X113538000Y-103251000D01*
X113518000Y-103251000D01*
X113518000Y-102997000D01*
X113538000Y-102997000D01*
X113538000Y-101797750D01*
X113792000Y-101797750D01*
X113792000Y-102997000D01*
X114991250Y-102997000D01*
X115150000Y-102838250D01*
X115153072Y-102274000D01*
X115140812Y-102149518D01*
X115104502Y-102029820D01*
X115045537Y-101919506D01*
X114966185Y-101822815D01*
X114869494Y-101743463D01*
X114759180Y-101684498D01*
X114639482Y-101648188D01*
X114515000Y-101635928D01*
X113950750Y-101639000D01*
X113792000Y-101797750D01*
X113538000Y-101797750D01*
X113379250Y-101639000D01*
X112815000Y-101635928D01*
X112690518Y-101648188D01*
X112570820Y-101684498D01*
X112460506Y-101743463D01*
X112363815Y-101822815D01*
X112284463Y-101919506D01*
X112225498Y-102029820D01*
X112203487Y-102102380D01*
X112071632Y-101970525D01*
X111828411Y-101808010D01*
X111558158Y-101696068D01*
X111271260Y-101639000D01*
X110978740Y-101639000D01*
X110691842Y-101696068D01*
X110421589Y-101808010D01*
X110178368Y-101970525D01*
X109971525Y-102177368D01*
X109809010Y-102420589D01*
X109697068Y-102690842D01*
X109640000Y-102977740D01*
X93832280Y-102977740D01*
X93832280Y-93832919D01*
X96400883Y-93832919D01*
X96404439Y-93869024D01*
X96404440Y-96072804D01*
X96400883Y-96108919D01*
X96415074Y-96253004D01*
X96453354Y-96379193D01*
X96457103Y-96391552D01*
X96525353Y-96519239D01*
X96617202Y-96631157D01*
X96645247Y-96654173D01*
X96696618Y-96705544D01*
X96654440Y-96917585D01*
X96654440Y-97200255D01*
X96696618Y-97412296D01*
X96645247Y-97463667D01*
X96617202Y-97486683D01*
X96525353Y-97598601D01*
X96477391Y-97688332D01*
X96457103Y-97726288D01*
X96415074Y-97864836D01*
X96400883Y-98008921D01*
X96404440Y-98045036D01*
X96404439Y-100248816D01*
X96400883Y-100284921D01*
X96415074Y-100429006D01*
X96419321Y-100443006D01*
X96457102Y-100567553D01*
X96525352Y-100695240D01*
X96617201Y-100807158D01*
X96645247Y-100830175D01*
X98473185Y-102658114D01*
X98496201Y-102686159D01*
X98608119Y-102778008D01*
X98735806Y-102846258D01*
X98874354Y-102888286D01*
X98982334Y-102898921D01*
X98982343Y-102898921D01*
X99018438Y-102902476D01*
X99054533Y-102898921D01*
X101813336Y-102898921D01*
X101849441Y-102902477D01*
X101885546Y-102898921D01*
X101993526Y-102888286D01*
X102132074Y-102846258D01*
X102259761Y-102778008D01*
X102371679Y-102686159D01*
X102394699Y-102658109D01*
X103733809Y-101319000D01*
X116053117Y-101319000D01*
X116194525Y-101530632D01*
X116326380Y-101662487D01*
X116253820Y-101684498D01*
X116143506Y-101743463D01*
X116046815Y-101822815D01*
X115967463Y-101919506D01*
X115908498Y-102029820D01*
X115872188Y-102149518D01*
X115859928Y-102274000D01*
X115863000Y-102838250D01*
X116021750Y-102997000D01*
X117221000Y-102997000D01*
X117221000Y-102977000D01*
X117475000Y-102977000D01*
X117475000Y-102997000D01*
X118674250Y-102997000D01*
X118833000Y-102838250D01*
X118836072Y-102274000D01*
X118823812Y-102149518D01*
X118787502Y-102029820D01*
X118728537Y-101919506D01*
X118649185Y-101822815D01*
X118552494Y-101743463D01*
X118442180Y-101684498D01*
X118369620Y-101662487D01*
X118501475Y-101530632D01*
X118642883Y-101319000D01*
X119736117Y-101319000D01*
X119877525Y-101530632D01*
X120009380Y-101662487D01*
X119936820Y-101684498D01*
X119826506Y-101743463D01*
X119729815Y-101822815D01*
X119650463Y-101919506D01*
X119591498Y-102029820D01*
X119555188Y-102149518D01*
X119542928Y-102274000D01*
X119542928Y-103974000D01*
X119555188Y-104098482D01*
X119591498Y-104218180D01*
X119650463Y-104328494D01*
X119729815Y-104425185D01*
X119826506Y-104504537D01*
X119936820Y-104563502D01*
X120056518Y-104599812D01*
X120181000Y-104612072D01*
X121881000Y-104612072D01*
X122005482Y-104599812D01*
X122125180Y-104563502D01*
X122235494Y-104504537D01*
X122332185Y-104425185D01*
X122411537Y-104328494D01*
X122470502Y-104218180D01*
X122506812Y-104098482D01*
X122519072Y-103974000D01*
X122519072Y-103948661D01*
X128635259Y-103948661D01*
X128680760Y-104297319D01*
X128793406Y-104630400D01*
X128905910Y-104840882D01*
X129185651Y-104954744D01*
X130248395Y-103892000D01*
X129185651Y-102829256D01*
X128905910Y-102943118D01*
X128750039Y-103258296D01*
X128658651Y-103597826D01*
X128635259Y-103948661D01*
X122519072Y-103948661D01*
X122519072Y-102649651D01*
X129365256Y-102649651D01*
X130428000Y-103712395D01*
X130442143Y-103698253D01*
X130621748Y-103877858D01*
X130607605Y-103892000D01*
X131670349Y-104954744D01*
X131950090Y-104840882D01*
X132105961Y-104525704D01*
X132197349Y-104186174D01*
X132220741Y-103835339D01*
X132196055Y-103646177D01*
X132417334Y-103867456D01*
X132787489Y-104114786D01*
X133198782Y-104285149D01*
X133635409Y-104372000D01*
X134080591Y-104372000D01*
X134517218Y-104285149D01*
X134928511Y-104114786D01*
X135298666Y-103867456D01*
X135613456Y-103552666D01*
X135860786Y-103182511D01*
X136031149Y-102771218D01*
X136118000Y-102334591D01*
X136118000Y-101889409D01*
X136031149Y-101452782D01*
X135860786Y-101041489D01*
X135613456Y-100671334D01*
X135298666Y-100356544D01*
X134928511Y-100109214D01*
X134517218Y-99938851D01*
X134080591Y-99852000D01*
X133635409Y-99852000D01*
X133198782Y-99938851D01*
X132787489Y-100109214D01*
X132417334Y-100356544D01*
X132102544Y-100671334D01*
X131855214Y-101041489D01*
X131684851Y-101452782D01*
X131598000Y-101889409D01*
X131598000Y-102334591D01*
X131645598Y-102573882D01*
X131606054Y-102534338D01*
X131490743Y-102649649D01*
X131376882Y-102369910D01*
X131061704Y-102214039D01*
X130722174Y-102122651D01*
X130371339Y-102099259D01*
X130022681Y-102144760D01*
X129689600Y-102257406D01*
X129479118Y-102369910D01*
X129365256Y-102649651D01*
X122519072Y-102649651D01*
X122519072Y-102274000D01*
X122506812Y-102149518D01*
X122470502Y-102029820D01*
X122411537Y-101919506D01*
X122332185Y-101822815D01*
X122235494Y-101743463D01*
X122125180Y-101684498D01*
X122052620Y-101662487D01*
X122184475Y-101530632D01*
X122346990Y-101287411D01*
X122458932Y-101017158D01*
X122516000Y-100730260D01*
X122516000Y-100437740D01*
X122458932Y-100150842D01*
X122346990Y-99880589D01*
X122184475Y-99637368D01*
X121977632Y-99430525D01*
X121734411Y-99268010D01*
X121464158Y-99156068D01*
X121177260Y-99099000D01*
X120884740Y-99099000D01*
X120597842Y-99156068D01*
X120327589Y-99268010D01*
X120084368Y-99430525D01*
X119877525Y-99637368D01*
X119736117Y-99849000D01*
X118642883Y-99849000D01*
X118501475Y-99637368D01*
X118294632Y-99430525D01*
X118051411Y-99268010D01*
X117781158Y-99156068D01*
X117494260Y-99099000D01*
X117201740Y-99099000D01*
X116914842Y-99156068D01*
X116644589Y-99268010D01*
X116401368Y-99430525D01*
X116194525Y-99637368D01*
X116053117Y-99849000D01*
X115153072Y-99849000D01*
X115153072Y-98591000D01*
X115140812Y-98466518D01*
X115104502Y-98346820D01*
X115045537Y-98236506D01*
X114966185Y-98139815D01*
X114869494Y-98060463D01*
X114780719Y-98013011D01*
X117188884Y-98013011D01*
X117224989Y-98016567D01*
X117261094Y-98013011D01*
X117369074Y-98002376D01*
X117507622Y-97960348D01*
X117635309Y-97892098D01*
X117747227Y-97800249D01*
X117770248Y-97772198D01*
X120635103Y-94907344D01*
X120884740Y-94957000D01*
X121177260Y-94957000D01*
X121464158Y-94899932D01*
X121734411Y-94787990D01*
X121977632Y-94625475D01*
X122184475Y-94418632D01*
X122346990Y-94175411D01*
X122458932Y-93905158D01*
X122516000Y-93618260D01*
X122516000Y-93325740D01*
X122458932Y-93038842D01*
X122346990Y-92768589D01*
X122279111Y-92667001D01*
X124520555Y-92667001D01*
X128378273Y-96524720D01*
X128310629Y-96625957D01*
X128206225Y-96878011D01*
X128153000Y-97145589D01*
X128153000Y-97418411D01*
X128206225Y-97685989D01*
X128310629Y-97938043D01*
X128462201Y-98164886D01*
X128595315Y-98298000D01*
X128462201Y-98431114D01*
X128310629Y-98657957D01*
X128206225Y-98910011D01*
X128153000Y-99177589D01*
X128153000Y-99450411D01*
X128206225Y-99717989D01*
X128310629Y-99970043D01*
X128462201Y-100196886D01*
X128655114Y-100389799D01*
X128881957Y-100541371D01*
X129134011Y-100645775D01*
X129401589Y-100699000D01*
X129674411Y-100699000D01*
X129941989Y-100645775D01*
X130194043Y-100541371D01*
X130420886Y-100389799D01*
X130613799Y-100196886D01*
X130765371Y-99970043D01*
X130869775Y-99717989D01*
X130889354Y-99619562D01*
X130914011Y-99629775D01*
X131181589Y-99683000D01*
X131454411Y-99683000D01*
X131721989Y-99629775D01*
X131974043Y-99525371D01*
X132200886Y-99373799D01*
X132393799Y-99180886D01*
X132545371Y-98954043D01*
X132649775Y-98701989D01*
X132703000Y-98434411D01*
X132703000Y-98161589D01*
X132649775Y-97894011D01*
X132545371Y-97641957D01*
X132393799Y-97415114D01*
X132260685Y-97282000D01*
X132393799Y-97148886D01*
X132545371Y-96922043D01*
X132649775Y-96669989D01*
X132703000Y-96402411D01*
X132703000Y-96129589D01*
X132649775Y-95862011D01*
X132545371Y-95609957D01*
X132393799Y-95383114D01*
X132260685Y-95250000D01*
X132393799Y-95116886D01*
X132545371Y-94890043D01*
X132649775Y-94637989D01*
X132703000Y-94370411D01*
X132703000Y-94097589D01*
X132649775Y-93830011D01*
X132545371Y-93577957D01*
X132460676Y-93451202D01*
X132519185Y-93403185D01*
X132598537Y-93306494D01*
X132657502Y-93196180D01*
X132693812Y-93076482D01*
X132706072Y-92952000D01*
X132706072Y-91452000D01*
X132696413Y-91353931D01*
X132787489Y-91414786D01*
X133198782Y-91585149D01*
X133635409Y-91672000D01*
X134080591Y-91672000D01*
X134517218Y-91585149D01*
X134928511Y-91414786D01*
X135298666Y-91167456D01*
X135613456Y-90852666D01*
X135860786Y-90482511D01*
X136031149Y-90071218D01*
X136118000Y-89634591D01*
X136118000Y-89189409D01*
X136031149Y-88752782D01*
X135860786Y-88341489D01*
X135613456Y-87971334D01*
X135298666Y-87656544D01*
X134928511Y-87409214D01*
X134517218Y-87238851D01*
X134080591Y-87152000D01*
X133635409Y-87152000D01*
X133198782Y-87238851D01*
X132787489Y-87409214D01*
X132417334Y-87656544D01*
X132200896Y-87872982D01*
X132220741Y-87575339D01*
X132175240Y-87226681D01*
X132062594Y-86893600D01*
X131950090Y-86683118D01*
X131670349Y-86569256D01*
X130607605Y-87632000D01*
X130621748Y-87646143D01*
X130442143Y-87825748D01*
X130428000Y-87811605D01*
X129365256Y-88874349D01*
X129479118Y-89154090D01*
X129794296Y-89309961D01*
X130133826Y-89401349D01*
X130484661Y-89424741D01*
X130833319Y-89379240D01*
X131166400Y-89266594D01*
X131376882Y-89154090D01*
X131490743Y-88874351D01*
X131606054Y-88989662D01*
X131645598Y-88950118D01*
X131598000Y-89189409D01*
X131598000Y-89634591D01*
X131684851Y-90071218D01*
X131855214Y-90482511D01*
X132077270Y-90814841D01*
X132068000Y-90813928D01*
X130568000Y-90813928D01*
X130443518Y-90826188D01*
X130323820Y-90862498D01*
X130213506Y-90921463D01*
X130116815Y-91000815D01*
X130037463Y-91097506D01*
X129978498Y-91207820D01*
X129942188Y-91327518D01*
X129929928Y-91452000D01*
X129929928Y-91883826D01*
X129674411Y-91833000D01*
X129401589Y-91833000D01*
X129134011Y-91886225D01*
X128881957Y-91990629D01*
X128655114Y-92142201D01*
X128462201Y-92335114D01*
X128310629Y-92561957D01*
X128206225Y-92814011D01*
X128153000Y-93081589D01*
X128153000Y-93354411D01*
X128181761Y-93499000D01*
X127939447Y-93499000D01*
X124878259Y-90437813D01*
X124855238Y-90409762D01*
X124743320Y-90317913D01*
X124615633Y-90249663D01*
X124477085Y-90207635D01*
X124369105Y-90197000D01*
X124333000Y-90193444D01*
X124296895Y-90197000D01*
X122325883Y-90197000D01*
X122184475Y-89985368D01*
X122052620Y-89853513D01*
X122125180Y-89831502D01*
X122235494Y-89772537D01*
X122332185Y-89693185D01*
X122411537Y-89596494D01*
X122470502Y-89486180D01*
X122506812Y-89366482D01*
X122519072Y-89242000D01*
X122519072Y-87688661D01*
X128635259Y-87688661D01*
X128680760Y-88037319D01*
X128793406Y-88370400D01*
X128905910Y-88580882D01*
X129185651Y-88694744D01*
X130248395Y-87632000D01*
X129185651Y-86569256D01*
X128905910Y-86683118D01*
X128750039Y-86998296D01*
X128658651Y-87337826D01*
X128635259Y-87688661D01*
X122519072Y-87688661D01*
X122519072Y-87542000D01*
X122506812Y-87417518D01*
X122470502Y-87297820D01*
X122411537Y-87187506D01*
X122332185Y-87090815D01*
X122235494Y-87011463D01*
X122125180Y-86952498D01*
X122005482Y-86916188D01*
X121881000Y-86903928D01*
X120181000Y-86903928D01*
X120056518Y-86916188D01*
X119936820Y-86952498D01*
X119826506Y-87011463D01*
X119729815Y-87090815D01*
X119650463Y-87187506D01*
X119591498Y-87297820D01*
X119555188Y-87417518D01*
X119542928Y-87542000D01*
X119542928Y-88657001D01*
X118836072Y-88657001D01*
X118836072Y-87542000D01*
X118823812Y-87417518D01*
X118787502Y-87297820D01*
X118728537Y-87187506D01*
X118649185Y-87090815D01*
X118552494Y-87011463D01*
X118442180Y-86952498D01*
X118322482Y-86916188D01*
X118198000Y-86903928D01*
X116498000Y-86903928D01*
X116373518Y-86916188D01*
X116253820Y-86952498D01*
X116143506Y-87011463D01*
X116046815Y-87090815D01*
X115967463Y-87187506D01*
X115908498Y-87297820D01*
X115905651Y-87307205D01*
X115273247Y-86674801D01*
X115250227Y-86646751D01*
X115138309Y-86554902D01*
X115010622Y-86486652D01*
X114872074Y-86444624D01*
X114764094Y-86433989D01*
X114727989Y-86430433D01*
X114691884Y-86433989D01*
X102475465Y-86433989D01*
X102439370Y-86430434D01*
X102403275Y-86433989D01*
X102403266Y-86433989D01*
X102295286Y-86444624D01*
X102156738Y-86486652D01*
X102029051Y-86554902D01*
X101917133Y-86646751D01*
X101894117Y-86674796D01*
X98442816Y-90126098D01*
X98230775Y-90083920D01*
X97948105Y-90083920D01*
X97670866Y-90139067D01*
X97409713Y-90247240D01*
X97174681Y-90404283D01*
X96974803Y-90604161D01*
X96817760Y-90839193D01*
X96709587Y-91100346D01*
X96654440Y-91377585D01*
X96654440Y-91660255D01*
X96709587Y-91937494D01*
X96817760Y-92198647D01*
X96974803Y-92433679D01*
X97174681Y-92633557D01*
X97249417Y-92683494D01*
X96645247Y-93287665D01*
X96617201Y-93310682D01*
X96525352Y-93422600D01*
X96457102Y-93550287D01*
X96433442Y-93628285D01*
X96415074Y-93688834D01*
X96400883Y-93832919D01*
X93832280Y-93832919D01*
X93832280Y-86389651D01*
X129365256Y-86389651D01*
X130428000Y-87452395D01*
X131490744Y-86389651D01*
X131376882Y-86109910D01*
X131061704Y-85954039D01*
X130722174Y-85862651D01*
X130371339Y-85839259D01*
X130022681Y-85884760D01*
X129689600Y-85997406D01*
X129479118Y-86109910D01*
X129365256Y-86389651D01*
X93832280Y-86389651D01*
X93832280Y-80720800D01*
X99666208Y-80720800D01*
X99381299Y-80838813D01*
G37*
%TD.AperFunction*%
%TD*%
M02*
