%TF.GenerationSoftware,KiCad,Pcbnew,(5.1.10-1-10_14)*%
%TF.CreationDate,2021-06-16T16:32:42-07:00*%
%TF.ProjectId,XDS-Analog-to-StudioHub,5844532d-416e-4616-9c6f-672d746f2d53,rev?*%
%TF.SameCoordinates,Original*%
%TF.FileFunction,Soldermask,Bot*%
%TF.FilePolarity,Negative*%
%FSLAX46Y46*%
G04 Gerber Fmt 4.6, Leading zero omitted, Abs format (unit mm)*
G04 Created by KiCad (PCBNEW (5.1.10-1-10_14)) date 2021-06-16 16:32:42*
%MOMM*%
%LPD*%
G01*
G04 APERTURE LIST*
%ADD10R,1.500000X1.500000*%
%ADD11C,1.500000*%
%ADD12C,3.250000*%
%ADD13C,2.300000*%
%ADD14O,1.700000X1.700000*%
%ADD15R,1.700000X1.700000*%
%ADD16R,1.600000X1.600000*%
%ADD17C,1.600000*%
%ADD18C,4.000000*%
G04 APERTURE END LIST*
D10*
%TO.C,J1*%
X123672600Y-87198200D03*
D11*
X123672600Y-89230200D03*
X123672600Y-91262200D03*
X123672600Y-93294200D03*
X121892600Y-88214200D03*
X121892600Y-90246200D03*
X121892600Y-92278200D03*
X121892600Y-94310200D03*
D12*
X126212600Y-84408200D03*
X126212600Y-97108200D03*
D13*
X122782600Y-98888200D03*
X122782600Y-82628200D03*
%TD*%
D14*
%TO.C,JP4*%
X110474760Y-84201000D03*
D15*
X113014760Y-84201000D03*
%TD*%
%TO.C,JP8*%
X120716040Y-109804200D03*
D14*
X118176040Y-109804200D03*
%TD*%
D16*
%TO.C,J2*%
X100929440Y-101213920D03*
D17*
X100929440Y-98443920D03*
X100929440Y-95673920D03*
X100929440Y-92903920D03*
X100929440Y-90133920D03*
X98089440Y-99828920D03*
X98089440Y-97058920D03*
X98089440Y-94288920D03*
X98089440Y-91518920D03*
D18*
X100629440Y-83173920D03*
X100629440Y-108173920D03*
%TD*%
D15*
%TO.C,JP3*%
X113014760Y-87904320D03*
D14*
X110474760Y-87904320D03*
%TD*%
D15*
%TO.C,JP1*%
X110434120Y-98917760D03*
D14*
X112974120Y-98917760D03*
%TD*%
%TO.C,JP2*%
X112975081Y-102572279D03*
D15*
X110435081Y-102572279D03*
%TD*%
D14*
%TO.C,JP5*%
X118211600Y-102412800D03*
D15*
X120751600Y-102412800D03*
%TD*%
D14*
%TO.C,JP6*%
X110444280Y-106222800D03*
D15*
X112984280Y-106222800D03*
%TD*%
%TO.C,JP7*%
X112979200Y-109870240D03*
D14*
X110439200Y-109870240D03*
%TD*%
D15*
%TO.C,JP9*%
X120746520Y-106075480D03*
D14*
X118206520Y-106075480D03*
%TD*%
%TO.C,JP10*%
X110453719Y-91594001D03*
D15*
X112993719Y-91594001D03*
%TD*%
%TO.C,JP11*%
X112993719Y-95255080D03*
D14*
X110453719Y-95255080D03*
%TD*%
M02*
