%TF.GenerationSoftware,KiCad,Pcbnew,(5.1.10-1-10_14)*%
%TF.CreationDate,2021-06-16T16:32:42-07:00*%
%TF.ProjectId,XDS-Analog-to-StudioHub,5844532d-416e-4616-9c6f-672d746f2d53,rev?*%
%TF.SameCoordinates,Original*%
%TF.FileFunction,Copper,L1,Top*%
%TF.FilePolarity,Positive*%
%FSLAX46Y46*%
G04 Gerber Fmt 4.6, Leading zero omitted, Abs format (unit mm)*
G04 Created by KiCad (PCBNEW (5.1.10-1-10_14)) date 2021-06-16 16:32:42*
%MOMM*%
%LPD*%
G01*
G04 APERTURE LIST*
%TA.AperFunction,ComponentPad*%
%ADD10R,1.500000X1.500000*%
%TD*%
%TA.AperFunction,ComponentPad*%
%ADD11C,1.500000*%
%TD*%
%TA.AperFunction,ComponentPad*%
%ADD12C,2.300000*%
%TD*%
%TA.AperFunction,ComponentPad*%
%ADD13O,1.700000X1.700000*%
%TD*%
%TA.AperFunction,ComponentPad*%
%ADD14R,1.700000X1.700000*%
%TD*%
%TA.AperFunction,ComponentPad*%
%ADD15R,1.600000X1.600000*%
%TD*%
%TA.AperFunction,ComponentPad*%
%ADD16C,1.600000*%
%TD*%
%TA.AperFunction,ComponentPad*%
%ADD17C,4.000000*%
%TD*%
%TA.AperFunction,Conductor*%
%ADD18C,0.200000*%
%TD*%
%TA.AperFunction,Conductor*%
%ADD19C,0.254000*%
%TD*%
%TA.AperFunction,Conductor*%
%ADD20C,0.100000*%
%TD*%
G04 APERTURE END LIST*
D10*
%TO.P,J1,1*%
%TO.N,Net-(J1-Pad1)*%
X123672600Y-87198200D03*
D11*
%TO.P,J1,3*%
%TO.N,Net-(J1-Pad3)*%
X123672600Y-89230200D03*
%TO.P,J1,5*%
%TO.N,N/C*%
X123672600Y-91262200D03*
%TO.P,J1,7*%
X123672600Y-93294200D03*
%TO.P,J1,2*%
%TO.N,Net-(J1-Pad2)*%
X121892600Y-88214200D03*
%TO.P,J1,4*%
%TO.N,Net-(J1-Pad4)*%
X121892600Y-90246200D03*
%TO.P,J1,6*%
%TO.N,Net-(J1-Pad6)*%
X121892600Y-92278200D03*
%TO.P,J1,8*%
%TO.N,N/C*%
X121892600Y-94310200D03*
D12*
%TO.P,J1,SH*%
%TO.N,Net-(J1-PadSH)*%
X122782600Y-98888200D03*
X122782600Y-82628200D03*
%TD*%
D13*
%TO.P,JP4,2*%
%TO.N,Net-(J2-Pad9)*%
X110474760Y-84201000D03*
D14*
%TO.P,JP4,1*%
%TO.N,Net-(J1-Pad6)*%
X113014760Y-84201000D03*
%TD*%
%TO.P,JP8,1*%
%TO.N,Net-(J1-PadSH)*%
X120716040Y-109804200D03*
D13*
%TO.P,JP8,2*%
%TO.N,Net-(J2-Pad0)*%
X118176040Y-109804200D03*
%TD*%
D15*
%TO.P,J2,1*%
%TO.N,Net-(J2-Pad1)*%
X100929440Y-101213920D03*
D16*
%TO.P,J2,2*%
%TO.N,Net-(J2-Pad2)*%
X100929440Y-98443920D03*
%TO.P,J2,3*%
%TO.N,Net-(J2-Pad3)*%
X100929440Y-95673920D03*
%TO.P,J2,4*%
%TO.N,Net-(J2-Pad2)*%
X100929440Y-92903920D03*
%TO.P,J2,5*%
%TO.N,Net-(J2-Pad5)*%
X100929440Y-90133920D03*
%TO.P,J2,6*%
%TO.N,Net-(J2-Pad6)*%
X98089440Y-99828920D03*
%TO.P,J2,7*%
%TO.N,Net-(J2-Pad2)*%
X98089440Y-97058920D03*
%TO.P,J2,8*%
%TO.N,Net-(J2-Pad8)*%
X98089440Y-94288920D03*
%TO.P,J2,9*%
%TO.N,Net-(J2-Pad9)*%
X98089440Y-91518920D03*
D17*
%TO.P,J2,0*%
%TO.N,Net-(J2-Pad0)*%
X100629440Y-83173920D03*
X100629440Y-108173920D03*
%TD*%
D14*
%TO.P,JP3,1*%
%TO.N,Net-(J1-Pad3)*%
X113014760Y-87904320D03*
D13*
%TO.P,JP3,2*%
%TO.N,Net-(J2-Pad5)*%
X110474760Y-87904320D03*
%TD*%
D14*
%TO.P,JP1,1*%
%TO.N,Net-(J1-Pad6)*%
X110434120Y-98917760D03*
D13*
%TO.P,JP1,2*%
%TO.N,Net-(J1-Pad2)*%
X112974120Y-98917760D03*
%TD*%
%TO.P,JP2,2*%
%TO.N,Net-(J1-Pad1)*%
X112975081Y-102572279D03*
D14*
%TO.P,JP2,1*%
%TO.N,Net-(J1-Pad3)*%
X110435081Y-102572279D03*
%TD*%
D13*
%TO.P,JP5,2*%
%TO.N,Net-(J2-Pad2)*%
X118211600Y-102412800D03*
D14*
%TO.P,JP5,1*%
%TO.N,Net-(J1-Pad4)*%
X120751600Y-102412800D03*
%TD*%
D13*
%TO.P,JP6,2*%
%TO.N,Net-(J2-Pad6)*%
X110444280Y-106222800D03*
D14*
%TO.P,JP6,1*%
%TO.N,Net-(J1-Pad2)*%
X112984280Y-106222800D03*
%TD*%
%TO.P,JP7,1*%
%TO.N,Net-(J1-Pad1)*%
X112979200Y-109870240D03*
D13*
%TO.P,JP7,2*%
%TO.N,Net-(J2-Pad1)*%
X110439200Y-109870240D03*
%TD*%
D14*
%TO.P,JP9,1*%
%TO.N,Net-(J1-PadSH)*%
X120746520Y-106075480D03*
D13*
%TO.P,JP9,2*%
%TO.N,Net-(J2-Pad2)*%
X118206520Y-106075480D03*
%TD*%
%TO.P,JP10,2*%
%TO.N,Net-(J2-Pad8)*%
X110453719Y-91594001D03*
D14*
%TO.P,JP10,1*%
%TO.N,Net-(J1-Pad2)*%
X112993719Y-91594001D03*
%TD*%
%TO.P,JP11,1*%
%TO.N,Net-(J1-Pad1)*%
X112993719Y-95255080D03*
D13*
%TO.P,JP11,2*%
%TO.N,Net-(J2-Pad3)*%
X110453719Y-95255080D03*
%TD*%
D18*
%TO.N,Net-(J1-Pad1)*%
X123672600Y-87198200D02*
X123672600Y-87766202D01*
X123672600Y-87766202D02*
X122092603Y-89346199D01*
X122092603Y-89346199D02*
X119988409Y-89346199D01*
X119988409Y-89346199D02*
X114079528Y-95255080D01*
X114079528Y-95255080D02*
X112993719Y-95255080D01*
X112979200Y-109870240D02*
X114895161Y-107954279D01*
X114895161Y-97156522D02*
X112993719Y-95255080D01*
X114895161Y-100652199D02*
X112975081Y-102572279D01*
X114895161Y-97156522D02*
X114895161Y-100652199D01*
X114895161Y-104492359D02*
X112975081Y-102572279D01*
X114895161Y-107954279D02*
X114895161Y-104492359D01*
%TO.N,Net-(J1-Pad3)*%
X124572601Y-88330199D02*
X123672600Y-89230200D01*
X124572601Y-86328199D02*
X124572601Y-88330199D01*
X124542601Y-86298199D02*
X124572601Y-86328199D01*
X114620881Y-86298199D02*
X124542601Y-86298199D01*
X113014760Y-87904320D02*
X114620881Y-86298199D01*
X110435081Y-102572279D02*
X111434121Y-101573239D01*
X111434121Y-101573239D02*
X111434121Y-97715484D01*
X109453718Y-95735081D02*
X109453718Y-87445360D01*
X111434121Y-97715484D02*
X109453718Y-95735081D01*
X112014759Y-86904319D02*
X113014760Y-87904320D01*
X109994759Y-86904319D02*
X112014759Y-86904319D01*
X109453718Y-87445360D02*
X109994759Y-86904319D01*
%TO.N,Net-(J1-Pad2)*%
X114998718Y-93599000D02*
X112993719Y-91594001D01*
X120766840Y-88214200D02*
X115382040Y-93599000D01*
X115382040Y-93599000D02*
X114998718Y-93599000D01*
X121892600Y-88214200D02*
X120766840Y-88214200D01*
X111975080Y-92612640D02*
X112993719Y-91594001D01*
X112019080Y-98917760D02*
X111975080Y-98873760D01*
X112974120Y-98917760D02*
X112019080Y-98917760D01*
X111975080Y-98873760D02*
X111975080Y-92612640D01*
X111975080Y-99916800D02*
X112974120Y-98917760D01*
X111975080Y-103052280D02*
X111975080Y-99916800D01*
X112984280Y-104061480D02*
X111975080Y-103052280D01*
X112984280Y-106222800D02*
X112984280Y-104061480D01*
%TO.N,Net-(J1-Pad6)*%
X121892600Y-91710198D02*
X121892600Y-92278200D01*
X123872603Y-90362199D02*
X123240599Y-90362199D01*
X124587000Y-85938360D02*
X124851160Y-86202520D01*
X124851160Y-89383642D02*
X123872603Y-90362199D01*
X113014760Y-84201000D02*
X114752120Y-85938360D01*
X124851160Y-86202520D02*
X124851160Y-89383642D01*
X123240599Y-90362199D02*
X121892600Y-91710198D01*
X114752120Y-85938360D02*
X124587000Y-85938360D01*
X110434120Y-98917760D02*
X109203707Y-97687347D01*
X109203707Y-86962053D02*
X111964760Y-84201000D01*
X111964760Y-84201000D02*
X113014760Y-84201000D01*
X109203707Y-97687347D02*
X109203707Y-86962053D01*
%TO.N,Net-(J2-Pad2)*%
X118211600Y-106070400D02*
X118206520Y-106075480D01*
X118211600Y-102412800D02*
X118211600Y-106070400D01*
%TO.N,Net-(J2-Pad9)*%
X98089440Y-91518920D02*
X98437600Y-91170760D01*
%TD*%
D19*
%TO.N,Net-(J1-PadSH)*%
X97601547Y-80723399D02*
X97594320Y-80747224D01*
X97591880Y-80772000D01*
X97591880Y-85755480D01*
X97594320Y-85780256D01*
X97601547Y-85804081D01*
X97613283Y-85826037D01*
X97629077Y-85845283D01*
X97648323Y-85861077D01*
X97670279Y-85872813D01*
X97694104Y-85880040D01*
X97718880Y-85882480D01*
X103184960Y-85882480D01*
X103209736Y-85880040D01*
X103233561Y-85872813D01*
X103255517Y-85861077D01*
X103274763Y-85845283D01*
X103290557Y-85826037D01*
X103302293Y-85804081D01*
X103309520Y-85780256D01*
X103311960Y-85755480D01*
X103311960Y-82684861D01*
X120989859Y-82684861D01*
X121035360Y-83033519D01*
X121148006Y-83366600D01*
X121260510Y-83577082D01*
X121540251Y-83690944D01*
X122602995Y-82628200D01*
X121540251Y-81565456D01*
X121260510Y-81679318D01*
X121104639Y-81994496D01*
X121013251Y-82334026D01*
X120989859Y-82684861D01*
X103311960Y-82684861D01*
X103311960Y-81385851D01*
X121719856Y-81385851D01*
X122782600Y-82448595D01*
X123845344Y-81385851D01*
X123731482Y-81106110D01*
X123416304Y-80950239D01*
X123076774Y-80858851D01*
X122725939Y-80835459D01*
X122377281Y-80880960D01*
X122044200Y-80993606D01*
X121833718Y-81106110D01*
X121719856Y-81385851D01*
X103311960Y-81385851D01*
X103311960Y-80772000D01*
X103309520Y-80747224D01*
X103302293Y-80723399D01*
X103300904Y-80720800D01*
X132100721Y-80720800D01*
X132100720Y-111018720D01*
X122088349Y-111018720D01*
X122096577Y-111008694D01*
X122155542Y-110898380D01*
X122191852Y-110778682D01*
X122204112Y-110654200D01*
X122201040Y-110089950D01*
X122042290Y-109931200D01*
X120843040Y-109931200D01*
X120843040Y-109951200D01*
X120589040Y-109951200D01*
X120589040Y-109931200D01*
X120569040Y-109931200D01*
X120569040Y-109677200D01*
X120589040Y-109677200D01*
X120589040Y-108477950D01*
X120843040Y-108477950D01*
X120843040Y-109677200D01*
X122042290Y-109677200D01*
X122201040Y-109518450D01*
X122204112Y-108954200D01*
X122191852Y-108829718D01*
X122155542Y-108710020D01*
X122096577Y-108599706D01*
X122017225Y-108503015D01*
X121920534Y-108423663D01*
X121810220Y-108364698D01*
X121690522Y-108328388D01*
X121566040Y-108316128D01*
X121001790Y-108319200D01*
X120843040Y-108477950D01*
X120589040Y-108477950D01*
X120430290Y-108319200D01*
X119866040Y-108316128D01*
X119741558Y-108328388D01*
X119621860Y-108364698D01*
X119548045Y-108404154D01*
X119536397Y-108382363D01*
X119520603Y-108363117D01*
X119501357Y-108347323D01*
X119479401Y-108335587D01*
X119455576Y-108328360D01*
X119430800Y-108325920D01*
X119406024Y-108328360D01*
X119398044Y-108330780D01*
X118339004Y-108322523D01*
X118322300Y-108319200D01*
X118029780Y-108319200D01*
X118025370Y-108320077D01*
X116820670Y-108310684D01*
X116792780Y-108313561D01*
X116769083Y-108321194D01*
X116747330Y-108333304D01*
X116728357Y-108349424D01*
X116712894Y-108368936D01*
X116701535Y-108391090D01*
X116694715Y-108415034D01*
X116692699Y-108439849D01*
X116711725Y-109553948D01*
X116691040Y-109657940D01*
X116691040Y-109950460D01*
X116721076Y-110101458D01*
X116736740Y-111018720D01*
X114389678Y-111018720D01*
X114418702Y-110964420D01*
X114455012Y-110844722D01*
X114467272Y-110720240D01*
X114467272Y-109421615D01*
X115389358Y-108499529D01*
X115417398Y-108476517D01*
X115440411Y-108448476D01*
X115440414Y-108448473D01*
X115476650Y-108404319D01*
X115509248Y-108364599D01*
X115577498Y-108236912D01*
X115619526Y-108098364D01*
X115630161Y-107990384D01*
X115630161Y-107990383D01*
X115633717Y-107954280D01*
X115630161Y-107918175D01*
X115630161Y-105929220D01*
X116721520Y-105929220D01*
X116721520Y-106221740D01*
X116778588Y-106508638D01*
X116890530Y-106778891D01*
X117053045Y-107022112D01*
X117259888Y-107228955D01*
X117503109Y-107391470D01*
X117773362Y-107503412D01*
X118060260Y-107560480D01*
X118352780Y-107560480D01*
X118639678Y-107503412D01*
X118909931Y-107391470D01*
X119153152Y-107228955D01*
X119285007Y-107097100D01*
X119307018Y-107169660D01*
X119365983Y-107279974D01*
X119445335Y-107376665D01*
X119542026Y-107456017D01*
X119652340Y-107514982D01*
X119772038Y-107551292D01*
X119896520Y-107563552D01*
X120460770Y-107560480D01*
X120619520Y-107401730D01*
X120619520Y-106202480D01*
X120873520Y-106202480D01*
X120873520Y-107401730D01*
X121032270Y-107560480D01*
X121596520Y-107563552D01*
X121721002Y-107551292D01*
X121840700Y-107514982D01*
X121951014Y-107456017D01*
X122047705Y-107376665D01*
X122127057Y-107279974D01*
X122186022Y-107169660D01*
X122222332Y-107049962D01*
X122234592Y-106925480D01*
X122231520Y-106361230D01*
X122072770Y-106202480D01*
X120873520Y-106202480D01*
X120619520Y-106202480D01*
X120599520Y-106202480D01*
X120599520Y-105948480D01*
X120619520Y-105948480D01*
X120619520Y-104749230D01*
X120873520Y-104749230D01*
X120873520Y-105948480D01*
X122072770Y-105948480D01*
X122231520Y-105789730D01*
X122234592Y-105225480D01*
X122222332Y-105100998D01*
X122186022Y-104981300D01*
X122127057Y-104870986D01*
X122047705Y-104774295D01*
X121951014Y-104694943D01*
X121840700Y-104635978D01*
X121721002Y-104599668D01*
X121596520Y-104587408D01*
X121032270Y-104590480D01*
X120873520Y-104749230D01*
X120619520Y-104749230D01*
X120460770Y-104590480D01*
X119896520Y-104587408D01*
X119772038Y-104599668D01*
X119652340Y-104635978D01*
X119542026Y-104694943D01*
X119445335Y-104774295D01*
X119365983Y-104870986D01*
X119307018Y-104981300D01*
X119285007Y-105053860D01*
X119153152Y-104922005D01*
X118946600Y-104783991D01*
X118946600Y-103707683D01*
X119158232Y-103566275D01*
X119290087Y-103434420D01*
X119312098Y-103506980D01*
X119371063Y-103617294D01*
X119450415Y-103713985D01*
X119547106Y-103793337D01*
X119657420Y-103852302D01*
X119777118Y-103888612D01*
X119901600Y-103900872D01*
X121601600Y-103900872D01*
X121726082Y-103888612D01*
X121845780Y-103852302D01*
X121956094Y-103793337D01*
X122052785Y-103713985D01*
X122132137Y-103617294D01*
X122191102Y-103506980D01*
X122227412Y-103387282D01*
X122239672Y-103262800D01*
X122239672Y-101562800D01*
X122227412Y-101438318D01*
X122191102Y-101318620D01*
X122132137Y-101208306D01*
X122052785Y-101111615D01*
X121956094Y-101032263D01*
X121845780Y-100973298D01*
X121726082Y-100936988D01*
X121601600Y-100924728D01*
X119901600Y-100924728D01*
X119777118Y-100936988D01*
X119657420Y-100973298D01*
X119547106Y-101032263D01*
X119450415Y-101111615D01*
X119371063Y-101208306D01*
X119312098Y-101318620D01*
X119290087Y-101391180D01*
X119158232Y-101259325D01*
X118915011Y-101096810D01*
X118644758Y-100984868D01*
X118357860Y-100927800D01*
X118065340Y-100927800D01*
X117778442Y-100984868D01*
X117508189Y-101096810D01*
X117264968Y-101259325D01*
X117058125Y-101466168D01*
X116895610Y-101709389D01*
X116783668Y-101979642D01*
X116726600Y-102266540D01*
X116726600Y-102559060D01*
X116783668Y-102845958D01*
X116895610Y-103116211D01*
X117058125Y-103359432D01*
X117264968Y-103566275D01*
X117476600Y-103707683D01*
X117476601Y-104777202D01*
X117259888Y-104922005D01*
X117053045Y-105128848D01*
X116890530Y-105372069D01*
X116778588Y-105642322D01*
X116721520Y-105929220D01*
X115630161Y-105929220D01*
X115630161Y-104528455D01*
X115633716Y-104492358D01*
X115630161Y-104456261D01*
X115630161Y-104456254D01*
X115619526Y-104348274D01*
X115577498Y-104209726D01*
X115509248Y-104082039D01*
X115417399Y-103970121D01*
X115389354Y-103947105D01*
X114410425Y-102968176D01*
X114460081Y-102718539D01*
X114460081Y-102426019D01*
X114410425Y-102176382D01*
X115389354Y-101197453D01*
X115417399Y-101174437D01*
X115509248Y-101062519D01*
X115577498Y-100934832D01*
X115619526Y-100796284D01*
X115630161Y-100688304D01*
X115630161Y-100688297D01*
X115633716Y-100652200D01*
X115630161Y-100616103D01*
X115630161Y-100130549D01*
X121719856Y-100130549D01*
X121833718Y-100410290D01*
X122148896Y-100566161D01*
X122488426Y-100657549D01*
X122839261Y-100680941D01*
X123187919Y-100635440D01*
X123521000Y-100522794D01*
X123731482Y-100410290D01*
X123845344Y-100130549D01*
X122782600Y-99067805D01*
X121719856Y-100130549D01*
X115630161Y-100130549D01*
X115630161Y-98944861D01*
X120989859Y-98944861D01*
X121035360Y-99293519D01*
X121148006Y-99626600D01*
X121260510Y-99837082D01*
X121540251Y-99950944D01*
X122602995Y-98888200D01*
X121540251Y-97825456D01*
X121260510Y-97939318D01*
X121104639Y-98254496D01*
X121013251Y-98594026D01*
X120989859Y-98944861D01*
X115630161Y-98944861D01*
X115630161Y-97645851D01*
X121719856Y-97645851D01*
X122782600Y-98708595D01*
X122796743Y-98694453D01*
X122976348Y-98874058D01*
X122962205Y-98888200D01*
X124024949Y-99950944D01*
X124304690Y-99837082D01*
X124460561Y-99521904D01*
X124551949Y-99182374D01*
X124575341Y-98831539D01*
X124550655Y-98642377D01*
X124771934Y-98863656D01*
X125142089Y-99110986D01*
X125553382Y-99281349D01*
X125990009Y-99368200D01*
X126435191Y-99368200D01*
X126871818Y-99281349D01*
X127283111Y-99110986D01*
X127653266Y-98863656D01*
X127968056Y-98548866D01*
X128215386Y-98178711D01*
X128385749Y-97767418D01*
X128472600Y-97330791D01*
X128472600Y-96885609D01*
X128385749Y-96448982D01*
X128215386Y-96037689D01*
X127968056Y-95667534D01*
X127653266Y-95352744D01*
X127283111Y-95105414D01*
X126871818Y-94935051D01*
X126435191Y-94848200D01*
X125990009Y-94848200D01*
X125553382Y-94935051D01*
X125142089Y-95105414D01*
X124771934Y-95352744D01*
X124457144Y-95667534D01*
X124209814Y-96037689D01*
X124039451Y-96448982D01*
X123952600Y-96885609D01*
X123952600Y-97330791D01*
X124000198Y-97570082D01*
X123960654Y-97530538D01*
X123845343Y-97645849D01*
X123731482Y-97366110D01*
X123416304Y-97210239D01*
X123076774Y-97118851D01*
X122725939Y-97095459D01*
X122377281Y-97140960D01*
X122044200Y-97253606D01*
X121833718Y-97366110D01*
X121719856Y-97645851D01*
X115630161Y-97645851D01*
X115630161Y-97192626D01*
X115633717Y-97156521D01*
X115619526Y-97012436D01*
X115577498Y-96873890D01*
X115577498Y-96873889D01*
X115509248Y-96746202D01*
X115457389Y-96683012D01*
X115440414Y-96662328D01*
X115440411Y-96662325D01*
X115417398Y-96634284D01*
X115389358Y-96611272D01*
X114576302Y-95798216D01*
X114601766Y-95777318D01*
X114624787Y-95749267D01*
X120292856Y-90081199D01*
X120513287Y-90081199D01*
X120507600Y-90109789D01*
X120507600Y-90382611D01*
X120560825Y-90650189D01*
X120665229Y-90902243D01*
X120816801Y-91129086D01*
X120949915Y-91262200D01*
X120816801Y-91395314D01*
X120665229Y-91622157D01*
X120560825Y-91874211D01*
X120507600Y-92141789D01*
X120507600Y-92414611D01*
X120560825Y-92682189D01*
X120665229Y-92934243D01*
X120816801Y-93161086D01*
X120949915Y-93294200D01*
X120816801Y-93427314D01*
X120665229Y-93654157D01*
X120560825Y-93906211D01*
X120507600Y-94173789D01*
X120507600Y-94446611D01*
X120560825Y-94714189D01*
X120665229Y-94966243D01*
X120816801Y-95193086D01*
X121009714Y-95385999D01*
X121236557Y-95537571D01*
X121488611Y-95641975D01*
X121756189Y-95695200D01*
X122029011Y-95695200D01*
X122296589Y-95641975D01*
X122548643Y-95537571D01*
X122775486Y-95385999D01*
X122968399Y-95193086D01*
X123119971Y-94966243D01*
X123224375Y-94714189D01*
X123243954Y-94615762D01*
X123268611Y-94625975D01*
X123536189Y-94679200D01*
X123809011Y-94679200D01*
X124076589Y-94625975D01*
X124328643Y-94521571D01*
X124555486Y-94369999D01*
X124748399Y-94177086D01*
X124899971Y-93950243D01*
X125004375Y-93698189D01*
X125057600Y-93430611D01*
X125057600Y-93157789D01*
X125004375Y-92890211D01*
X124899971Y-92638157D01*
X124748399Y-92411314D01*
X124615285Y-92278200D01*
X124748399Y-92145086D01*
X124899971Y-91918243D01*
X125004375Y-91666189D01*
X125057600Y-91398611D01*
X125057600Y-91125789D01*
X125004375Y-90858211D01*
X124899971Y-90606157D01*
X124807093Y-90467155D01*
X125345353Y-89928896D01*
X125373398Y-89905880D01*
X125465247Y-89793962D01*
X125507268Y-89715346D01*
X125533497Y-89666276D01*
X125575525Y-89527727D01*
X125589716Y-89383642D01*
X125586160Y-89347537D01*
X125586160Y-86587869D01*
X125990009Y-86668200D01*
X126435191Y-86668200D01*
X126871818Y-86581349D01*
X127283111Y-86410986D01*
X127653266Y-86163656D01*
X127968056Y-85848866D01*
X128215386Y-85478711D01*
X128385749Y-85067418D01*
X128472600Y-84630791D01*
X128472600Y-84185609D01*
X128385749Y-83748982D01*
X128215386Y-83337689D01*
X127968056Y-82967534D01*
X127653266Y-82652744D01*
X127283111Y-82405414D01*
X126871818Y-82235051D01*
X126435191Y-82148200D01*
X125990009Y-82148200D01*
X125553382Y-82235051D01*
X125142089Y-82405414D01*
X124771934Y-82652744D01*
X124555496Y-82869182D01*
X124575341Y-82571539D01*
X124529840Y-82222881D01*
X124417194Y-81889800D01*
X124304690Y-81679318D01*
X124024949Y-81565456D01*
X122962205Y-82628200D01*
X122976348Y-82642343D01*
X122796743Y-82821948D01*
X122782600Y-82807805D01*
X121719856Y-83870549D01*
X121833718Y-84150290D01*
X122148896Y-84306161D01*
X122488426Y-84397549D01*
X122839261Y-84420941D01*
X123187919Y-84375440D01*
X123521000Y-84262794D01*
X123731482Y-84150290D01*
X123845343Y-83870551D01*
X123960654Y-83985862D01*
X124000198Y-83946318D01*
X123952600Y-84185609D01*
X123952600Y-84630791D01*
X124039451Y-85067418D01*
X124095760Y-85203360D01*
X115056567Y-85203360D01*
X114502832Y-84649625D01*
X114502832Y-83351000D01*
X114490572Y-83226518D01*
X114454262Y-83106820D01*
X114395297Y-82996506D01*
X114315945Y-82899815D01*
X114219254Y-82820463D01*
X114108940Y-82761498D01*
X113989242Y-82725188D01*
X113864760Y-82712928D01*
X112164760Y-82712928D01*
X112040278Y-82725188D01*
X111920580Y-82761498D01*
X111810266Y-82820463D01*
X111713575Y-82899815D01*
X111634223Y-82996506D01*
X111575258Y-83106820D01*
X111553247Y-83179380D01*
X111421392Y-83047525D01*
X111178171Y-82885010D01*
X110907918Y-82773068D01*
X110621020Y-82716000D01*
X110328500Y-82716000D01*
X110041602Y-82773068D01*
X109771349Y-82885010D01*
X109528128Y-83047525D01*
X109321285Y-83254368D01*
X109158770Y-83497589D01*
X109046828Y-83767842D01*
X108989760Y-84054740D01*
X108989760Y-84347260D01*
X109046828Y-84634158D01*
X109158770Y-84904411D01*
X109321285Y-85147632D01*
X109528128Y-85354475D01*
X109674222Y-85452092D01*
X108709515Y-86416799D01*
X108681470Y-86439815D01*
X108589621Y-86551733D01*
X108530295Y-86662725D01*
X108521371Y-86679420D01*
X108479342Y-86817968D01*
X108465151Y-86962053D01*
X108468708Y-86998168D01*
X108468707Y-97651242D01*
X108465151Y-97687347D01*
X108479342Y-97831432D01*
X108492091Y-97873460D01*
X108521370Y-97969979D01*
X108589620Y-98097666D01*
X108681469Y-98209584D01*
X108709515Y-98232601D01*
X108946048Y-98469134D01*
X108946048Y-99767760D01*
X108958308Y-99892242D01*
X108994618Y-100011940D01*
X109053583Y-100122254D01*
X109132935Y-100218945D01*
X109229626Y-100298297D01*
X109339940Y-100357262D01*
X109459638Y-100393572D01*
X109584120Y-100405832D01*
X110699121Y-100405832D01*
X110699121Y-101084207D01*
X109585081Y-101084207D01*
X109460599Y-101096467D01*
X109340901Y-101132777D01*
X109230587Y-101191742D01*
X109133896Y-101271094D01*
X109054544Y-101367785D01*
X108995579Y-101478099D01*
X108959269Y-101597797D01*
X108947009Y-101722279D01*
X108947009Y-103422279D01*
X108959269Y-103546761D01*
X108995579Y-103666459D01*
X109054544Y-103776773D01*
X109133896Y-103873464D01*
X109230587Y-103952816D01*
X109340901Y-104011781D01*
X109460599Y-104048091D01*
X109585081Y-104060351D01*
X111285081Y-104060351D01*
X111409563Y-104048091D01*
X111529261Y-104011781D01*
X111639575Y-103952816D01*
X111736266Y-103873464D01*
X111745530Y-103862176D01*
X112249281Y-104365928D01*
X112249281Y-104734728D01*
X112134280Y-104734728D01*
X112009798Y-104746988D01*
X111890100Y-104783298D01*
X111779786Y-104842263D01*
X111683095Y-104921615D01*
X111603743Y-105018306D01*
X111544778Y-105128620D01*
X111522767Y-105201180D01*
X111390912Y-105069325D01*
X111147691Y-104906810D01*
X110877438Y-104794868D01*
X110590540Y-104737800D01*
X110298020Y-104737800D01*
X110011122Y-104794868D01*
X109740869Y-104906810D01*
X109497648Y-105069325D01*
X109290805Y-105276168D01*
X109128290Y-105519389D01*
X109016348Y-105789642D01*
X108959280Y-106076540D01*
X108959280Y-106369060D01*
X109016348Y-106655958D01*
X109128290Y-106926211D01*
X109290805Y-107169432D01*
X109497648Y-107376275D01*
X109740869Y-107538790D01*
X110011122Y-107650732D01*
X110298020Y-107707800D01*
X110590540Y-107707800D01*
X110877438Y-107650732D01*
X111147691Y-107538790D01*
X111390912Y-107376275D01*
X111522767Y-107244420D01*
X111544778Y-107316980D01*
X111603743Y-107427294D01*
X111683095Y-107523985D01*
X111779786Y-107603337D01*
X111890100Y-107662302D01*
X112009798Y-107698612D01*
X112134280Y-107710872D01*
X113834280Y-107710872D01*
X113958762Y-107698612D01*
X114078460Y-107662302D01*
X114160161Y-107618631D01*
X114160161Y-107649832D01*
X113427825Y-108382168D01*
X112129200Y-108382168D01*
X112004718Y-108394428D01*
X111885020Y-108430738D01*
X111774706Y-108489703D01*
X111678015Y-108569055D01*
X111598663Y-108665746D01*
X111539698Y-108776060D01*
X111517687Y-108848620D01*
X111385832Y-108716765D01*
X111142611Y-108554250D01*
X110872358Y-108442308D01*
X110585460Y-108385240D01*
X110292940Y-108385240D01*
X110006042Y-108442308D01*
X109735789Y-108554250D01*
X109492568Y-108716765D01*
X109285725Y-108923608D01*
X109123210Y-109166829D01*
X109011268Y-109437082D01*
X108954200Y-109723980D01*
X108954200Y-110016500D01*
X109011268Y-110303398D01*
X109123210Y-110573651D01*
X109285725Y-110816872D01*
X109487573Y-111018720D01*
X93832280Y-111018720D01*
X93832280Y-107914395D01*
X97994440Y-107914395D01*
X97994440Y-108433445D01*
X98095701Y-108942521D01*
X98191074Y-109172771D01*
X98252390Y-110647675D01*
X98254831Y-110667725D01*
X98262163Y-110691517D01*
X98273995Y-110713422D01*
X98289874Y-110732597D01*
X98309188Y-110748306D01*
X98331197Y-110759946D01*
X98355052Y-110767068D01*
X98379839Y-110769399D01*
X100132414Y-110761678D01*
X100369915Y-110808920D01*
X100888965Y-110808920D01*
X101148980Y-110757200D01*
X102992479Y-110749079D01*
X103016696Y-110746640D01*
X103040521Y-110739413D01*
X103062477Y-110727677D01*
X103081723Y-110711883D01*
X103097517Y-110692637D01*
X103109253Y-110670681D01*
X103116480Y-110646856D01*
X103118920Y-110622080D01*
X103118920Y-109049372D01*
X103163179Y-108942521D01*
X103264440Y-108433445D01*
X103264440Y-107914395D01*
X103163179Y-107405319D01*
X103118920Y-107298468D01*
X103118920Y-105679240D01*
X103116712Y-105655662D01*
X103109715Y-105631770D01*
X103098190Y-105609701D01*
X103082582Y-105590305D01*
X103063489Y-105574327D01*
X103041647Y-105562380D01*
X103017893Y-105554924D01*
X102993141Y-105552246D01*
X98238261Y-105506526D01*
X98222543Y-105507350D01*
X98198207Y-105512603D01*
X98175363Y-105522502D01*
X98154890Y-105536668D01*
X98137573Y-105554555D01*
X98124079Y-105575478D01*
X98114926Y-105598630D01*
X98110466Y-105623124D01*
X98110870Y-105648017D01*
X98116123Y-105672353D01*
X98126022Y-105695197D01*
X98130067Y-105702478D01*
X98065933Y-106101023D01*
X98064430Y-106126475D01*
X98115598Y-107357282D01*
X98095701Y-107405319D01*
X97994440Y-107914395D01*
X93832280Y-107914395D01*
X93832280Y-91377585D01*
X96654440Y-91377585D01*
X96654440Y-91660255D01*
X96709587Y-91937494D01*
X96817760Y-92198647D01*
X96974803Y-92433679D01*
X97174681Y-92633557D01*
X97409713Y-92790600D01*
X97670866Y-92898773D01*
X97696741Y-92903920D01*
X97670866Y-92909067D01*
X97409713Y-93017240D01*
X97174681Y-93174283D01*
X96974803Y-93374161D01*
X96817760Y-93609193D01*
X96709587Y-93870346D01*
X96654440Y-94147585D01*
X96654440Y-94430255D01*
X96709587Y-94707494D01*
X96817760Y-94968647D01*
X96974803Y-95203679D01*
X97174681Y-95403557D01*
X97409713Y-95560600D01*
X97670866Y-95668773D01*
X97696741Y-95673920D01*
X97670866Y-95679067D01*
X97409713Y-95787240D01*
X97174681Y-95944283D01*
X96974803Y-96144161D01*
X96817760Y-96379193D01*
X96709587Y-96640346D01*
X96654440Y-96917585D01*
X96654440Y-97200255D01*
X96709587Y-97477494D01*
X96817760Y-97738647D01*
X96974803Y-97973679D01*
X97174681Y-98173557D01*
X97409713Y-98330600D01*
X97670866Y-98438773D01*
X97696741Y-98443920D01*
X97670866Y-98449067D01*
X97409713Y-98557240D01*
X97174681Y-98714283D01*
X96974803Y-98914161D01*
X96817760Y-99149193D01*
X96709587Y-99410346D01*
X96654440Y-99687585D01*
X96654440Y-99970255D01*
X96709587Y-100247494D01*
X96817760Y-100508647D01*
X96974803Y-100743679D01*
X97174681Y-100943557D01*
X97409713Y-101100600D01*
X97670866Y-101208773D01*
X97948105Y-101263920D01*
X98230775Y-101263920D01*
X98508014Y-101208773D01*
X98769167Y-101100600D01*
X99004199Y-100943557D01*
X99204077Y-100743679D01*
X99361120Y-100508647D01*
X99400357Y-100413920D01*
X99491368Y-100413920D01*
X99491368Y-102013920D01*
X99503628Y-102138402D01*
X99539938Y-102258100D01*
X99598903Y-102368414D01*
X99678255Y-102465105D01*
X99774946Y-102544457D01*
X99885260Y-102603422D01*
X100004958Y-102639732D01*
X100129440Y-102651992D01*
X101729440Y-102651992D01*
X101853922Y-102639732D01*
X101973620Y-102603422D01*
X102083934Y-102544457D01*
X102180625Y-102465105D01*
X102259977Y-102368414D01*
X102318942Y-102258100D01*
X102355252Y-102138402D01*
X102367512Y-102013920D01*
X102367512Y-100413920D01*
X102355252Y-100289438D01*
X102318942Y-100169740D01*
X102259977Y-100059426D01*
X102180625Y-99962735D01*
X102083934Y-99883383D01*
X101973620Y-99824418D01*
X101853922Y-99788108D01*
X101729440Y-99775848D01*
X101463715Y-99775848D01*
X101609167Y-99715600D01*
X101844199Y-99558557D01*
X102044077Y-99358679D01*
X102201120Y-99123647D01*
X102309293Y-98862494D01*
X102364440Y-98585255D01*
X102364440Y-98302585D01*
X102309293Y-98025346D01*
X102201120Y-97764193D01*
X102044077Y-97529161D01*
X101844199Y-97329283D01*
X101609167Y-97172240D01*
X101348014Y-97064067D01*
X101322139Y-97058920D01*
X101348014Y-97053773D01*
X101609167Y-96945600D01*
X101844199Y-96788557D01*
X102044077Y-96588679D01*
X102201120Y-96353647D01*
X102309293Y-96092494D01*
X102364440Y-95815255D01*
X102364440Y-95532585D01*
X102309293Y-95255346D01*
X102201120Y-94994193D01*
X102044077Y-94759161D01*
X101844199Y-94559283D01*
X101609167Y-94402240D01*
X101348014Y-94294067D01*
X101322139Y-94288920D01*
X101348014Y-94283773D01*
X101609167Y-94175600D01*
X101844199Y-94018557D01*
X102044077Y-93818679D01*
X102201120Y-93583647D01*
X102309293Y-93322494D01*
X102364440Y-93045255D01*
X102364440Y-92762585D01*
X102309293Y-92485346D01*
X102201120Y-92224193D01*
X102044077Y-91989161D01*
X101844199Y-91789283D01*
X101609167Y-91632240D01*
X101348014Y-91524067D01*
X101322139Y-91518920D01*
X101348014Y-91513773D01*
X101609167Y-91405600D01*
X101844199Y-91248557D01*
X102044077Y-91048679D01*
X102201120Y-90813647D01*
X102309293Y-90552494D01*
X102364440Y-90275255D01*
X102364440Y-89992585D01*
X102309293Y-89715346D01*
X102201120Y-89454193D01*
X102044077Y-89219161D01*
X101844199Y-89019283D01*
X101609167Y-88862240D01*
X101348014Y-88754067D01*
X101070775Y-88698920D01*
X100788105Y-88698920D01*
X100510866Y-88754067D01*
X100249713Y-88862240D01*
X100014681Y-89019283D01*
X99814803Y-89219161D01*
X99657760Y-89454193D01*
X99549587Y-89715346D01*
X99494440Y-89992585D01*
X99494440Y-90275255D01*
X99549587Y-90552494D01*
X99657760Y-90813647D01*
X99814803Y-91048679D01*
X100014681Y-91248557D01*
X100249713Y-91405600D01*
X100510866Y-91513773D01*
X100536741Y-91518920D01*
X100510866Y-91524067D01*
X100249713Y-91632240D01*
X100014681Y-91789283D01*
X99814803Y-91989161D01*
X99657760Y-92224193D01*
X99549587Y-92485346D01*
X99494440Y-92762585D01*
X99494440Y-93045255D01*
X99549587Y-93322494D01*
X99657760Y-93583647D01*
X99814803Y-93818679D01*
X100014681Y-94018557D01*
X100249713Y-94175600D01*
X100510866Y-94283773D01*
X100536741Y-94288920D01*
X100510866Y-94294067D01*
X100249713Y-94402240D01*
X100014681Y-94559283D01*
X99814803Y-94759161D01*
X99657760Y-94994193D01*
X99549587Y-95255346D01*
X99494440Y-95532585D01*
X99494440Y-95815255D01*
X99549587Y-96092494D01*
X99657760Y-96353647D01*
X99814803Y-96588679D01*
X100014681Y-96788557D01*
X100249713Y-96945600D01*
X100510866Y-97053773D01*
X100536741Y-97058920D01*
X100510866Y-97064067D01*
X100249713Y-97172240D01*
X100014681Y-97329283D01*
X99814803Y-97529161D01*
X99657760Y-97764193D01*
X99549587Y-98025346D01*
X99494440Y-98302585D01*
X99494440Y-98585255D01*
X99549587Y-98862494D01*
X99657760Y-99123647D01*
X99814803Y-99358679D01*
X100014681Y-99558557D01*
X100249713Y-99715600D01*
X100395165Y-99775848D01*
X100129440Y-99775848D01*
X100004958Y-99788108D01*
X99885260Y-99824418D01*
X99774946Y-99883383D01*
X99678255Y-99962735D01*
X99598903Y-100059426D01*
X99539938Y-100169740D01*
X99503628Y-100289438D01*
X99491368Y-100413920D01*
X99400357Y-100413920D01*
X99469293Y-100247494D01*
X99524440Y-99970255D01*
X99524440Y-99687585D01*
X99469293Y-99410346D01*
X99361120Y-99149193D01*
X99204077Y-98914161D01*
X99004199Y-98714283D01*
X98769167Y-98557240D01*
X98508014Y-98449067D01*
X98482139Y-98443920D01*
X98508014Y-98438773D01*
X98769167Y-98330600D01*
X99004199Y-98173557D01*
X99204077Y-97973679D01*
X99361120Y-97738647D01*
X99469293Y-97477494D01*
X99524440Y-97200255D01*
X99524440Y-96917585D01*
X99469293Y-96640346D01*
X99361120Y-96379193D01*
X99204077Y-96144161D01*
X99004199Y-95944283D01*
X98769167Y-95787240D01*
X98508014Y-95679067D01*
X98482139Y-95673920D01*
X98508014Y-95668773D01*
X98769167Y-95560600D01*
X99004199Y-95403557D01*
X99204077Y-95203679D01*
X99361120Y-94968647D01*
X99469293Y-94707494D01*
X99524440Y-94430255D01*
X99524440Y-94147585D01*
X99469293Y-93870346D01*
X99361120Y-93609193D01*
X99204077Y-93374161D01*
X99004199Y-93174283D01*
X98769167Y-93017240D01*
X98508014Y-92909067D01*
X98482139Y-92903920D01*
X98508014Y-92898773D01*
X98769167Y-92790600D01*
X99004199Y-92633557D01*
X99204077Y-92433679D01*
X99361120Y-92198647D01*
X99469293Y-91937494D01*
X99524440Y-91660255D01*
X99524440Y-91377585D01*
X99469293Y-91100346D01*
X99361120Y-90839193D01*
X99204077Y-90604161D01*
X99004199Y-90404283D01*
X98769167Y-90247240D01*
X98508014Y-90139067D01*
X98230775Y-90083920D01*
X97948105Y-90083920D01*
X97670866Y-90139067D01*
X97409713Y-90247240D01*
X97174681Y-90404283D01*
X96974803Y-90604161D01*
X96817760Y-90839193D01*
X96709587Y-91100346D01*
X96654440Y-91377585D01*
X93832280Y-91377585D01*
X93832280Y-80720800D01*
X97602936Y-80720800D01*
X97601547Y-80723399D01*
%TA.AperFunction,Conductor*%
D20*
G36*
X97601547Y-80723399D02*
G01*
X97594320Y-80747224D01*
X97591880Y-80772000D01*
X97591880Y-85755480D01*
X97594320Y-85780256D01*
X97601547Y-85804081D01*
X97613283Y-85826037D01*
X97629077Y-85845283D01*
X97648323Y-85861077D01*
X97670279Y-85872813D01*
X97694104Y-85880040D01*
X97718880Y-85882480D01*
X103184960Y-85882480D01*
X103209736Y-85880040D01*
X103233561Y-85872813D01*
X103255517Y-85861077D01*
X103274763Y-85845283D01*
X103290557Y-85826037D01*
X103302293Y-85804081D01*
X103309520Y-85780256D01*
X103311960Y-85755480D01*
X103311960Y-82684861D01*
X120989859Y-82684861D01*
X121035360Y-83033519D01*
X121148006Y-83366600D01*
X121260510Y-83577082D01*
X121540251Y-83690944D01*
X122602995Y-82628200D01*
X121540251Y-81565456D01*
X121260510Y-81679318D01*
X121104639Y-81994496D01*
X121013251Y-82334026D01*
X120989859Y-82684861D01*
X103311960Y-82684861D01*
X103311960Y-81385851D01*
X121719856Y-81385851D01*
X122782600Y-82448595D01*
X123845344Y-81385851D01*
X123731482Y-81106110D01*
X123416304Y-80950239D01*
X123076774Y-80858851D01*
X122725939Y-80835459D01*
X122377281Y-80880960D01*
X122044200Y-80993606D01*
X121833718Y-81106110D01*
X121719856Y-81385851D01*
X103311960Y-81385851D01*
X103311960Y-80772000D01*
X103309520Y-80747224D01*
X103302293Y-80723399D01*
X103300904Y-80720800D01*
X132100721Y-80720800D01*
X132100720Y-111018720D01*
X122088349Y-111018720D01*
X122096577Y-111008694D01*
X122155542Y-110898380D01*
X122191852Y-110778682D01*
X122204112Y-110654200D01*
X122201040Y-110089950D01*
X122042290Y-109931200D01*
X120843040Y-109931200D01*
X120843040Y-109951200D01*
X120589040Y-109951200D01*
X120589040Y-109931200D01*
X120569040Y-109931200D01*
X120569040Y-109677200D01*
X120589040Y-109677200D01*
X120589040Y-108477950D01*
X120843040Y-108477950D01*
X120843040Y-109677200D01*
X122042290Y-109677200D01*
X122201040Y-109518450D01*
X122204112Y-108954200D01*
X122191852Y-108829718D01*
X122155542Y-108710020D01*
X122096577Y-108599706D01*
X122017225Y-108503015D01*
X121920534Y-108423663D01*
X121810220Y-108364698D01*
X121690522Y-108328388D01*
X121566040Y-108316128D01*
X121001790Y-108319200D01*
X120843040Y-108477950D01*
X120589040Y-108477950D01*
X120430290Y-108319200D01*
X119866040Y-108316128D01*
X119741558Y-108328388D01*
X119621860Y-108364698D01*
X119548045Y-108404154D01*
X119536397Y-108382363D01*
X119520603Y-108363117D01*
X119501357Y-108347323D01*
X119479401Y-108335587D01*
X119455576Y-108328360D01*
X119430800Y-108325920D01*
X119406024Y-108328360D01*
X119398044Y-108330780D01*
X118339004Y-108322523D01*
X118322300Y-108319200D01*
X118029780Y-108319200D01*
X118025370Y-108320077D01*
X116820670Y-108310684D01*
X116792780Y-108313561D01*
X116769083Y-108321194D01*
X116747330Y-108333304D01*
X116728357Y-108349424D01*
X116712894Y-108368936D01*
X116701535Y-108391090D01*
X116694715Y-108415034D01*
X116692699Y-108439849D01*
X116711725Y-109553948D01*
X116691040Y-109657940D01*
X116691040Y-109950460D01*
X116721076Y-110101458D01*
X116736740Y-111018720D01*
X114389678Y-111018720D01*
X114418702Y-110964420D01*
X114455012Y-110844722D01*
X114467272Y-110720240D01*
X114467272Y-109421615D01*
X115389358Y-108499529D01*
X115417398Y-108476517D01*
X115440411Y-108448476D01*
X115440414Y-108448473D01*
X115476650Y-108404319D01*
X115509248Y-108364599D01*
X115577498Y-108236912D01*
X115619526Y-108098364D01*
X115630161Y-107990384D01*
X115630161Y-107990383D01*
X115633717Y-107954280D01*
X115630161Y-107918175D01*
X115630161Y-105929220D01*
X116721520Y-105929220D01*
X116721520Y-106221740D01*
X116778588Y-106508638D01*
X116890530Y-106778891D01*
X117053045Y-107022112D01*
X117259888Y-107228955D01*
X117503109Y-107391470D01*
X117773362Y-107503412D01*
X118060260Y-107560480D01*
X118352780Y-107560480D01*
X118639678Y-107503412D01*
X118909931Y-107391470D01*
X119153152Y-107228955D01*
X119285007Y-107097100D01*
X119307018Y-107169660D01*
X119365983Y-107279974D01*
X119445335Y-107376665D01*
X119542026Y-107456017D01*
X119652340Y-107514982D01*
X119772038Y-107551292D01*
X119896520Y-107563552D01*
X120460770Y-107560480D01*
X120619520Y-107401730D01*
X120619520Y-106202480D01*
X120873520Y-106202480D01*
X120873520Y-107401730D01*
X121032270Y-107560480D01*
X121596520Y-107563552D01*
X121721002Y-107551292D01*
X121840700Y-107514982D01*
X121951014Y-107456017D01*
X122047705Y-107376665D01*
X122127057Y-107279974D01*
X122186022Y-107169660D01*
X122222332Y-107049962D01*
X122234592Y-106925480D01*
X122231520Y-106361230D01*
X122072770Y-106202480D01*
X120873520Y-106202480D01*
X120619520Y-106202480D01*
X120599520Y-106202480D01*
X120599520Y-105948480D01*
X120619520Y-105948480D01*
X120619520Y-104749230D01*
X120873520Y-104749230D01*
X120873520Y-105948480D01*
X122072770Y-105948480D01*
X122231520Y-105789730D01*
X122234592Y-105225480D01*
X122222332Y-105100998D01*
X122186022Y-104981300D01*
X122127057Y-104870986D01*
X122047705Y-104774295D01*
X121951014Y-104694943D01*
X121840700Y-104635978D01*
X121721002Y-104599668D01*
X121596520Y-104587408D01*
X121032270Y-104590480D01*
X120873520Y-104749230D01*
X120619520Y-104749230D01*
X120460770Y-104590480D01*
X119896520Y-104587408D01*
X119772038Y-104599668D01*
X119652340Y-104635978D01*
X119542026Y-104694943D01*
X119445335Y-104774295D01*
X119365983Y-104870986D01*
X119307018Y-104981300D01*
X119285007Y-105053860D01*
X119153152Y-104922005D01*
X118946600Y-104783991D01*
X118946600Y-103707683D01*
X119158232Y-103566275D01*
X119290087Y-103434420D01*
X119312098Y-103506980D01*
X119371063Y-103617294D01*
X119450415Y-103713985D01*
X119547106Y-103793337D01*
X119657420Y-103852302D01*
X119777118Y-103888612D01*
X119901600Y-103900872D01*
X121601600Y-103900872D01*
X121726082Y-103888612D01*
X121845780Y-103852302D01*
X121956094Y-103793337D01*
X122052785Y-103713985D01*
X122132137Y-103617294D01*
X122191102Y-103506980D01*
X122227412Y-103387282D01*
X122239672Y-103262800D01*
X122239672Y-101562800D01*
X122227412Y-101438318D01*
X122191102Y-101318620D01*
X122132137Y-101208306D01*
X122052785Y-101111615D01*
X121956094Y-101032263D01*
X121845780Y-100973298D01*
X121726082Y-100936988D01*
X121601600Y-100924728D01*
X119901600Y-100924728D01*
X119777118Y-100936988D01*
X119657420Y-100973298D01*
X119547106Y-101032263D01*
X119450415Y-101111615D01*
X119371063Y-101208306D01*
X119312098Y-101318620D01*
X119290087Y-101391180D01*
X119158232Y-101259325D01*
X118915011Y-101096810D01*
X118644758Y-100984868D01*
X118357860Y-100927800D01*
X118065340Y-100927800D01*
X117778442Y-100984868D01*
X117508189Y-101096810D01*
X117264968Y-101259325D01*
X117058125Y-101466168D01*
X116895610Y-101709389D01*
X116783668Y-101979642D01*
X116726600Y-102266540D01*
X116726600Y-102559060D01*
X116783668Y-102845958D01*
X116895610Y-103116211D01*
X117058125Y-103359432D01*
X117264968Y-103566275D01*
X117476600Y-103707683D01*
X117476601Y-104777202D01*
X117259888Y-104922005D01*
X117053045Y-105128848D01*
X116890530Y-105372069D01*
X116778588Y-105642322D01*
X116721520Y-105929220D01*
X115630161Y-105929220D01*
X115630161Y-104528455D01*
X115633716Y-104492358D01*
X115630161Y-104456261D01*
X115630161Y-104456254D01*
X115619526Y-104348274D01*
X115577498Y-104209726D01*
X115509248Y-104082039D01*
X115417399Y-103970121D01*
X115389354Y-103947105D01*
X114410425Y-102968176D01*
X114460081Y-102718539D01*
X114460081Y-102426019D01*
X114410425Y-102176382D01*
X115389354Y-101197453D01*
X115417399Y-101174437D01*
X115509248Y-101062519D01*
X115577498Y-100934832D01*
X115619526Y-100796284D01*
X115630161Y-100688304D01*
X115630161Y-100688297D01*
X115633716Y-100652200D01*
X115630161Y-100616103D01*
X115630161Y-100130549D01*
X121719856Y-100130549D01*
X121833718Y-100410290D01*
X122148896Y-100566161D01*
X122488426Y-100657549D01*
X122839261Y-100680941D01*
X123187919Y-100635440D01*
X123521000Y-100522794D01*
X123731482Y-100410290D01*
X123845344Y-100130549D01*
X122782600Y-99067805D01*
X121719856Y-100130549D01*
X115630161Y-100130549D01*
X115630161Y-98944861D01*
X120989859Y-98944861D01*
X121035360Y-99293519D01*
X121148006Y-99626600D01*
X121260510Y-99837082D01*
X121540251Y-99950944D01*
X122602995Y-98888200D01*
X121540251Y-97825456D01*
X121260510Y-97939318D01*
X121104639Y-98254496D01*
X121013251Y-98594026D01*
X120989859Y-98944861D01*
X115630161Y-98944861D01*
X115630161Y-97645851D01*
X121719856Y-97645851D01*
X122782600Y-98708595D01*
X122796743Y-98694453D01*
X122976348Y-98874058D01*
X122962205Y-98888200D01*
X124024949Y-99950944D01*
X124304690Y-99837082D01*
X124460561Y-99521904D01*
X124551949Y-99182374D01*
X124575341Y-98831539D01*
X124550655Y-98642377D01*
X124771934Y-98863656D01*
X125142089Y-99110986D01*
X125553382Y-99281349D01*
X125990009Y-99368200D01*
X126435191Y-99368200D01*
X126871818Y-99281349D01*
X127283111Y-99110986D01*
X127653266Y-98863656D01*
X127968056Y-98548866D01*
X128215386Y-98178711D01*
X128385749Y-97767418D01*
X128472600Y-97330791D01*
X128472600Y-96885609D01*
X128385749Y-96448982D01*
X128215386Y-96037689D01*
X127968056Y-95667534D01*
X127653266Y-95352744D01*
X127283111Y-95105414D01*
X126871818Y-94935051D01*
X126435191Y-94848200D01*
X125990009Y-94848200D01*
X125553382Y-94935051D01*
X125142089Y-95105414D01*
X124771934Y-95352744D01*
X124457144Y-95667534D01*
X124209814Y-96037689D01*
X124039451Y-96448982D01*
X123952600Y-96885609D01*
X123952600Y-97330791D01*
X124000198Y-97570082D01*
X123960654Y-97530538D01*
X123845343Y-97645849D01*
X123731482Y-97366110D01*
X123416304Y-97210239D01*
X123076774Y-97118851D01*
X122725939Y-97095459D01*
X122377281Y-97140960D01*
X122044200Y-97253606D01*
X121833718Y-97366110D01*
X121719856Y-97645851D01*
X115630161Y-97645851D01*
X115630161Y-97192626D01*
X115633717Y-97156521D01*
X115619526Y-97012436D01*
X115577498Y-96873890D01*
X115577498Y-96873889D01*
X115509248Y-96746202D01*
X115457389Y-96683012D01*
X115440414Y-96662328D01*
X115440411Y-96662325D01*
X115417398Y-96634284D01*
X115389358Y-96611272D01*
X114576302Y-95798216D01*
X114601766Y-95777318D01*
X114624787Y-95749267D01*
X120292856Y-90081199D01*
X120513287Y-90081199D01*
X120507600Y-90109789D01*
X120507600Y-90382611D01*
X120560825Y-90650189D01*
X120665229Y-90902243D01*
X120816801Y-91129086D01*
X120949915Y-91262200D01*
X120816801Y-91395314D01*
X120665229Y-91622157D01*
X120560825Y-91874211D01*
X120507600Y-92141789D01*
X120507600Y-92414611D01*
X120560825Y-92682189D01*
X120665229Y-92934243D01*
X120816801Y-93161086D01*
X120949915Y-93294200D01*
X120816801Y-93427314D01*
X120665229Y-93654157D01*
X120560825Y-93906211D01*
X120507600Y-94173789D01*
X120507600Y-94446611D01*
X120560825Y-94714189D01*
X120665229Y-94966243D01*
X120816801Y-95193086D01*
X121009714Y-95385999D01*
X121236557Y-95537571D01*
X121488611Y-95641975D01*
X121756189Y-95695200D01*
X122029011Y-95695200D01*
X122296589Y-95641975D01*
X122548643Y-95537571D01*
X122775486Y-95385999D01*
X122968399Y-95193086D01*
X123119971Y-94966243D01*
X123224375Y-94714189D01*
X123243954Y-94615762D01*
X123268611Y-94625975D01*
X123536189Y-94679200D01*
X123809011Y-94679200D01*
X124076589Y-94625975D01*
X124328643Y-94521571D01*
X124555486Y-94369999D01*
X124748399Y-94177086D01*
X124899971Y-93950243D01*
X125004375Y-93698189D01*
X125057600Y-93430611D01*
X125057600Y-93157789D01*
X125004375Y-92890211D01*
X124899971Y-92638157D01*
X124748399Y-92411314D01*
X124615285Y-92278200D01*
X124748399Y-92145086D01*
X124899971Y-91918243D01*
X125004375Y-91666189D01*
X125057600Y-91398611D01*
X125057600Y-91125789D01*
X125004375Y-90858211D01*
X124899971Y-90606157D01*
X124807093Y-90467155D01*
X125345353Y-89928896D01*
X125373398Y-89905880D01*
X125465247Y-89793962D01*
X125507268Y-89715346D01*
X125533497Y-89666276D01*
X125575525Y-89527727D01*
X125589716Y-89383642D01*
X125586160Y-89347537D01*
X125586160Y-86587869D01*
X125990009Y-86668200D01*
X126435191Y-86668200D01*
X126871818Y-86581349D01*
X127283111Y-86410986D01*
X127653266Y-86163656D01*
X127968056Y-85848866D01*
X128215386Y-85478711D01*
X128385749Y-85067418D01*
X128472600Y-84630791D01*
X128472600Y-84185609D01*
X128385749Y-83748982D01*
X128215386Y-83337689D01*
X127968056Y-82967534D01*
X127653266Y-82652744D01*
X127283111Y-82405414D01*
X126871818Y-82235051D01*
X126435191Y-82148200D01*
X125990009Y-82148200D01*
X125553382Y-82235051D01*
X125142089Y-82405414D01*
X124771934Y-82652744D01*
X124555496Y-82869182D01*
X124575341Y-82571539D01*
X124529840Y-82222881D01*
X124417194Y-81889800D01*
X124304690Y-81679318D01*
X124024949Y-81565456D01*
X122962205Y-82628200D01*
X122976348Y-82642343D01*
X122796743Y-82821948D01*
X122782600Y-82807805D01*
X121719856Y-83870549D01*
X121833718Y-84150290D01*
X122148896Y-84306161D01*
X122488426Y-84397549D01*
X122839261Y-84420941D01*
X123187919Y-84375440D01*
X123521000Y-84262794D01*
X123731482Y-84150290D01*
X123845343Y-83870551D01*
X123960654Y-83985862D01*
X124000198Y-83946318D01*
X123952600Y-84185609D01*
X123952600Y-84630791D01*
X124039451Y-85067418D01*
X124095760Y-85203360D01*
X115056567Y-85203360D01*
X114502832Y-84649625D01*
X114502832Y-83351000D01*
X114490572Y-83226518D01*
X114454262Y-83106820D01*
X114395297Y-82996506D01*
X114315945Y-82899815D01*
X114219254Y-82820463D01*
X114108940Y-82761498D01*
X113989242Y-82725188D01*
X113864760Y-82712928D01*
X112164760Y-82712928D01*
X112040278Y-82725188D01*
X111920580Y-82761498D01*
X111810266Y-82820463D01*
X111713575Y-82899815D01*
X111634223Y-82996506D01*
X111575258Y-83106820D01*
X111553247Y-83179380D01*
X111421392Y-83047525D01*
X111178171Y-82885010D01*
X110907918Y-82773068D01*
X110621020Y-82716000D01*
X110328500Y-82716000D01*
X110041602Y-82773068D01*
X109771349Y-82885010D01*
X109528128Y-83047525D01*
X109321285Y-83254368D01*
X109158770Y-83497589D01*
X109046828Y-83767842D01*
X108989760Y-84054740D01*
X108989760Y-84347260D01*
X109046828Y-84634158D01*
X109158770Y-84904411D01*
X109321285Y-85147632D01*
X109528128Y-85354475D01*
X109674222Y-85452092D01*
X108709515Y-86416799D01*
X108681470Y-86439815D01*
X108589621Y-86551733D01*
X108530295Y-86662725D01*
X108521371Y-86679420D01*
X108479342Y-86817968D01*
X108465151Y-86962053D01*
X108468708Y-86998168D01*
X108468707Y-97651242D01*
X108465151Y-97687347D01*
X108479342Y-97831432D01*
X108492091Y-97873460D01*
X108521370Y-97969979D01*
X108589620Y-98097666D01*
X108681469Y-98209584D01*
X108709515Y-98232601D01*
X108946048Y-98469134D01*
X108946048Y-99767760D01*
X108958308Y-99892242D01*
X108994618Y-100011940D01*
X109053583Y-100122254D01*
X109132935Y-100218945D01*
X109229626Y-100298297D01*
X109339940Y-100357262D01*
X109459638Y-100393572D01*
X109584120Y-100405832D01*
X110699121Y-100405832D01*
X110699121Y-101084207D01*
X109585081Y-101084207D01*
X109460599Y-101096467D01*
X109340901Y-101132777D01*
X109230587Y-101191742D01*
X109133896Y-101271094D01*
X109054544Y-101367785D01*
X108995579Y-101478099D01*
X108959269Y-101597797D01*
X108947009Y-101722279D01*
X108947009Y-103422279D01*
X108959269Y-103546761D01*
X108995579Y-103666459D01*
X109054544Y-103776773D01*
X109133896Y-103873464D01*
X109230587Y-103952816D01*
X109340901Y-104011781D01*
X109460599Y-104048091D01*
X109585081Y-104060351D01*
X111285081Y-104060351D01*
X111409563Y-104048091D01*
X111529261Y-104011781D01*
X111639575Y-103952816D01*
X111736266Y-103873464D01*
X111745530Y-103862176D01*
X112249281Y-104365928D01*
X112249281Y-104734728D01*
X112134280Y-104734728D01*
X112009798Y-104746988D01*
X111890100Y-104783298D01*
X111779786Y-104842263D01*
X111683095Y-104921615D01*
X111603743Y-105018306D01*
X111544778Y-105128620D01*
X111522767Y-105201180D01*
X111390912Y-105069325D01*
X111147691Y-104906810D01*
X110877438Y-104794868D01*
X110590540Y-104737800D01*
X110298020Y-104737800D01*
X110011122Y-104794868D01*
X109740869Y-104906810D01*
X109497648Y-105069325D01*
X109290805Y-105276168D01*
X109128290Y-105519389D01*
X109016348Y-105789642D01*
X108959280Y-106076540D01*
X108959280Y-106369060D01*
X109016348Y-106655958D01*
X109128290Y-106926211D01*
X109290805Y-107169432D01*
X109497648Y-107376275D01*
X109740869Y-107538790D01*
X110011122Y-107650732D01*
X110298020Y-107707800D01*
X110590540Y-107707800D01*
X110877438Y-107650732D01*
X111147691Y-107538790D01*
X111390912Y-107376275D01*
X111522767Y-107244420D01*
X111544778Y-107316980D01*
X111603743Y-107427294D01*
X111683095Y-107523985D01*
X111779786Y-107603337D01*
X111890100Y-107662302D01*
X112009798Y-107698612D01*
X112134280Y-107710872D01*
X113834280Y-107710872D01*
X113958762Y-107698612D01*
X114078460Y-107662302D01*
X114160161Y-107618631D01*
X114160161Y-107649832D01*
X113427825Y-108382168D01*
X112129200Y-108382168D01*
X112004718Y-108394428D01*
X111885020Y-108430738D01*
X111774706Y-108489703D01*
X111678015Y-108569055D01*
X111598663Y-108665746D01*
X111539698Y-108776060D01*
X111517687Y-108848620D01*
X111385832Y-108716765D01*
X111142611Y-108554250D01*
X110872358Y-108442308D01*
X110585460Y-108385240D01*
X110292940Y-108385240D01*
X110006042Y-108442308D01*
X109735789Y-108554250D01*
X109492568Y-108716765D01*
X109285725Y-108923608D01*
X109123210Y-109166829D01*
X109011268Y-109437082D01*
X108954200Y-109723980D01*
X108954200Y-110016500D01*
X109011268Y-110303398D01*
X109123210Y-110573651D01*
X109285725Y-110816872D01*
X109487573Y-111018720D01*
X93832280Y-111018720D01*
X93832280Y-107914395D01*
X97994440Y-107914395D01*
X97994440Y-108433445D01*
X98095701Y-108942521D01*
X98191074Y-109172771D01*
X98252390Y-110647675D01*
X98254831Y-110667725D01*
X98262163Y-110691517D01*
X98273995Y-110713422D01*
X98289874Y-110732597D01*
X98309188Y-110748306D01*
X98331197Y-110759946D01*
X98355052Y-110767068D01*
X98379839Y-110769399D01*
X100132414Y-110761678D01*
X100369915Y-110808920D01*
X100888965Y-110808920D01*
X101148980Y-110757200D01*
X102992479Y-110749079D01*
X103016696Y-110746640D01*
X103040521Y-110739413D01*
X103062477Y-110727677D01*
X103081723Y-110711883D01*
X103097517Y-110692637D01*
X103109253Y-110670681D01*
X103116480Y-110646856D01*
X103118920Y-110622080D01*
X103118920Y-109049372D01*
X103163179Y-108942521D01*
X103264440Y-108433445D01*
X103264440Y-107914395D01*
X103163179Y-107405319D01*
X103118920Y-107298468D01*
X103118920Y-105679240D01*
X103116712Y-105655662D01*
X103109715Y-105631770D01*
X103098190Y-105609701D01*
X103082582Y-105590305D01*
X103063489Y-105574327D01*
X103041647Y-105562380D01*
X103017893Y-105554924D01*
X102993141Y-105552246D01*
X98238261Y-105506526D01*
X98222543Y-105507350D01*
X98198207Y-105512603D01*
X98175363Y-105522502D01*
X98154890Y-105536668D01*
X98137573Y-105554555D01*
X98124079Y-105575478D01*
X98114926Y-105598630D01*
X98110466Y-105623124D01*
X98110870Y-105648017D01*
X98116123Y-105672353D01*
X98126022Y-105695197D01*
X98130067Y-105702478D01*
X98065933Y-106101023D01*
X98064430Y-106126475D01*
X98115598Y-107357282D01*
X98095701Y-107405319D01*
X97994440Y-107914395D01*
X93832280Y-107914395D01*
X93832280Y-91377585D01*
X96654440Y-91377585D01*
X96654440Y-91660255D01*
X96709587Y-91937494D01*
X96817760Y-92198647D01*
X96974803Y-92433679D01*
X97174681Y-92633557D01*
X97409713Y-92790600D01*
X97670866Y-92898773D01*
X97696741Y-92903920D01*
X97670866Y-92909067D01*
X97409713Y-93017240D01*
X97174681Y-93174283D01*
X96974803Y-93374161D01*
X96817760Y-93609193D01*
X96709587Y-93870346D01*
X96654440Y-94147585D01*
X96654440Y-94430255D01*
X96709587Y-94707494D01*
X96817760Y-94968647D01*
X96974803Y-95203679D01*
X97174681Y-95403557D01*
X97409713Y-95560600D01*
X97670866Y-95668773D01*
X97696741Y-95673920D01*
X97670866Y-95679067D01*
X97409713Y-95787240D01*
X97174681Y-95944283D01*
X96974803Y-96144161D01*
X96817760Y-96379193D01*
X96709587Y-96640346D01*
X96654440Y-96917585D01*
X96654440Y-97200255D01*
X96709587Y-97477494D01*
X96817760Y-97738647D01*
X96974803Y-97973679D01*
X97174681Y-98173557D01*
X97409713Y-98330600D01*
X97670866Y-98438773D01*
X97696741Y-98443920D01*
X97670866Y-98449067D01*
X97409713Y-98557240D01*
X97174681Y-98714283D01*
X96974803Y-98914161D01*
X96817760Y-99149193D01*
X96709587Y-99410346D01*
X96654440Y-99687585D01*
X96654440Y-99970255D01*
X96709587Y-100247494D01*
X96817760Y-100508647D01*
X96974803Y-100743679D01*
X97174681Y-100943557D01*
X97409713Y-101100600D01*
X97670866Y-101208773D01*
X97948105Y-101263920D01*
X98230775Y-101263920D01*
X98508014Y-101208773D01*
X98769167Y-101100600D01*
X99004199Y-100943557D01*
X99204077Y-100743679D01*
X99361120Y-100508647D01*
X99400357Y-100413920D01*
X99491368Y-100413920D01*
X99491368Y-102013920D01*
X99503628Y-102138402D01*
X99539938Y-102258100D01*
X99598903Y-102368414D01*
X99678255Y-102465105D01*
X99774946Y-102544457D01*
X99885260Y-102603422D01*
X100004958Y-102639732D01*
X100129440Y-102651992D01*
X101729440Y-102651992D01*
X101853922Y-102639732D01*
X101973620Y-102603422D01*
X102083934Y-102544457D01*
X102180625Y-102465105D01*
X102259977Y-102368414D01*
X102318942Y-102258100D01*
X102355252Y-102138402D01*
X102367512Y-102013920D01*
X102367512Y-100413920D01*
X102355252Y-100289438D01*
X102318942Y-100169740D01*
X102259977Y-100059426D01*
X102180625Y-99962735D01*
X102083934Y-99883383D01*
X101973620Y-99824418D01*
X101853922Y-99788108D01*
X101729440Y-99775848D01*
X101463715Y-99775848D01*
X101609167Y-99715600D01*
X101844199Y-99558557D01*
X102044077Y-99358679D01*
X102201120Y-99123647D01*
X102309293Y-98862494D01*
X102364440Y-98585255D01*
X102364440Y-98302585D01*
X102309293Y-98025346D01*
X102201120Y-97764193D01*
X102044077Y-97529161D01*
X101844199Y-97329283D01*
X101609167Y-97172240D01*
X101348014Y-97064067D01*
X101322139Y-97058920D01*
X101348014Y-97053773D01*
X101609167Y-96945600D01*
X101844199Y-96788557D01*
X102044077Y-96588679D01*
X102201120Y-96353647D01*
X102309293Y-96092494D01*
X102364440Y-95815255D01*
X102364440Y-95532585D01*
X102309293Y-95255346D01*
X102201120Y-94994193D01*
X102044077Y-94759161D01*
X101844199Y-94559283D01*
X101609167Y-94402240D01*
X101348014Y-94294067D01*
X101322139Y-94288920D01*
X101348014Y-94283773D01*
X101609167Y-94175600D01*
X101844199Y-94018557D01*
X102044077Y-93818679D01*
X102201120Y-93583647D01*
X102309293Y-93322494D01*
X102364440Y-93045255D01*
X102364440Y-92762585D01*
X102309293Y-92485346D01*
X102201120Y-92224193D01*
X102044077Y-91989161D01*
X101844199Y-91789283D01*
X101609167Y-91632240D01*
X101348014Y-91524067D01*
X101322139Y-91518920D01*
X101348014Y-91513773D01*
X101609167Y-91405600D01*
X101844199Y-91248557D01*
X102044077Y-91048679D01*
X102201120Y-90813647D01*
X102309293Y-90552494D01*
X102364440Y-90275255D01*
X102364440Y-89992585D01*
X102309293Y-89715346D01*
X102201120Y-89454193D01*
X102044077Y-89219161D01*
X101844199Y-89019283D01*
X101609167Y-88862240D01*
X101348014Y-88754067D01*
X101070775Y-88698920D01*
X100788105Y-88698920D01*
X100510866Y-88754067D01*
X100249713Y-88862240D01*
X100014681Y-89019283D01*
X99814803Y-89219161D01*
X99657760Y-89454193D01*
X99549587Y-89715346D01*
X99494440Y-89992585D01*
X99494440Y-90275255D01*
X99549587Y-90552494D01*
X99657760Y-90813647D01*
X99814803Y-91048679D01*
X100014681Y-91248557D01*
X100249713Y-91405600D01*
X100510866Y-91513773D01*
X100536741Y-91518920D01*
X100510866Y-91524067D01*
X100249713Y-91632240D01*
X100014681Y-91789283D01*
X99814803Y-91989161D01*
X99657760Y-92224193D01*
X99549587Y-92485346D01*
X99494440Y-92762585D01*
X99494440Y-93045255D01*
X99549587Y-93322494D01*
X99657760Y-93583647D01*
X99814803Y-93818679D01*
X100014681Y-94018557D01*
X100249713Y-94175600D01*
X100510866Y-94283773D01*
X100536741Y-94288920D01*
X100510866Y-94294067D01*
X100249713Y-94402240D01*
X100014681Y-94559283D01*
X99814803Y-94759161D01*
X99657760Y-94994193D01*
X99549587Y-95255346D01*
X99494440Y-95532585D01*
X99494440Y-95815255D01*
X99549587Y-96092494D01*
X99657760Y-96353647D01*
X99814803Y-96588679D01*
X100014681Y-96788557D01*
X100249713Y-96945600D01*
X100510866Y-97053773D01*
X100536741Y-97058920D01*
X100510866Y-97064067D01*
X100249713Y-97172240D01*
X100014681Y-97329283D01*
X99814803Y-97529161D01*
X99657760Y-97764193D01*
X99549587Y-98025346D01*
X99494440Y-98302585D01*
X99494440Y-98585255D01*
X99549587Y-98862494D01*
X99657760Y-99123647D01*
X99814803Y-99358679D01*
X100014681Y-99558557D01*
X100249713Y-99715600D01*
X100395165Y-99775848D01*
X100129440Y-99775848D01*
X100004958Y-99788108D01*
X99885260Y-99824418D01*
X99774946Y-99883383D01*
X99678255Y-99962735D01*
X99598903Y-100059426D01*
X99539938Y-100169740D01*
X99503628Y-100289438D01*
X99491368Y-100413920D01*
X99400357Y-100413920D01*
X99469293Y-100247494D01*
X99524440Y-99970255D01*
X99524440Y-99687585D01*
X99469293Y-99410346D01*
X99361120Y-99149193D01*
X99204077Y-98914161D01*
X99004199Y-98714283D01*
X98769167Y-98557240D01*
X98508014Y-98449067D01*
X98482139Y-98443920D01*
X98508014Y-98438773D01*
X98769167Y-98330600D01*
X99004199Y-98173557D01*
X99204077Y-97973679D01*
X99361120Y-97738647D01*
X99469293Y-97477494D01*
X99524440Y-97200255D01*
X99524440Y-96917585D01*
X99469293Y-96640346D01*
X99361120Y-96379193D01*
X99204077Y-96144161D01*
X99004199Y-95944283D01*
X98769167Y-95787240D01*
X98508014Y-95679067D01*
X98482139Y-95673920D01*
X98508014Y-95668773D01*
X98769167Y-95560600D01*
X99004199Y-95403557D01*
X99204077Y-95203679D01*
X99361120Y-94968647D01*
X99469293Y-94707494D01*
X99524440Y-94430255D01*
X99524440Y-94147585D01*
X99469293Y-93870346D01*
X99361120Y-93609193D01*
X99204077Y-93374161D01*
X99004199Y-93174283D01*
X98769167Y-93017240D01*
X98508014Y-92909067D01*
X98482139Y-92903920D01*
X98508014Y-92898773D01*
X98769167Y-92790600D01*
X99004199Y-92633557D01*
X99204077Y-92433679D01*
X99361120Y-92198647D01*
X99469293Y-91937494D01*
X99524440Y-91660255D01*
X99524440Y-91377585D01*
X99469293Y-91100346D01*
X99361120Y-90839193D01*
X99204077Y-90604161D01*
X99004199Y-90404283D01*
X98769167Y-90247240D01*
X98508014Y-90139067D01*
X98230775Y-90083920D01*
X97948105Y-90083920D01*
X97670866Y-90139067D01*
X97409713Y-90247240D01*
X97174681Y-90404283D01*
X96974803Y-90604161D01*
X96817760Y-90839193D01*
X96709587Y-91100346D01*
X96654440Y-91377585D01*
X93832280Y-91377585D01*
X93832280Y-80720800D01*
X97602936Y-80720800D01*
X97601547Y-80723399D01*
G37*
%TD.AperFunction*%
%TD*%
M02*
