%TF.GenerationSoftware,KiCad,Pcbnew,(5.1.10-1-10_14)*%
%TF.CreationDate,2021-06-16T16:32:42-07:00*%
%TF.ProjectId,XDS-Analog-to-StudioHub,5844532d-416e-4616-9c6f-672d746f2d53,rev?*%
%TF.SameCoordinates,Original*%
%TF.FileFunction,Copper,L2,Bot*%
%TF.FilePolarity,Positive*%
%FSLAX46Y46*%
G04 Gerber Fmt 4.6, Leading zero omitted, Abs format (unit mm)*
G04 Created by KiCad (PCBNEW (5.1.10-1-10_14)) date 2021-06-16 16:32:42*
%MOMM*%
%LPD*%
G01*
G04 APERTURE LIST*
%TA.AperFunction,ComponentPad*%
%ADD10R,1.500000X1.500000*%
%TD*%
%TA.AperFunction,ComponentPad*%
%ADD11C,1.500000*%
%TD*%
%TA.AperFunction,ComponentPad*%
%ADD12C,2.300000*%
%TD*%
%TA.AperFunction,ComponentPad*%
%ADD13O,1.700000X1.700000*%
%TD*%
%TA.AperFunction,ComponentPad*%
%ADD14R,1.700000X1.700000*%
%TD*%
%TA.AperFunction,ComponentPad*%
%ADD15R,1.600000X1.600000*%
%TD*%
%TA.AperFunction,ComponentPad*%
%ADD16C,1.600000*%
%TD*%
%TA.AperFunction,ComponentPad*%
%ADD17C,4.000000*%
%TD*%
%TA.AperFunction,Conductor*%
%ADD18C,0.200000*%
%TD*%
%TA.AperFunction,Conductor*%
%ADD19C,0.254000*%
%TD*%
%TA.AperFunction,Conductor*%
%ADD20C,0.100000*%
%TD*%
G04 APERTURE END LIST*
D10*
%TO.P,J1,1*%
%TO.N,Net-(J1-Pad1)*%
X123672600Y-87198200D03*
D11*
%TO.P,J1,3*%
%TO.N,Net-(J1-Pad3)*%
X123672600Y-89230200D03*
%TO.P,J1,5*%
%TO.N,N/C*%
X123672600Y-91262200D03*
%TO.P,J1,7*%
X123672600Y-93294200D03*
%TO.P,J1,2*%
%TO.N,Net-(J1-Pad2)*%
X121892600Y-88214200D03*
%TO.P,J1,4*%
%TO.N,Net-(J1-Pad4)*%
X121892600Y-90246200D03*
%TO.P,J1,6*%
%TO.N,Net-(J1-Pad6)*%
X121892600Y-92278200D03*
%TO.P,J1,8*%
%TO.N,N/C*%
X121892600Y-94310200D03*
D12*
%TO.P,J1,SH*%
%TO.N,Net-(J1-PadSH)*%
X122782600Y-98888200D03*
X122782600Y-82628200D03*
%TD*%
D13*
%TO.P,JP4,2*%
%TO.N,Net-(J2-Pad9)*%
X110474760Y-84201000D03*
D14*
%TO.P,JP4,1*%
%TO.N,Net-(J1-Pad6)*%
X113014760Y-84201000D03*
%TD*%
%TO.P,JP8,1*%
%TO.N,Net-(J1-PadSH)*%
X120716040Y-109804200D03*
D13*
%TO.P,JP8,2*%
%TO.N,Net-(J2-Pad0)*%
X118176040Y-109804200D03*
%TD*%
D15*
%TO.P,J2,1*%
%TO.N,Net-(J2-Pad1)*%
X100929440Y-101213920D03*
D16*
%TO.P,J2,2*%
%TO.N,Net-(J2-Pad2)*%
X100929440Y-98443920D03*
%TO.P,J2,3*%
%TO.N,Net-(J2-Pad3)*%
X100929440Y-95673920D03*
%TO.P,J2,4*%
%TO.N,Net-(J2-Pad2)*%
X100929440Y-92903920D03*
%TO.P,J2,5*%
%TO.N,Net-(J2-Pad5)*%
X100929440Y-90133920D03*
%TO.P,J2,6*%
%TO.N,Net-(J2-Pad6)*%
X98089440Y-99828920D03*
%TO.P,J2,7*%
%TO.N,Net-(J2-Pad2)*%
X98089440Y-97058920D03*
%TO.P,J2,8*%
%TO.N,Net-(J2-Pad8)*%
X98089440Y-94288920D03*
%TO.P,J2,9*%
%TO.N,Net-(J2-Pad9)*%
X98089440Y-91518920D03*
D17*
%TO.P,J2,0*%
%TO.N,Net-(J2-Pad0)*%
X100629440Y-83173920D03*
X100629440Y-108173920D03*
%TD*%
D14*
%TO.P,JP3,1*%
%TO.N,Net-(J1-Pad3)*%
X113014760Y-87904320D03*
D13*
%TO.P,JP3,2*%
%TO.N,Net-(J2-Pad5)*%
X110474760Y-87904320D03*
%TD*%
D14*
%TO.P,JP1,1*%
%TO.N,Net-(J1-Pad6)*%
X110434120Y-98917760D03*
D13*
%TO.P,JP1,2*%
%TO.N,Net-(J1-Pad2)*%
X112974120Y-98917760D03*
%TD*%
%TO.P,JP2,2*%
%TO.N,Net-(J1-Pad1)*%
X112975081Y-102572279D03*
D14*
%TO.P,JP2,1*%
%TO.N,Net-(J1-Pad3)*%
X110435081Y-102572279D03*
%TD*%
D13*
%TO.P,JP5,2*%
%TO.N,Net-(J2-Pad2)*%
X118211600Y-102412800D03*
D14*
%TO.P,JP5,1*%
%TO.N,Net-(J1-Pad4)*%
X120751600Y-102412800D03*
%TD*%
D13*
%TO.P,JP6,2*%
%TO.N,Net-(J2-Pad6)*%
X110444280Y-106222800D03*
D14*
%TO.P,JP6,1*%
%TO.N,Net-(J1-Pad2)*%
X112984280Y-106222800D03*
%TD*%
%TO.P,JP7,1*%
%TO.N,Net-(J1-Pad1)*%
X112979200Y-109870240D03*
D13*
%TO.P,JP7,2*%
%TO.N,Net-(J2-Pad1)*%
X110439200Y-109870240D03*
%TD*%
D14*
%TO.P,JP9,1*%
%TO.N,Net-(J1-PadSH)*%
X120746520Y-106075480D03*
D13*
%TO.P,JP9,2*%
%TO.N,Net-(J2-Pad2)*%
X118206520Y-106075480D03*
%TD*%
%TO.P,JP10,2*%
%TO.N,Net-(J2-Pad8)*%
X110453719Y-91594001D03*
D14*
%TO.P,JP10,1*%
%TO.N,Net-(J1-Pad2)*%
X112993719Y-91594001D03*
%TD*%
%TO.P,JP11,1*%
%TO.N,Net-(J1-Pad1)*%
X112993719Y-95255080D03*
D13*
%TO.P,JP11,2*%
%TO.N,Net-(J2-Pad3)*%
X110453719Y-95255080D03*
%TD*%
D18*
%TO.N,Net-(J1-Pad3)*%
X123556601Y-89114201D02*
X123672600Y-89230200D01*
%TO.N,Net-(J1-Pad4)*%
X120992599Y-102171801D02*
X120751600Y-102412800D01*
X120751600Y-91387200D02*
X121892600Y-90246200D01*
X120751600Y-102412800D02*
X120751600Y-91387200D01*
%TO.N,Net-(J1-Pad6)*%
X121892600Y-92278200D02*
X121892600Y-91578202D01*
%TO.N,Net-(J2-Pad1)*%
X110439200Y-108696760D02*
X102956360Y-101213920D01*
X102956360Y-101213920D02*
X100929440Y-101213920D01*
X110439200Y-109870240D02*
X110439200Y-108696760D01*
%TO.N,Net-(J2-Pad2)*%
X106057800Y-103572280D02*
X100929440Y-98443920D01*
X118211600Y-102412800D02*
X117052120Y-103572280D01*
X117052120Y-103572280D02*
X106057800Y-103572280D01*
X99474440Y-98443920D02*
X98089440Y-97058920D01*
X100929440Y-98443920D02*
X99474440Y-98443920D01*
X100929440Y-92903920D02*
X98089440Y-95743920D01*
X98089440Y-95743920D02*
X98089440Y-97058920D01*
%TO.N,Net-(J2-Pad3)*%
X100929440Y-94300040D02*
X100929440Y-95673920D01*
X103398320Y-91831160D02*
X100929440Y-94300040D01*
X109153960Y-91831160D02*
X103398320Y-91831160D01*
X109275880Y-91953080D02*
X109153960Y-91831160D01*
X109275880Y-94077241D02*
X109275880Y-91953080D01*
X110453719Y-95255080D02*
X109275880Y-94077241D01*
%TO.N,Net-(J2-Pad5)*%
X102656120Y-88407240D02*
X100929440Y-90133920D01*
X106654600Y-88407240D02*
X102656120Y-88407240D01*
X107157520Y-87904320D02*
X106654600Y-88407240D01*
X110474760Y-87904320D02*
X107157520Y-87904320D01*
%TO.N,Net-(J2-Pad6)*%
X110444280Y-106222800D02*
X108354752Y-106222800D01*
X108354752Y-106222800D02*
X101960872Y-99828920D01*
X101960872Y-99828920D02*
X98089440Y-99828920D01*
%TO.N,Net-(J2-Pad8)*%
X110440867Y-91581149D02*
X100797211Y-91581149D01*
X110453719Y-91594001D02*
X110440867Y-91581149D01*
X100797211Y-91581149D02*
X98089440Y-94288920D01*
%TO.N,Net-(J2-Pad9)*%
X101470360Y-88138000D02*
X98089440Y-91518920D01*
X106481880Y-88138000D02*
X101470360Y-88138000D01*
X110418880Y-84201000D02*
X106481880Y-88138000D01*
X110474760Y-84201000D02*
X110418880Y-84201000D01*
%TD*%
D19*
%TO.N,Net-(J2-Pad0)*%
X99594914Y-80736641D02*
X99177668Y-80959662D01*
X98961546Y-81326421D01*
X100629440Y-82994315D01*
X102297334Y-81326421D01*
X102081212Y-80959662D01*
X101624809Y-80720800D01*
X132100721Y-80720800D01*
X132100720Y-111018720D01*
X122088349Y-111018720D01*
X122096577Y-111008694D01*
X122155542Y-110898380D01*
X122191852Y-110778682D01*
X122204112Y-110654200D01*
X122204112Y-108954200D01*
X122191852Y-108829718D01*
X122155542Y-108710020D01*
X122096577Y-108599706D01*
X122017225Y-108503015D01*
X121920534Y-108423663D01*
X121810220Y-108364698D01*
X121690522Y-108328388D01*
X121566040Y-108316128D01*
X119866040Y-108316128D01*
X119741558Y-108328388D01*
X119621860Y-108364698D01*
X119511546Y-108423663D01*
X119414855Y-108503015D01*
X119335503Y-108599706D01*
X119276538Y-108710020D01*
X119252074Y-108790666D01*
X119176309Y-108706612D01*
X118942960Y-108532559D01*
X118680139Y-108407375D01*
X118532930Y-108362724D01*
X118303040Y-108484045D01*
X118303040Y-109677200D01*
X118323040Y-109677200D01*
X118323040Y-109931200D01*
X118303040Y-109931200D01*
X118303040Y-109951200D01*
X118049040Y-109951200D01*
X118049040Y-109931200D01*
X116855226Y-109931200D01*
X116734559Y-110161091D01*
X116831883Y-110435452D01*
X116980862Y-110685555D01*
X117175771Y-110901788D01*
X117332539Y-111018720D01*
X114389678Y-111018720D01*
X114418702Y-110964420D01*
X114455012Y-110844722D01*
X114467272Y-110720240D01*
X114467272Y-109447309D01*
X116734559Y-109447309D01*
X116855226Y-109677200D01*
X118049040Y-109677200D01*
X118049040Y-108484045D01*
X117819150Y-108362724D01*
X117671941Y-108407375D01*
X117409120Y-108532559D01*
X117175771Y-108706612D01*
X116980862Y-108922845D01*
X116831883Y-109172948D01*
X116734559Y-109447309D01*
X114467272Y-109447309D01*
X114467272Y-109020240D01*
X114455012Y-108895758D01*
X114418702Y-108776060D01*
X114359737Y-108665746D01*
X114280385Y-108569055D01*
X114183694Y-108489703D01*
X114073380Y-108430738D01*
X113953682Y-108394428D01*
X113829200Y-108382168D01*
X112129200Y-108382168D01*
X112004718Y-108394428D01*
X111885020Y-108430738D01*
X111774706Y-108489703D01*
X111678015Y-108569055D01*
X111598663Y-108665746D01*
X111539698Y-108776060D01*
X111517687Y-108848620D01*
X111385832Y-108716765D01*
X111165207Y-108569348D01*
X111163565Y-108552675D01*
X111148501Y-108503015D01*
X111121537Y-108414127D01*
X111053287Y-108286440D01*
X110961438Y-108174522D01*
X110933393Y-108151506D01*
X110489687Y-107707800D01*
X110590540Y-107707800D01*
X110877438Y-107650732D01*
X111147691Y-107538790D01*
X111390912Y-107376275D01*
X111522767Y-107244420D01*
X111544778Y-107316980D01*
X111603743Y-107427294D01*
X111683095Y-107523985D01*
X111779786Y-107603337D01*
X111890100Y-107662302D01*
X112009798Y-107698612D01*
X112134280Y-107710872D01*
X113834280Y-107710872D01*
X113958762Y-107698612D01*
X114078460Y-107662302D01*
X114188774Y-107603337D01*
X114285465Y-107523985D01*
X114364817Y-107427294D01*
X114423782Y-107316980D01*
X114460092Y-107197282D01*
X114472352Y-107072800D01*
X114472352Y-105929220D01*
X116721520Y-105929220D01*
X116721520Y-106221740D01*
X116778588Y-106508638D01*
X116890530Y-106778891D01*
X117053045Y-107022112D01*
X117259888Y-107228955D01*
X117503109Y-107391470D01*
X117773362Y-107503412D01*
X118060260Y-107560480D01*
X118352780Y-107560480D01*
X118639678Y-107503412D01*
X118909931Y-107391470D01*
X119153152Y-107228955D01*
X119285007Y-107097100D01*
X119307018Y-107169660D01*
X119365983Y-107279974D01*
X119445335Y-107376665D01*
X119542026Y-107456017D01*
X119652340Y-107514982D01*
X119772038Y-107551292D01*
X119896520Y-107563552D01*
X121596520Y-107563552D01*
X121721002Y-107551292D01*
X121840700Y-107514982D01*
X121951014Y-107456017D01*
X122047705Y-107376665D01*
X122127057Y-107279974D01*
X122186022Y-107169660D01*
X122222332Y-107049962D01*
X122234592Y-106925480D01*
X122234592Y-105225480D01*
X122222332Y-105100998D01*
X122186022Y-104981300D01*
X122127057Y-104870986D01*
X122047705Y-104774295D01*
X121951014Y-104694943D01*
X121840700Y-104635978D01*
X121721002Y-104599668D01*
X121596520Y-104587408D01*
X119896520Y-104587408D01*
X119772038Y-104599668D01*
X119652340Y-104635978D01*
X119542026Y-104694943D01*
X119445335Y-104774295D01*
X119365983Y-104870986D01*
X119307018Y-104981300D01*
X119285007Y-105053860D01*
X119153152Y-104922005D01*
X118909931Y-104759490D01*
X118639678Y-104647548D01*
X118352780Y-104590480D01*
X118060260Y-104590480D01*
X117773362Y-104647548D01*
X117503109Y-104759490D01*
X117259888Y-104922005D01*
X117053045Y-105128848D01*
X116890530Y-105372069D01*
X116778588Y-105642322D01*
X116721520Y-105929220D01*
X114472352Y-105929220D01*
X114472352Y-105372800D01*
X114460092Y-105248318D01*
X114423782Y-105128620D01*
X114364817Y-105018306D01*
X114285465Y-104921615D01*
X114188774Y-104842263D01*
X114078460Y-104783298D01*
X113958762Y-104746988D01*
X113834280Y-104734728D01*
X112134280Y-104734728D01*
X112009798Y-104746988D01*
X111890100Y-104783298D01*
X111779786Y-104842263D01*
X111683095Y-104921615D01*
X111603743Y-105018306D01*
X111544778Y-105128620D01*
X111522767Y-105201180D01*
X111390912Y-105069325D01*
X111147691Y-104906810D01*
X110877438Y-104794868D01*
X110590540Y-104737800D01*
X110298020Y-104737800D01*
X110011122Y-104794868D01*
X109740869Y-104906810D01*
X109497648Y-105069325D01*
X109290805Y-105276168D01*
X109149397Y-105487800D01*
X108659199Y-105487800D01*
X107478679Y-104307280D01*
X117016015Y-104307280D01*
X117052120Y-104310836D01*
X117088225Y-104307280D01*
X117196205Y-104296645D01*
X117334753Y-104254617D01*
X117462440Y-104186367D01*
X117574358Y-104094518D01*
X117597378Y-104066468D01*
X117815703Y-103848144D01*
X118065340Y-103897800D01*
X118357860Y-103897800D01*
X118644758Y-103840732D01*
X118915011Y-103728790D01*
X119158232Y-103566275D01*
X119290087Y-103434420D01*
X119312098Y-103506980D01*
X119371063Y-103617294D01*
X119450415Y-103713985D01*
X119547106Y-103793337D01*
X119657420Y-103852302D01*
X119777118Y-103888612D01*
X119901600Y-103900872D01*
X121601600Y-103900872D01*
X121726082Y-103888612D01*
X121845780Y-103852302D01*
X121956094Y-103793337D01*
X122052785Y-103713985D01*
X122132137Y-103617294D01*
X122191102Y-103506980D01*
X122227412Y-103387282D01*
X122239672Y-103262800D01*
X122239672Y-101562800D01*
X122227412Y-101438318D01*
X122191102Y-101318620D01*
X122132137Y-101208306D01*
X122052785Y-101111615D01*
X121956094Y-101032263D01*
X121845780Y-100973298D01*
X121726082Y-100936988D01*
X121601600Y-100924728D01*
X121486600Y-100924728D01*
X121486600Y-100538280D01*
X122101814Y-100538280D01*
X122261935Y-100604604D01*
X122606793Y-100673200D01*
X122958407Y-100673200D01*
X123303265Y-100604604D01*
X123463386Y-100538280D01*
X124226320Y-100538280D01*
X124250655Y-100535927D01*
X124274505Y-100528784D01*
X124296503Y-100517126D01*
X124315804Y-100501400D01*
X124331666Y-100482211D01*
X124343480Y-100460296D01*
X124350791Y-100436497D01*
X124353319Y-100411730D01*
X124355673Y-99746847D01*
X124364447Y-99733715D01*
X124499004Y-99408865D01*
X124567600Y-99064007D01*
X124567600Y-98712393D01*
X124554422Y-98646144D01*
X124771934Y-98863656D01*
X125142089Y-99110986D01*
X125553382Y-99281349D01*
X125990009Y-99368200D01*
X126435191Y-99368200D01*
X126871818Y-99281349D01*
X127283111Y-99110986D01*
X127653266Y-98863656D01*
X127968056Y-98548866D01*
X128215386Y-98178711D01*
X128385749Y-97767418D01*
X128472600Y-97330791D01*
X128472600Y-96885609D01*
X128385749Y-96448982D01*
X128215386Y-96037689D01*
X127968056Y-95667534D01*
X127653266Y-95352744D01*
X127283111Y-95105414D01*
X126871818Y-94935051D01*
X126435191Y-94848200D01*
X125990009Y-94848200D01*
X125553382Y-94935051D01*
X125142089Y-95105414D01*
X124771934Y-95352744D01*
X124457144Y-95667534D01*
X124209814Y-96037689D01*
X124039451Y-96448982D01*
X123952600Y-96885609D01*
X123952600Y-97330791D01*
X123969263Y-97414559D01*
X123790537Y-97414880D01*
X123628115Y-97306353D01*
X123303265Y-97171796D01*
X122958407Y-97103200D01*
X122606793Y-97103200D01*
X122261935Y-97171796D01*
X121937085Y-97306353D01*
X121769232Y-97418509D01*
X121486600Y-97419017D01*
X121486600Y-95641142D01*
X121488611Y-95641975D01*
X121756189Y-95695200D01*
X122029011Y-95695200D01*
X122296589Y-95641975D01*
X122548643Y-95537571D01*
X122775486Y-95385999D01*
X122968399Y-95193086D01*
X123119971Y-94966243D01*
X123224375Y-94714189D01*
X123243954Y-94615762D01*
X123268611Y-94625975D01*
X123536189Y-94679200D01*
X123809011Y-94679200D01*
X124076589Y-94625975D01*
X124328643Y-94521571D01*
X124555486Y-94369999D01*
X124748399Y-94177086D01*
X124899971Y-93950243D01*
X125004375Y-93698189D01*
X125057600Y-93430611D01*
X125057600Y-93157789D01*
X125004375Y-92890211D01*
X124899971Y-92638157D01*
X124748399Y-92411314D01*
X124615285Y-92278200D01*
X124748399Y-92145086D01*
X124899971Y-91918243D01*
X125004375Y-91666189D01*
X125057600Y-91398611D01*
X125057600Y-91125789D01*
X125004375Y-90858211D01*
X124899971Y-90606157D01*
X124748399Y-90379314D01*
X124615285Y-90246200D01*
X124748399Y-90113086D01*
X124899971Y-89886243D01*
X125004375Y-89634189D01*
X125057600Y-89366611D01*
X125057600Y-89093789D01*
X125004375Y-88826211D01*
X124899971Y-88574157D01*
X124815276Y-88447402D01*
X124873785Y-88399385D01*
X124953137Y-88302694D01*
X125012102Y-88192380D01*
X125048412Y-88072682D01*
X125060672Y-87948200D01*
X125060672Y-86448200D01*
X125051013Y-86350131D01*
X125142089Y-86410986D01*
X125553382Y-86581349D01*
X125990009Y-86668200D01*
X126435191Y-86668200D01*
X126871818Y-86581349D01*
X127283111Y-86410986D01*
X127653266Y-86163656D01*
X127968056Y-85848866D01*
X128215386Y-85478711D01*
X128385749Y-85067418D01*
X128472600Y-84630791D01*
X128472600Y-84185609D01*
X128385749Y-83748982D01*
X128215386Y-83337689D01*
X127968056Y-82967534D01*
X127653266Y-82652744D01*
X127283111Y-82405414D01*
X126871818Y-82235051D01*
X126435191Y-82148200D01*
X125990009Y-82148200D01*
X125553382Y-82235051D01*
X125142089Y-82405414D01*
X124771934Y-82652744D01*
X124554422Y-82870256D01*
X124567600Y-82804007D01*
X124567600Y-82452393D01*
X124499004Y-82107535D01*
X124472477Y-82043492D01*
X124475239Y-81321126D01*
X124472722Y-81295474D01*
X124465420Y-81271672D01*
X124453615Y-81249752D01*
X124437761Y-81230557D01*
X124418467Y-81214823D01*
X124396473Y-81203156D01*
X124372626Y-81196003D01*
X124347843Y-81193641D01*
X123850874Y-81195196D01*
X123628115Y-81046353D01*
X123303265Y-80911796D01*
X122958407Y-80843200D01*
X122606793Y-80843200D01*
X122261935Y-80911796D01*
X121937085Y-81046353D01*
X121704271Y-81201915D01*
X121101723Y-81203801D01*
X121077344Y-81206240D01*
X121053519Y-81213467D01*
X121031563Y-81225203D01*
X121012317Y-81240997D01*
X120996523Y-81260243D01*
X120984787Y-81282199D01*
X120977560Y-81306024D01*
X120975120Y-81330800D01*
X120975120Y-83977480D01*
X120977560Y-84002256D01*
X120984787Y-84026081D01*
X120996523Y-84048037D01*
X121012317Y-84067283D01*
X121031563Y-84083077D01*
X121053519Y-84094813D01*
X121077344Y-84102040D01*
X121102120Y-84104480D01*
X121779094Y-84104480D01*
X121937085Y-84210047D01*
X122261935Y-84344604D01*
X122606793Y-84413200D01*
X122958407Y-84413200D01*
X123303265Y-84344604D01*
X123628115Y-84210047D01*
X123786106Y-84104480D01*
X123968738Y-84104480D01*
X123952600Y-84185609D01*
X123952600Y-84630791D01*
X124039451Y-85067418D01*
X124209814Y-85478711D01*
X124431870Y-85811041D01*
X124422600Y-85810128D01*
X122922600Y-85810128D01*
X122798118Y-85822388D01*
X122678420Y-85858698D01*
X122568106Y-85917663D01*
X122471415Y-85997015D01*
X122392063Y-86093706D01*
X122333098Y-86204020D01*
X122296788Y-86323718D01*
X122284528Y-86448200D01*
X122284528Y-86880026D01*
X122029011Y-86829200D01*
X121756189Y-86829200D01*
X121488611Y-86882425D01*
X121236557Y-86986829D01*
X121009714Y-87138401D01*
X120816801Y-87331314D01*
X120665229Y-87558157D01*
X120560825Y-87810211D01*
X120507600Y-88077789D01*
X120507600Y-88350611D01*
X120560825Y-88618189D01*
X120665229Y-88870243D01*
X120816801Y-89097086D01*
X120949915Y-89230200D01*
X120816801Y-89363314D01*
X120665229Y-89590157D01*
X120560825Y-89842211D01*
X120507600Y-90109789D01*
X120507600Y-90382611D01*
X120542299Y-90557054D01*
X120257408Y-90841946D01*
X120229363Y-90864962D01*
X120137514Y-90976880D01*
X120099137Y-91048679D01*
X120069264Y-91104567D01*
X120027235Y-91243115D01*
X120013044Y-91387200D01*
X120016601Y-91423315D01*
X120016600Y-100924728D01*
X119901600Y-100924728D01*
X119777118Y-100936988D01*
X119657420Y-100973298D01*
X119547106Y-101032263D01*
X119450415Y-101111615D01*
X119371063Y-101208306D01*
X119312098Y-101318620D01*
X119290087Y-101391180D01*
X119158232Y-101259325D01*
X118915011Y-101096810D01*
X118644758Y-100984868D01*
X118357860Y-100927800D01*
X118065340Y-100927800D01*
X117778442Y-100984868D01*
X117508189Y-101096810D01*
X117264968Y-101259325D01*
X117058125Y-101466168D01*
X116895610Y-101709389D01*
X116783668Y-101979642D01*
X116726600Y-102266540D01*
X116726600Y-102559060D01*
X116776256Y-102808697D01*
X116747674Y-102837280D01*
X114436462Y-102837280D01*
X114460081Y-102718539D01*
X114460081Y-102426019D01*
X114403013Y-102139121D01*
X114291071Y-101868868D01*
X114128556Y-101625647D01*
X113921713Y-101418804D01*
X113678492Y-101256289D01*
X113408239Y-101144347D01*
X113121341Y-101087279D01*
X112828821Y-101087279D01*
X112541923Y-101144347D01*
X112271670Y-101256289D01*
X112028449Y-101418804D01*
X111896594Y-101550659D01*
X111874583Y-101478099D01*
X111815618Y-101367785D01*
X111736266Y-101271094D01*
X111639575Y-101191742D01*
X111529261Y-101132777D01*
X111409563Y-101096467D01*
X111285081Y-101084207D01*
X109585081Y-101084207D01*
X109460599Y-101096467D01*
X109340901Y-101132777D01*
X109230587Y-101191742D01*
X109133896Y-101271094D01*
X109054544Y-101367785D01*
X108995579Y-101478099D01*
X108959269Y-101597797D01*
X108947009Y-101722279D01*
X108947009Y-102837280D01*
X106362247Y-102837280D01*
X102322262Y-98797296D01*
X102364440Y-98585255D01*
X102364440Y-98302585D01*
X102317730Y-98067760D01*
X108946048Y-98067760D01*
X108946048Y-99767760D01*
X108958308Y-99892242D01*
X108994618Y-100011940D01*
X109053583Y-100122254D01*
X109132935Y-100218945D01*
X109229626Y-100298297D01*
X109339940Y-100357262D01*
X109459638Y-100393572D01*
X109584120Y-100405832D01*
X111284120Y-100405832D01*
X111408602Y-100393572D01*
X111528300Y-100357262D01*
X111638614Y-100298297D01*
X111735305Y-100218945D01*
X111814657Y-100122254D01*
X111873622Y-100011940D01*
X111895633Y-99939380D01*
X112027488Y-100071235D01*
X112270709Y-100233750D01*
X112540962Y-100345692D01*
X112827860Y-100402760D01*
X113120380Y-100402760D01*
X113407278Y-100345692D01*
X113677531Y-100233750D01*
X113920752Y-100071235D01*
X114127595Y-99864392D01*
X114290110Y-99621171D01*
X114402052Y-99350918D01*
X114459120Y-99064020D01*
X114459120Y-98771500D01*
X114402052Y-98484602D01*
X114290110Y-98214349D01*
X114127595Y-97971128D01*
X113920752Y-97764285D01*
X113677531Y-97601770D01*
X113407278Y-97489828D01*
X113120380Y-97432760D01*
X112827860Y-97432760D01*
X112540962Y-97489828D01*
X112270709Y-97601770D01*
X112027488Y-97764285D01*
X111895633Y-97896140D01*
X111873622Y-97823580D01*
X111814657Y-97713266D01*
X111735305Y-97616575D01*
X111638614Y-97537223D01*
X111528300Y-97478258D01*
X111408602Y-97441948D01*
X111284120Y-97429688D01*
X109584120Y-97429688D01*
X109459638Y-97441948D01*
X109339940Y-97478258D01*
X109229626Y-97537223D01*
X109132935Y-97616575D01*
X109053583Y-97713266D01*
X108994618Y-97823580D01*
X108958308Y-97943278D01*
X108946048Y-98067760D01*
X102317730Y-98067760D01*
X102309293Y-98025346D01*
X102201120Y-97764193D01*
X102044077Y-97529161D01*
X101844199Y-97329283D01*
X101609167Y-97172240D01*
X101348014Y-97064067D01*
X101322139Y-97058920D01*
X101348014Y-97053773D01*
X101609167Y-96945600D01*
X101844199Y-96788557D01*
X102044077Y-96588679D01*
X102201120Y-96353647D01*
X102309293Y-96092494D01*
X102364440Y-95815255D01*
X102364440Y-95532585D01*
X102309293Y-95255346D01*
X102201120Y-94994193D01*
X102044077Y-94759161D01*
X101844199Y-94559283D01*
X101763539Y-94505388D01*
X103702767Y-92566160D01*
X108540881Y-92566160D01*
X108540880Y-94041136D01*
X108537324Y-94077241D01*
X108547158Y-94177086D01*
X108551515Y-94221325D01*
X108593543Y-94359873D01*
X108661793Y-94487560D01*
X108753642Y-94599478D01*
X108781688Y-94622495D01*
X109018375Y-94859183D01*
X108968719Y-95108820D01*
X108968719Y-95401340D01*
X109025787Y-95688238D01*
X109137729Y-95958491D01*
X109300244Y-96201712D01*
X109507087Y-96408555D01*
X109750308Y-96571070D01*
X110020561Y-96683012D01*
X110307459Y-96740080D01*
X110599979Y-96740080D01*
X110886877Y-96683012D01*
X111157130Y-96571070D01*
X111400351Y-96408555D01*
X111532206Y-96276700D01*
X111554217Y-96349260D01*
X111613182Y-96459574D01*
X111692534Y-96556265D01*
X111789225Y-96635617D01*
X111899539Y-96694582D01*
X112019237Y-96730892D01*
X112143719Y-96743152D01*
X113843719Y-96743152D01*
X113968201Y-96730892D01*
X114087899Y-96694582D01*
X114198213Y-96635617D01*
X114294904Y-96556265D01*
X114374256Y-96459574D01*
X114433221Y-96349260D01*
X114469531Y-96229562D01*
X114481791Y-96105080D01*
X114481791Y-94405080D01*
X114469531Y-94280598D01*
X114433221Y-94160900D01*
X114374256Y-94050586D01*
X114294904Y-93953895D01*
X114198213Y-93874543D01*
X114087899Y-93815578D01*
X113968201Y-93779268D01*
X113843719Y-93767008D01*
X112143719Y-93767008D01*
X112019237Y-93779268D01*
X111899539Y-93815578D01*
X111789225Y-93874543D01*
X111692534Y-93953895D01*
X111613182Y-94050586D01*
X111554217Y-94160900D01*
X111532206Y-94233460D01*
X111400351Y-94101605D01*
X111157130Y-93939090D01*
X110886877Y-93827148D01*
X110599979Y-93770080D01*
X110307459Y-93770080D01*
X110057822Y-93819736D01*
X110010880Y-93772795D01*
X110010880Y-93017923D01*
X110020561Y-93021933D01*
X110307459Y-93079001D01*
X110599979Y-93079001D01*
X110886877Y-93021933D01*
X111157130Y-92909991D01*
X111400351Y-92747476D01*
X111532206Y-92615621D01*
X111554217Y-92688181D01*
X111613182Y-92798495D01*
X111692534Y-92895186D01*
X111789225Y-92974538D01*
X111899539Y-93033503D01*
X112019237Y-93069813D01*
X112143719Y-93082073D01*
X113843719Y-93082073D01*
X113968201Y-93069813D01*
X114087899Y-93033503D01*
X114198213Y-92974538D01*
X114294904Y-92895186D01*
X114374256Y-92798495D01*
X114433221Y-92688181D01*
X114469531Y-92568483D01*
X114481791Y-92444001D01*
X114481791Y-90744001D01*
X114469531Y-90619519D01*
X114433221Y-90499821D01*
X114374256Y-90389507D01*
X114294904Y-90292816D01*
X114198213Y-90213464D01*
X114087899Y-90154499D01*
X113968201Y-90118189D01*
X113843719Y-90105929D01*
X112143719Y-90105929D01*
X112019237Y-90118189D01*
X111899539Y-90154499D01*
X111789225Y-90213464D01*
X111692534Y-90292816D01*
X111613182Y-90389507D01*
X111554217Y-90499821D01*
X111532206Y-90572381D01*
X111400351Y-90440526D01*
X111157130Y-90278011D01*
X110886877Y-90166069D01*
X110599979Y-90109001D01*
X110307459Y-90109001D01*
X110020561Y-90166069D01*
X109750308Y-90278011D01*
X109507087Y-90440526D01*
X109300244Y-90647369D01*
X109167424Y-90846149D01*
X102179403Y-90846149D01*
X102201120Y-90813647D01*
X102309293Y-90552494D01*
X102364440Y-90275255D01*
X102364440Y-89992585D01*
X102322262Y-89780545D01*
X102960567Y-89142240D01*
X106618495Y-89142240D01*
X106654600Y-89145796D01*
X106690705Y-89142240D01*
X106798685Y-89131605D01*
X106937233Y-89089577D01*
X107064920Y-89021327D01*
X107176838Y-88929478D01*
X107199858Y-88901428D01*
X107461967Y-88639320D01*
X109179877Y-88639320D01*
X109321285Y-88850952D01*
X109528128Y-89057795D01*
X109771349Y-89220310D01*
X110041602Y-89332252D01*
X110328500Y-89389320D01*
X110621020Y-89389320D01*
X110907918Y-89332252D01*
X111178171Y-89220310D01*
X111421392Y-89057795D01*
X111553247Y-88925940D01*
X111575258Y-88998500D01*
X111634223Y-89108814D01*
X111713575Y-89205505D01*
X111810266Y-89284857D01*
X111920580Y-89343822D01*
X112040278Y-89380132D01*
X112164760Y-89392392D01*
X113864760Y-89392392D01*
X113989242Y-89380132D01*
X114108940Y-89343822D01*
X114219254Y-89284857D01*
X114315945Y-89205505D01*
X114395297Y-89108814D01*
X114454262Y-88998500D01*
X114490572Y-88878802D01*
X114502832Y-88754320D01*
X114502832Y-87054320D01*
X114490572Y-86929838D01*
X114454262Y-86810140D01*
X114395297Y-86699826D01*
X114315945Y-86603135D01*
X114219254Y-86523783D01*
X114108940Y-86464818D01*
X113989242Y-86428508D01*
X113864760Y-86416248D01*
X112164760Y-86416248D01*
X112040278Y-86428508D01*
X111920580Y-86464818D01*
X111810266Y-86523783D01*
X111713575Y-86603135D01*
X111634223Y-86699826D01*
X111575258Y-86810140D01*
X111553247Y-86882700D01*
X111421392Y-86750845D01*
X111178171Y-86588330D01*
X110907918Y-86476388D01*
X110621020Y-86419320D01*
X110328500Y-86419320D01*
X110041602Y-86476388D01*
X109771349Y-86588330D01*
X109528128Y-86750845D01*
X109321285Y-86957688D01*
X109179877Y-87169320D01*
X108490006Y-87169320D01*
X110033677Y-85625649D01*
X110041602Y-85628932D01*
X110328500Y-85686000D01*
X110621020Y-85686000D01*
X110907918Y-85628932D01*
X111178171Y-85516990D01*
X111421392Y-85354475D01*
X111553247Y-85222620D01*
X111575258Y-85295180D01*
X111634223Y-85405494D01*
X111713575Y-85502185D01*
X111810266Y-85581537D01*
X111920580Y-85640502D01*
X112040278Y-85676812D01*
X112164760Y-85689072D01*
X113864760Y-85689072D01*
X113989242Y-85676812D01*
X114108940Y-85640502D01*
X114219254Y-85581537D01*
X114315945Y-85502185D01*
X114395297Y-85405494D01*
X114454262Y-85295180D01*
X114490572Y-85175482D01*
X114502832Y-85051000D01*
X114502832Y-83351000D01*
X114490572Y-83226518D01*
X114454262Y-83106820D01*
X114395297Y-82996506D01*
X114315945Y-82899815D01*
X114219254Y-82820463D01*
X114108940Y-82761498D01*
X113989242Y-82725188D01*
X113864760Y-82712928D01*
X112164760Y-82712928D01*
X112040278Y-82725188D01*
X111920580Y-82761498D01*
X111810266Y-82820463D01*
X111713575Y-82899815D01*
X111634223Y-82996506D01*
X111575258Y-83106820D01*
X111553247Y-83179380D01*
X111421392Y-83047525D01*
X111178171Y-82885010D01*
X110907918Y-82773068D01*
X110621020Y-82716000D01*
X110328500Y-82716000D01*
X110041602Y-82773068D01*
X109771349Y-82885010D01*
X109528128Y-83047525D01*
X109321285Y-83254368D01*
X109158770Y-83497589D01*
X109046828Y-83767842D01*
X108989760Y-84054740D01*
X108989760Y-84347260D01*
X109030145Y-84550288D01*
X106177434Y-87403000D01*
X101506465Y-87403000D01*
X101470360Y-87399444D01*
X101434255Y-87403000D01*
X101326275Y-87413635D01*
X101187727Y-87455663D01*
X101060040Y-87523913D01*
X100948122Y-87615762D01*
X100925106Y-87643807D01*
X98442816Y-90126098D01*
X98230775Y-90083920D01*
X97948105Y-90083920D01*
X97670866Y-90139067D01*
X97409713Y-90247240D01*
X97174681Y-90404283D01*
X96974803Y-90604161D01*
X96817760Y-90839193D01*
X96709587Y-91100346D01*
X96654440Y-91377585D01*
X96654440Y-91660255D01*
X96709587Y-91937494D01*
X96817760Y-92198647D01*
X96974803Y-92433679D01*
X97174681Y-92633557D01*
X97409713Y-92790600D01*
X97670866Y-92898773D01*
X97696741Y-92903920D01*
X97670866Y-92909067D01*
X97409713Y-93017240D01*
X97174681Y-93174283D01*
X96974803Y-93374161D01*
X96817760Y-93609193D01*
X96709587Y-93870346D01*
X96654440Y-94147585D01*
X96654440Y-94430255D01*
X96709587Y-94707494D01*
X96817760Y-94968647D01*
X96974803Y-95203679D01*
X97174681Y-95403557D01*
X97382494Y-95542413D01*
X97365075Y-95599835D01*
X97350884Y-95743920D01*
X97354440Y-95780026D01*
X97354440Y-95824172D01*
X97174681Y-95944283D01*
X96974803Y-96144161D01*
X96817760Y-96379193D01*
X96709587Y-96640346D01*
X96654440Y-96917585D01*
X96654440Y-97200255D01*
X96709587Y-97477494D01*
X96817760Y-97738647D01*
X96974803Y-97973679D01*
X97174681Y-98173557D01*
X97409713Y-98330600D01*
X97670866Y-98438773D01*
X97696741Y-98443920D01*
X97670866Y-98449067D01*
X97409713Y-98557240D01*
X97174681Y-98714283D01*
X96974803Y-98914161D01*
X96817760Y-99149193D01*
X96709587Y-99410346D01*
X96654440Y-99687585D01*
X96654440Y-99970255D01*
X96709587Y-100247494D01*
X96817760Y-100508647D01*
X96974803Y-100743679D01*
X97174681Y-100943557D01*
X97409713Y-101100600D01*
X97670866Y-101208773D01*
X97948105Y-101263920D01*
X98230775Y-101263920D01*
X98508014Y-101208773D01*
X98769167Y-101100600D01*
X99004199Y-100943557D01*
X99204077Y-100743679D01*
X99324188Y-100563920D01*
X99491368Y-100563920D01*
X99491368Y-102013920D01*
X99503628Y-102138402D01*
X99539938Y-102258100D01*
X99598903Y-102368414D01*
X99678255Y-102465105D01*
X99774946Y-102544457D01*
X99885260Y-102603422D01*
X100004958Y-102639732D01*
X100129440Y-102651992D01*
X101729440Y-102651992D01*
X101853922Y-102639732D01*
X101973620Y-102603422D01*
X102083934Y-102544457D01*
X102180625Y-102465105D01*
X102259977Y-102368414D01*
X102318942Y-102258100D01*
X102355252Y-102138402D01*
X102367512Y-102013920D01*
X102367512Y-101948920D01*
X102651914Y-101948920D01*
X109456163Y-108753170D01*
X109285725Y-108923608D01*
X109123210Y-109166829D01*
X109011268Y-109437082D01*
X108954200Y-109723980D01*
X108954200Y-110016500D01*
X109011268Y-110303398D01*
X109123210Y-110573651D01*
X109285725Y-110816872D01*
X109487573Y-111018720D01*
X93832280Y-111018720D01*
X93832280Y-110021419D01*
X98961546Y-110021419D01*
X99177668Y-110388178D01*
X99637545Y-110628858D01*
X100135538Y-110775195D01*
X100652511Y-110821568D01*
X101168599Y-110766193D01*
X101663966Y-110611199D01*
X102081212Y-110388178D01*
X102297334Y-110021419D01*
X100629440Y-108353525D01*
X98961546Y-110021419D01*
X93832280Y-110021419D01*
X93832280Y-108196991D01*
X97981792Y-108196991D01*
X98037167Y-108713079D01*
X98192161Y-109208446D01*
X98415182Y-109625692D01*
X98781941Y-109841814D01*
X100449835Y-108173920D01*
X100809045Y-108173920D01*
X102476939Y-109841814D01*
X102843698Y-109625692D01*
X103084378Y-109165815D01*
X103230715Y-108667822D01*
X103277088Y-108150849D01*
X103221713Y-107634761D01*
X103066719Y-107139394D01*
X102843698Y-106722148D01*
X102476939Y-106506026D01*
X100809045Y-108173920D01*
X100449835Y-108173920D01*
X98781941Y-106506026D01*
X98415182Y-106722148D01*
X98174502Y-107182025D01*
X98028165Y-107680018D01*
X97981792Y-108196991D01*
X93832280Y-108196991D01*
X93832280Y-106326421D01*
X98961546Y-106326421D01*
X100629440Y-107994315D01*
X102297334Y-106326421D01*
X102081212Y-105959662D01*
X101621335Y-105718982D01*
X101123342Y-105572645D01*
X100606369Y-105526272D01*
X100090281Y-105581647D01*
X99594914Y-105736641D01*
X99177668Y-105959662D01*
X98961546Y-106326421D01*
X93832280Y-106326421D01*
X93832280Y-85021419D01*
X98961546Y-85021419D01*
X99177668Y-85388178D01*
X99637545Y-85628858D01*
X100135538Y-85775195D01*
X100652511Y-85821568D01*
X101168599Y-85766193D01*
X101663966Y-85611199D01*
X102081212Y-85388178D01*
X102297334Y-85021419D01*
X100629440Y-83353525D01*
X98961546Y-85021419D01*
X93832280Y-85021419D01*
X93832280Y-83196991D01*
X97981792Y-83196991D01*
X98037167Y-83713079D01*
X98192161Y-84208446D01*
X98415182Y-84625692D01*
X98781941Y-84841814D01*
X100449835Y-83173920D01*
X100809045Y-83173920D01*
X102476939Y-84841814D01*
X102843698Y-84625692D01*
X103084378Y-84165815D01*
X103230715Y-83667822D01*
X103277088Y-83150849D01*
X103221713Y-82634761D01*
X103066719Y-82139394D01*
X102843698Y-81722148D01*
X102476939Y-81506026D01*
X100809045Y-83173920D01*
X100449835Y-83173920D01*
X98781941Y-81506026D01*
X98415182Y-81722148D01*
X98174502Y-82182025D01*
X98028165Y-82680018D01*
X97981792Y-83196991D01*
X93832280Y-83196991D01*
X93832280Y-80720800D01*
X99645542Y-80720800D01*
X99594914Y-80736641D01*
%TA.AperFunction,Conductor*%
D20*
G36*
X99594914Y-80736641D02*
G01*
X99177668Y-80959662D01*
X98961546Y-81326421D01*
X100629440Y-82994315D01*
X102297334Y-81326421D01*
X102081212Y-80959662D01*
X101624809Y-80720800D01*
X132100721Y-80720800D01*
X132100720Y-111018720D01*
X122088349Y-111018720D01*
X122096577Y-111008694D01*
X122155542Y-110898380D01*
X122191852Y-110778682D01*
X122204112Y-110654200D01*
X122204112Y-108954200D01*
X122191852Y-108829718D01*
X122155542Y-108710020D01*
X122096577Y-108599706D01*
X122017225Y-108503015D01*
X121920534Y-108423663D01*
X121810220Y-108364698D01*
X121690522Y-108328388D01*
X121566040Y-108316128D01*
X119866040Y-108316128D01*
X119741558Y-108328388D01*
X119621860Y-108364698D01*
X119511546Y-108423663D01*
X119414855Y-108503015D01*
X119335503Y-108599706D01*
X119276538Y-108710020D01*
X119252074Y-108790666D01*
X119176309Y-108706612D01*
X118942960Y-108532559D01*
X118680139Y-108407375D01*
X118532930Y-108362724D01*
X118303040Y-108484045D01*
X118303040Y-109677200D01*
X118323040Y-109677200D01*
X118323040Y-109931200D01*
X118303040Y-109931200D01*
X118303040Y-109951200D01*
X118049040Y-109951200D01*
X118049040Y-109931200D01*
X116855226Y-109931200D01*
X116734559Y-110161091D01*
X116831883Y-110435452D01*
X116980862Y-110685555D01*
X117175771Y-110901788D01*
X117332539Y-111018720D01*
X114389678Y-111018720D01*
X114418702Y-110964420D01*
X114455012Y-110844722D01*
X114467272Y-110720240D01*
X114467272Y-109447309D01*
X116734559Y-109447309D01*
X116855226Y-109677200D01*
X118049040Y-109677200D01*
X118049040Y-108484045D01*
X117819150Y-108362724D01*
X117671941Y-108407375D01*
X117409120Y-108532559D01*
X117175771Y-108706612D01*
X116980862Y-108922845D01*
X116831883Y-109172948D01*
X116734559Y-109447309D01*
X114467272Y-109447309D01*
X114467272Y-109020240D01*
X114455012Y-108895758D01*
X114418702Y-108776060D01*
X114359737Y-108665746D01*
X114280385Y-108569055D01*
X114183694Y-108489703D01*
X114073380Y-108430738D01*
X113953682Y-108394428D01*
X113829200Y-108382168D01*
X112129200Y-108382168D01*
X112004718Y-108394428D01*
X111885020Y-108430738D01*
X111774706Y-108489703D01*
X111678015Y-108569055D01*
X111598663Y-108665746D01*
X111539698Y-108776060D01*
X111517687Y-108848620D01*
X111385832Y-108716765D01*
X111165207Y-108569348D01*
X111163565Y-108552675D01*
X111148501Y-108503015D01*
X111121537Y-108414127D01*
X111053287Y-108286440D01*
X110961438Y-108174522D01*
X110933393Y-108151506D01*
X110489687Y-107707800D01*
X110590540Y-107707800D01*
X110877438Y-107650732D01*
X111147691Y-107538790D01*
X111390912Y-107376275D01*
X111522767Y-107244420D01*
X111544778Y-107316980D01*
X111603743Y-107427294D01*
X111683095Y-107523985D01*
X111779786Y-107603337D01*
X111890100Y-107662302D01*
X112009798Y-107698612D01*
X112134280Y-107710872D01*
X113834280Y-107710872D01*
X113958762Y-107698612D01*
X114078460Y-107662302D01*
X114188774Y-107603337D01*
X114285465Y-107523985D01*
X114364817Y-107427294D01*
X114423782Y-107316980D01*
X114460092Y-107197282D01*
X114472352Y-107072800D01*
X114472352Y-105929220D01*
X116721520Y-105929220D01*
X116721520Y-106221740D01*
X116778588Y-106508638D01*
X116890530Y-106778891D01*
X117053045Y-107022112D01*
X117259888Y-107228955D01*
X117503109Y-107391470D01*
X117773362Y-107503412D01*
X118060260Y-107560480D01*
X118352780Y-107560480D01*
X118639678Y-107503412D01*
X118909931Y-107391470D01*
X119153152Y-107228955D01*
X119285007Y-107097100D01*
X119307018Y-107169660D01*
X119365983Y-107279974D01*
X119445335Y-107376665D01*
X119542026Y-107456017D01*
X119652340Y-107514982D01*
X119772038Y-107551292D01*
X119896520Y-107563552D01*
X121596520Y-107563552D01*
X121721002Y-107551292D01*
X121840700Y-107514982D01*
X121951014Y-107456017D01*
X122047705Y-107376665D01*
X122127057Y-107279974D01*
X122186022Y-107169660D01*
X122222332Y-107049962D01*
X122234592Y-106925480D01*
X122234592Y-105225480D01*
X122222332Y-105100998D01*
X122186022Y-104981300D01*
X122127057Y-104870986D01*
X122047705Y-104774295D01*
X121951014Y-104694943D01*
X121840700Y-104635978D01*
X121721002Y-104599668D01*
X121596520Y-104587408D01*
X119896520Y-104587408D01*
X119772038Y-104599668D01*
X119652340Y-104635978D01*
X119542026Y-104694943D01*
X119445335Y-104774295D01*
X119365983Y-104870986D01*
X119307018Y-104981300D01*
X119285007Y-105053860D01*
X119153152Y-104922005D01*
X118909931Y-104759490D01*
X118639678Y-104647548D01*
X118352780Y-104590480D01*
X118060260Y-104590480D01*
X117773362Y-104647548D01*
X117503109Y-104759490D01*
X117259888Y-104922005D01*
X117053045Y-105128848D01*
X116890530Y-105372069D01*
X116778588Y-105642322D01*
X116721520Y-105929220D01*
X114472352Y-105929220D01*
X114472352Y-105372800D01*
X114460092Y-105248318D01*
X114423782Y-105128620D01*
X114364817Y-105018306D01*
X114285465Y-104921615D01*
X114188774Y-104842263D01*
X114078460Y-104783298D01*
X113958762Y-104746988D01*
X113834280Y-104734728D01*
X112134280Y-104734728D01*
X112009798Y-104746988D01*
X111890100Y-104783298D01*
X111779786Y-104842263D01*
X111683095Y-104921615D01*
X111603743Y-105018306D01*
X111544778Y-105128620D01*
X111522767Y-105201180D01*
X111390912Y-105069325D01*
X111147691Y-104906810D01*
X110877438Y-104794868D01*
X110590540Y-104737800D01*
X110298020Y-104737800D01*
X110011122Y-104794868D01*
X109740869Y-104906810D01*
X109497648Y-105069325D01*
X109290805Y-105276168D01*
X109149397Y-105487800D01*
X108659199Y-105487800D01*
X107478679Y-104307280D01*
X117016015Y-104307280D01*
X117052120Y-104310836D01*
X117088225Y-104307280D01*
X117196205Y-104296645D01*
X117334753Y-104254617D01*
X117462440Y-104186367D01*
X117574358Y-104094518D01*
X117597378Y-104066468D01*
X117815703Y-103848144D01*
X118065340Y-103897800D01*
X118357860Y-103897800D01*
X118644758Y-103840732D01*
X118915011Y-103728790D01*
X119158232Y-103566275D01*
X119290087Y-103434420D01*
X119312098Y-103506980D01*
X119371063Y-103617294D01*
X119450415Y-103713985D01*
X119547106Y-103793337D01*
X119657420Y-103852302D01*
X119777118Y-103888612D01*
X119901600Y-103900872D01*
X121601600Y-103900872D01*
X121726082Y-103888612D01*
X121845780Y-103852302D01*
X121956094Y-103793337D01*
X122052785Y-103713985D01*
X122132137Y-103617294D01*
X122191102Y-103506980D01*
X122227412Y-103387282D01*
X122239672Y-103262800D01*
X122239672Y-101562800D01*
X122227412Y-101438318D01*
X122191102Y-101318620D01*
X122132137Y-101208306D01*
X122052785Y-101111615D01*
X121956094Y-101032263D01*
X121845780Y-100973298D01*
X121726082Y-100936988D01*
X121601600Y-100924728D01*
X121486600Y-100924728D01*
X121486600Y-100538280D01*
X122101814Y-100538280D01*
X122261935Y-100604604D01*
X122606793Y-100673200D01*
X122958407Y-100673200D01*
X123303265Y-100604604D01*
X123463386Y-100538280D01*
X124226320Y-100538280D01*
X124250655Y-100535927D01*
X124274505Y-100528784D01*
X124296503Y-100517126D01*
X124315804Y-100501400D01*
X124331666Y-100482211D01*
X124343480Y-100460296D01*
X124350791Y-100436497D01*
X124353319Y-100411730D01*
X124355673Y-99746847D01*
X124364447Y-99733715D01*
X124499004Y-99408865D01*
X124567600Y-99064007D01*
X124567600Y-98712393D01*
X124554422Y-98646144D01*
X124771934Y-98863656D01*
X125142089Y-99110986D01*
X125553382Y-99281349D01*
X125990009Y-99368200D01*
X126435191Y-99368200D01*
X126871818Y-99281349D01*
X127283111Y-99110986D01*
X127653266Y-98863656D01*
X127968056Y-98548866D01*
X128215386Y-98178711D01*
X128385749Y-97767418D01*
X128472600Y-97330791D01*
X128472600Y-96885609D01*
X128385749Y-96448982D01*
X128215386Y-96037689D01*
X127968056Y-95667534D01*
X127653266Y-95352744D01*
X127283111Y-95105414D01*
X126871818Y-94935051D01*
X126435191Y-94848200D01*
X125990009Y-94848200D01*
X125553382Y-94935051D01*
X125142089Y-95105414D01*
X124771934Y-95352744D01*
X124457144Y-95667534D01*
X124209814Y-96037689D01*
X124039451Y-96448982D01*
X123952600Y-96885609D01*
X123952600Y-97330791D01*
X123969263Y-97414559D01*
X123790537Y-97414880D01*
X123628115Y-97306353D01*
X123303265Y-97171796D01*
X122958407Y-97103200D01*
X122606793Y-97103200D01*
X122261935Y-97171796D01*
X121937085Y-97306353D01*
X121769232Y-97418509D01*
X121486600Y-97419017D01*
X121486600Y-95641142D01*
X121488611Y-95641975D01*
X121756189Y-95695200D01*
X122029011Y-95695200D01*
X122296589Y-95641975D01*
X122548643Y-95537571D01*
X122775486Y-95385999D01*
X122968399Y-95193086D01*
X123119971Y-94966243D01*
X123224375Y-94714189D01*
X123243954Y-94615762D01*
X123268611Y-94625975D01*
X123536189Y-94679200D01*
X123809011Y-94679200D01*
X124076589Y-94625975D01*
X124328643Y-94521571D01*
X124555486Y-94369999D01*
X124748399Y-94177086D01*
X124899971Y-93950243D01*
X125004375Y-93698189D01*
X125057600Y-93430611D01*
X125057600Y-93157789D01*
X125004375Y-92890211D01*
X124899971Y-92638157D01*
X124748399Y-92411314D01*
X124615285Y-92278200D01*
X124748399Y-92145086D01*
X124899971Y-91918243D01*
X125004375Y-91666189D01*
X125057600Y-91398611D01*
X125057600Y-91125789D01*
X125004375Y-90858211D01*
X124899971Y-90606157D01*
X124748399Y-90379314D01*
X124615285Y-90246200D01*
X124748399Y-90113086D01*
X124899971Y-89886243D01*
X125004375Y-89634189D01*
X125057600Y-89366611D01*
X125057600Y-89093789D01*
X125004375Y-88826211D01*
X124899971Y-88574157D01*
X124815276Y-88447402D01*
X124873785Y-88399385D01*
X124953137Y-88302694D01*
X125012102Y-88192380D01*
X125048412Y-88072682D01*
X125060672Y-87948200D01*
X125060672Y-86448200D01*
X125051013Y-86350131D01*
X125142089Y-86410986D01*
X125553382Y-86581349D01*
X125990009Y-86668200D01*
X126435191Y-86668200D01*
X126871818Y-86581349D01*
X127283111Y-86410986D01*
X127653266Y-86163656D01*
X127968056Y-85848866D01*
X128215386Y-85478711D01*
X128385749Y-85067418D01*
X128472600Y-84630791D01*
X128472600Y-84185609D01*
X128385749Y-83748982D01*
X128215386Y-83337689D01*
X127968056Y-82967534D01*
X127653266Y-82652744D01*
X127283111Y-82405414D01*
X126871818Y-82235051D01*
X126435191Y-82148200D01*
X125990009Y-82148200D01*
X125553382Y-82235051D01*
X125142089Y-82405414D01*
X124771934Y-82652744D01*
X124554422Y-82870256D01*
X124567600Y-82804007D01*
X124567600Y-82452393D01*
X124499004Y-82107535D01*
X124472477Y-82043492D01*
X124475239Y-81321126D01*
X124472722Y-81295474D01*
X124465420Y-81271672D01*
X124453615Y-81249752D01*
X124437761Y-81230557D01*
X124418467Y-81214823D01*
X124396473Y-81203156D01*
X124372626Y-81196003D01*
X124347843Y-81193641D01*
X123850874Y-81195196D01*
X123628115Y-81046353D01*
X123303265Y-80911796D01*
X122958407Y-80843200D01*
X122606793Y-80843200D01*
X122261935Y-80911796D01*
X121937085Y-81046353D01*
X121704271Y-81201915D01*
X121101723Y-81203801D01*
X121077344Y-81206240D01*
X121053519Y-81213467D01*
X121031563Y-81225203D01*
X121012317Y-81240997D01*
X120996523Y-81260243D01*
X120984787Y-81282199D01*
X120977560Y-81306024D01*
X120975120Y-81330800D01*
X120975120Y-83977480D01*
X120977560Y-84002256D01*
X120984787Y-84026081D01*
X120996523Y-84048037D01*
X121012317Y-84067283D01*
X121031563Y-84083077D01*
X121053519Y-84094813D01*
X121077344Y-84102040D01*
X121102120Y-84104480D01*
X121779094Y-84104480D01*
X121937085Y-84210047D01*
X122261935Y-84344604D01*
X122606793Y-84413200D01*
X122958407Y-84413200D01*
X123303265Y-84344604D01*
X123628115Y-84210047D01*
X123786106Y-84104480D01*
X123968738Y-84104480D01*
X123952600Y-84185609D01*
X123952600Y-84630791D01*
X124039451Y-85067418D01*
X124209814Y-85478711D01*
X124431870Y-85811041D01*
X124422600Y-85810128D01*
X122922600Y-85810128D01*
X122798118Y-85822388D01*
X122678420Y-85858698D01*
X122568106Y-85917663D01*
X122471415Y-85997015D01*
X122392063Y-86093706D01*
X122333098Y-86204020D01*
X122296788Y-86323718D01*
X122284528Y-86448200D01*
X122284528Y-86880026D01*
X122029011Y-86829200D01*
X121756189Y-86829200D01*
X121488611Y-86882425D01*
X121236557Y-86986829D01*
X121009714Y-87138401D01*
X120816801Y-87331314D01*
X120665229Y-87558157D01*
X120560825Y-87810211D01*
X120507600Y-88077789D01*
X120507600Y-88350611D01*
X120560825Y-88618189D01*
X120665229Y-88870243D01*
X120816801Y-89097086D01*
X120949915Y-89230200D01*
X120816801Y-89363314D01*
X120665229Y-89590157D01*
X120560825Y-89842211D01*
X120507600Y-90109789D01*
X120507600Y-90382611D01*
X120542299Y-90557054D01*
X120257408Y-90841946D01*
X120229363Y-90864962D01*
X120137514Y-90976880D01*
X120099137Y-91048679D01*
X120069264Y-91104567D01*
X120027235Y-91243115D01*
X120013044Y-91387200D01*
X120016601Y-91423315D01*
X120016600Y-100924728D01*
X119901600Y-100924728D01*
X119777118Y-100936988D01*
X119657420Y-100973298D01*
X119547106Y-101032263D01*
X119450415Y-101111615D01*
X119371063Y-101208306D01*
X119312098Y-101318620D01*
X119290087Y-101391180D01*
X119158232Y-101259325D01*
X118915011Y-101096810D01*
X118644758Y-100984868D01*
X118357860Y-100927800D01*
X118065340Y-100927800D01*
X117778442Y-100984868D01*
X117508189Y-101096810D01*
X117264968Y-101259325D01*
X117058125Y-101466168D01*
X116895610Y-101709389D01*
X116783668Y-101979642D01*
X116726600Y-102266540D01*
X116726600Y-102559060D01*
X116776256Y-102808697D01*
X116747674Y-102837280D01*
X114436462Y-102837280D01*
X114460081Y-102718539D01*
X114460081Y-102426019D01*
X114403013Y-102139121D01*
X114291071Y-101868868D01*
X114128556Y-101625647D01*
X113921713Y-101418804D01*
X113678492Y-101256289D01*
X113408239Y-101144347D01*
X113121341Y-101087279D01*
X112828821Y-101087279D01*
X112541923Y-101144347D01*
X112271670Y-101256289D01*
X112028449Y-101418804D01*
X111896594Y-101550659D01*
X111874583Y-101478099D01*
X111815618Y-101367785D01*
X111736266Y-101271094D01*
X111639575Y-101191742D01*
X111529261Y-101132777D01*
X111409563Y-101096467D01*
X111285081Y-101084207D01*
X109585081Y-101084207D01*
X109460599Y-101096467D01*
X109340901Y-101132777D01*
X109230587Y-101191742D01*
X109133896Y-101271094D01*
X109054544Y-101367785D01*
X108995579Y-101478099D01*
X108959269Y-101597797D01*
X108947009Y-101722279D01*
X108947009Y-102837280D01*
X106362247Y-102837280D01*
X102322262Y-98797296D01*
X102364440Y-98585255D01*
X102364440Y-98302585D01*
X102317730Y-98067760D01*
X108946048Y-98067760D01*
X108946048Y-99767760D01*
X108958308Y-99892242D01*
X108994618Y-100011940D01*
X109053583Y-100122254D01*
X109132935Y-100218945D01*
X109229626Y-100298297D01*
X109339940Y-100357262D01*
X109459638Y-100393572D01*
X109584120Y-100405832D01*
X111284120Y-100405832D01*
X111408602Y-100393572D01*
X111528300Y-100357262D01*
X111638614Y-100298297D01*
X111735305Y-100218945D01*
X111814657Y-100122254D01*
X111873622Y-100011940D01*
X111895633Y-99939380D01*
X112027488Y-100071235D01*
X112270709Y-100233750D01*
X112540962Y-100345692D01*
X112827860Y-100402760D01*
X113120380Y-100402760D01*
X113407278Y-100345692D01*
X113677531Y-100233750D01*
X113920752Y-100071235D01*
X114127595Y-99864392D01*
X114290110Y-99621171D01*
X114402052Y-99350918D01*
X114459120Y-99064020D01*
X114459120Y-98771500D01*
X114402052Y-98484602D01*
X114290110Y-98214349D01*
X114127595Y-97971128D01*
X113920752Y-97764285D01*
X113677531Y-97601770D01*
X113407278Y-97489828D01*
X113120380Y-97432760D01*
X112827860Y-97432760D01*
X112540962Y-97489828D01*
X112270709Y-97601770D01*
X112027488Y-97764285D01*
X111895633Y-97896140D01*
X111873622Y-97823580D01*
X111814657Y-97713266D01*
X111735305Y-97616575D01*
X111638614Y-97537223D01*
X111528300Y-97478258D01*
X111408602Y-97441948D01*
X111284120Y-97429688D01*
X109584120Y-97429688D01*
X109459638Y-97441948D01*
X109339940Y-97478258D01*
X109229626Y-97537223D01*
X109132935Y-97616575D01*
X109053583Y-97713266D01*
X108994618Y-97823580D01*
X108958308Y-97943278D01*
X108946048Y-98067760D01*
X102317730Y-98067760D01*
X102309293Y-98025346D01*
X102201120Y-97764193D01*
X102044077Y-97529161D01*
X101844199Y-97329283D01*
X101609167Y-97172240D01*
X101348014Y-97064067D01*
X101322139Y-97058920D01*
X101348014Y-97053773D01*
X101609167Y-96945600D01*
X101844199Y-96788557D01*
X102044077Y-96588679D01*
X102201120Y-96353647D01*
X102309293Y-96092494D01*
X102364440Y-95815255D01*
X102364440Y-95532585D01*
X102309293Y-95255346D01*
X102201120Y-94994193D01*
X102044077Y-94759161D01*
X101844199Y-94559283D01*
X101763539Y-94505388D01*
X103702767Y-92566160D01*
X108540881Y-92566160D01*
X108540880Y-94041136D01*
X108537324Y-94077241D01*
X108547158Y-94177086D01*
X108551515Y-94221325D01*
X108593543Y-94359873D01*
X108661793Y-94487560D01*
X108753642Y-94599478D01*
X108781688Y-94622495D01*
X109018375Y-94859183D01*
X108968719Y-95108820D01*
X108968719Y-95401340D01*
X109025787Y-95688238D01*
X109137729Y-95958491D01*
X109300244Y-96201712D01*
X109507087Y-96408555D01*
X109750308Y-96571070D01*
X110020561Y-96683012D01*
X110307459Y-96740080D01*
X110599979Y-96740080D01*
X110886877Y-96683012D01*
X111157130Y-96571070D01*
X111400351Y-96408555D01*
X111532206Y-96276700D01*
X111554217Y-96349260D01*
X111613182Y-96459574D01*
X111692534Y-96556265D01*
X111789225Y-96635617D01*
X111899539Y-96694582D01*
X112019237Y-96730892D01*
X112143719Y-96743152D01*
X113843719Y-96743152D01*
X113968201Y-96730892D01*
X114087899Y-96694582D01*
X114198213Y-96635617D01*
X114294904Y-96556265D01*
X114374256Y-96459574D01*
X114433221Y-96349260D01*
X114469531Y-96229562D01*
X114481791Y-96105080D01*
X114481791Y-94405080D01*
X114469531Y-94280598D01*
X114433221Y-94160900D01*
X114374256Y-94050586D01*
X114294904Y-93953895D01*
X114198213Y-93874543D01*
X114087899Y-93815578D01*
X113968201Y-93779268D01*
X113843719Y-93767008D01*
X112143719Y-93767008D01*
X112019237Y-93779268D01*
X111899539Y-93815578D01*
X111789225Y-93874543D01*
X111692534Y-93953895D01*
X111613182Y-94050586D01*
X111554217Y-94160900D01*
X111532206Y-94233460D01*
X111400351Y-94101605D01*
X111157130Y-93939090D01*
X110886877Y-93827148D01*
X110599979Y-93770080D01*
X110307459Y-93770080D01*
X110057822Y-93819736D01*
X110010880Y-93772795D01*
X110010880Y-93017923D01*
X110020561Y-93021933D01*
X110307459Y-93079001D01*
X110599979Y-93079001D01*
X110886877Y-93021933D01*
X111157130Y-92909991D01*
X111400351Y-92747476D01*
X111532206Y-92615621D01*
X111554217Y-92688181D01*
X111613182Y-92798495D01*
X111692534Y-92895186D01*
X111789225Y-92974538D01*
X111899539Y-93033503D01*
X112019237Y-93069813D01*
X112143719Y-93082073D01*
X113843719Y-93082073D01*
X113968201Y-93069813D01*
X114087899Y-93033503D01*
X114198213Y-92974538D01*
X114294904Y-92895186D01*
X114374256Y-92798495D01*
X114433221Y-92688181D01*
X114469531Y-92568483D01*
X114481791Y-92444001D01*
X114481791Y-90744001D01*
X114469531Y-90619519D01*
X114433221Y-90499821D01*
X114374256Y-90389507D01*
X114294904Y-90292816D01*
X114198213Y-90213464D01*
X114087899Y-90154499D01*
X113968201Y-90118189D01*
X113843719Y-90105929D01*
X112143719Y-90105929D01*
X112019237Y-90118189D01*
X111899539Y-90154499D01*
X111789225Y-90213464D01*
X111692534Y-90292816D01*
X111613182Y-90389507D01*
X111554217Y-90499821D01*
X111532206Y-90572381D01*
X111400351Y-90440526D01*
X111157130Y-90278011D01*
X110886877Y-90166069D01*
X110599979Y-90109001D01*
X110307459Y-90109001D01*
X110020561Y-90166069D01*
X109750308Y-90278011D01*
X109507087Y-90440526D01*
X109300244Y-90647369D01*
X109167424Y-90846149D01*
X102179403Y-90846149D01*
X102201120Y-90813647D01*
X102309293Y-90552494D01*
X102364440Y-90275255D01*
X102364440Y-89992585D01*
X102322262Y-89780545D01*
X102960567Y-89142240D01*
X106618495Y-89142240D01*
X106654600Y-89145796D01*
X106690705Y-89142240D01*
X106798685Y-89131605D01*
X106937233Y-89089577D01*
X107064920Y-89021327D01*
X107176838Y-88929478D01*
X107199858Y-88901428D01*
X107461967Y-88639320D01*
X109179877Y-88639320D01*
X109321285Y-88850952D01*
X109528128Y-89057795D01*
X109771349Y-89220310D01*
X110041602Y-89332252D01*
X110328500Y-89389320D01*
X110621020Y-89389320D01*
X110907918Y-89332252D01*
X111178171Y-89220310D01*
X111421392Y-89057795D01*
X111553247Y-88925940D01*
X111575258Y-88998500D01*
X111634223Y-89108814D01*
X111713575Y-89205505D01*
X111810266Y-89284857D01*
X111920580Y-89343822D01*
X112040278Y-89380132D01*
X112164760Y-89392392D01*
X113864760Y-89392392D01*
X113989242Y-89380132D01*
X114108940Y-89343822D01*
X114219254Y-89284857D01*
X114315945Y-89205505D01*
X114395297Y-89108814D01*
X114454262Y-88998500D01*
X114490572Y-88878802D01*
X114502832Y-88754320D01*
X114502832Y-87054320D01*
X114490572Y-86929838D01*
X114454262Y-86810140D01*
X114395297Y-86699826D01*
X114315945Y-86603135D01*
X114219254Y-86523783D01*
X114108940Y-86464818D01*
X113989242Y-86428508D01*
X113864760Y-86416248D01*
X112164760Y-86416248D01*
X112040278Y-86428508D01*
X111920580Y-86464818D01*
X111810266Y-86523783D01*
X111713575Y-86603135D01*
X111634223Y-86699826D01*
X111575258Y-86810140D01*
X111553247Y-86882700D01*
X111421392Y-86750845D01*
X111178171Y-86588330D01*
X110907918Y-86476388D01*
X110621020Y-86419320D01*
X110328500Y-86419320D01*
X110041602Y-86476388D01*
X109771349Y-86588330D01*
X109528128Y-86750845D01*
X109321285Y-86957688D01*
X109179877Y-87169320D01*
X108490006Y-87169320D01*
X110033677Y-85625649D01*
X110041602Y-85628932D01*
X110328500Y-85686000D01*
X110621020Y-85686000D01*
X110907918Y-85628932D01*
X111178171Y-85516990D01*
X111421392Y-85354475D01*
X111553247Y-85222620D01*
X111575258Y-85295180D01*
X111634223Y-85405494D01*
X111713575Y-85502185D01*
X111810266Y-85581537D01*
X111920580Y-85640502D01*
X112040278Y-85676812D01*
X112164760Y-85689072D01*
X113864760Y-85689072D01*
X113989242Y-85676812D01*
X114108940Y-85640502D01*
X114219254Y-85581537D01*
X114315945Y-85502185D01*
X114395297Y-85405494D01*
X114454262Y-85295180D01*
X114490572Y-85175482D01*
X114502832Y-85051000D01*
X114502832Y-83351000D01*
X114490572Y-83226518D01*
X114454262Y-83106820D01*
X114395297Y-82996506D01*
X114315945Y-82899815D01*
X114219254Y-82820463D01*
X114108940Y-82761498D01*
X113989242Y-82725188D01*
X113864760Y-82712928D01*
X112164760Y-82712928D01*
X112040278Y-82725188D01*
X111920580Y-82761498D01*
X111810266Y-82820463D01*
X111713575Y-82899815D01*
X111634223Y-82996506D01*
X111575258Y-83106820D01*
X111553247Y-83179380D01*
X111421392Y-83047525D01*
X111178171Y-82885010D01*
X110907918Y-82773068D01*
X110621020Y-82716000D01*
X110328500Y-82716000D01*
X110041602Y-82773068D01*
X109771349Y-82885010D01*
X109528128Y-83047525D01*
X109321285Y-83254368D01*
X109158770Y-83497589D01*
X109046828Y-83767842D01*
X108989760Y-84054740D01*
X108989760Y-84347260D01*
X109030145Y-84550288D01*
X106177434Y-87403000D01*
X101506465Y-87403000D01*
X101470360Y-87399444D01*
X101434255Y-87403000D01*
X101326275Y-87413635D01*
X101187727Y-87455663D01*
X101060040Y-87523913D01*
X100948122Y-87615762D01*
X100925106Y-87643807D01*
X98442816Y-90126098D01*
X98230775Y-90083920D01*
X97948105Y-90083920D01*
X97670866Y-90139067D01*
X97409713Y-90247240D01*
X97174681Y-90404283D01*
X96974803Y-90604161D01*
X96817760Y-90839193D01*
X96709587Y-91100346D01*
X96654440Y-91377585D01*
X96654440Y-91660255D01*
X96709587Y-91937494D01*
X96817760Y-92198647D01*
X96974803Y-92433679D01*
X97174681Y-92633557D01*
X97409713Y-92790600D01*
X97670866Y-92898773D01*
X97696741Y-92903920D01*
X97670866Y-92909067D01*
X97409713Y-93017240D01*
X97174681Y-93174283D01*
X96974803Y-93374161D01*
X96817760Y-93609193D01*
X96709587Y-93870346D01*
X96654440Y-94147585D01*
X96654440Y-94430255D01*
X96709587Y-94707494D01*
X96817760Y-94968647D01*
X96974803Y-95203679D01*
X97174681Y-95403557D01*
X97382494Y-95542413D01*
X97365075Y-95599835D01*
X97350884Y-95743920D01*
X97354440Y-95780026D01*
X97354440Y-95824172D01*
X97174681Y-95944283D01*
X96974803Y-96144161D01*
X96817760Y-96379193D01*
X96709587Y-96640346D01*
X96654440Y-96917585D01*
X96654440Y-97200255D01*
X96709587Y-97477494D01*
X96817760Y-97738647D01*
X96974803Y-97973679D01*
X97174681Y-98173557D01*
X97409713Y-98330600D01*
X97670866Y-98438773D01*
X97696741Y-98443920D01*
X97670866Y-98449067D01*
X97409713Y-98557240D01*
X97174681Y-98714283D01*
X96974803Y-98914161D01*
X96817760Y-99149193D01*
X96709587Y-99410346D01*
X96654440Y-99687585D01*
X96654440Y-99970255D01*
X96709587Y-100247494D01*
X96817760Y-100508647D01*
X96974803Y-100743679D01*
X97174681Y-100943557D01*
X97409713Y-101100600D01*
X97670866Y-101208773D01*
X97948105Y-101263920D01*
X98230775Y-101263920D01*
X98508014Y-101208773D01*
X98769167Y-101100600D01*
X99004199Y-100943557D01*
X99204077Y-100743679D01*
X99324188Y-100563920D01*
X99491368Y-100563920D01*
X99491368Y-102013920D01*
X99503628Y-102138402D01*
X99539938Y-102258100D01*
X99598903Y-102368414D01*
X99678255Y-102465105D01*
X99774946Y-102544457D01*
X99885260Y-102603422D01*
X100004958Y-102639732D01*
X100129440Y-102651992D01*
X101729440Y-102651992D01*
X101853922Y-102639732D01*
X101973620Y-102603422D01*
X102083934Y-102544457D01*
X102180625Y-102465105D01*
X102259977Y-102368414D01*
X102318942Y-102258100D01*
X102355252Y-102138402D01*
X102367512Y-102013920D01*
X102367512Y-101948920D01*
X102651914Y-101948920D01*
X109456163Y-108753170D01*
X109285725Y-108923608D01*
X109123210Y-109166829D01*
X109011268Y-109437082D01*
X108954200Y-109723980D01*
X108954200Y-110016500D01*
X109011268Y-110303398D01*
X109123210Y-110573651D01*
X109285725Y-110816872D01*
X109487573Y-111018720D01*
X93832280Y-111018720D01*
X93832280Y-110021419D01*
X98961546Y-110021419D01*
X99177668Y-110388178D01*
X99637545Y-110628858D01*
X100135538Y-110775195D01*
X100652511Y-110821568D01*
X101168599Y-110766193D01*
X101663966Y-110611199D01*
X102081212Y-110388178D01*
X102297334Y-110021419D01*
X100629440Y-108353525D01*
X98961546Y-110021419D01*
X93832280Y-110021419D01*
X93832280Y-108196991D01*
X97981792Y-108196991D01*
X98037167Y-108713079D01*
X98192161Y-109208446D01*
X98415182Y-109625692D01*
X98781941Y-109841814D01*
X100449835Y-108173920D01*
X100809045Y-108173920D01*
X102476939Y-109841814D01*
X102843698Y-109625692D01*
X103084378Y-109165815D01*
X103230715Y-108667822D01*
X103277088Y-108150849D01*
X103221713Y-107634761D01*
X103066719Y-107139394D01*
X102843698Y-106722148D01*
X102476939Y-106506026D01*
X100809045Y-108173920D01*
X100449835Y-108173920D01*
X98781941Y-106506026D01*
X98415182Y-106722148D01*
X98174502Y-107182025D01*
X98028165Y-107680018D01*
X97981792Y-108196991D01*
X93832280Y-108196991D01*
X93832280Y-106326421D01*
X98961546Y-106326421D01*
X100629440Y-107994315D01*
X102297334Y-106326421D01*
X102081212Y-105959662D01*
X101621335Y-105718982D01*
X101123342Y-105572645D01*
X100606369Y-105526272D01*
X100090281Y-105581647D01*
X99594914Y-105736641D01*
X99177668Y-105959662D01*
X98961546Y-106326421D01*
X93832280Y-106326421D01*
X93832280Y-85021419D01*
X98961546Y-85021419D01*
X99177668Y-85388178D01*
X99637545Y-85628858D01*
X100135538Y-85775195D01*
X100652511Y-85821568D01*
X101168599Y-85766193D01*
X101663966Y-85611199D01*
X102081212Y-85388178D01*
X102297334Y-85021419D01*
X100629440Y-83353525D01*
X98961546Y-85021419D01*
X93832280Y-85021419D01*
X93832280Y-83196991D01*
X97981792Y-83196991D01*
X98037167Y-83713079D01*
X98192161Y-84208446D01*
X98415182Y-84625692D01*
X98781941Y-84841814D01*
X100449835Y-83173920D01*
X100809045Y-83173920D01*
X102476939Y-84841814D01*
X102843698Y-84625692D01*
X103084378Y-84165815D01*
X103230715Y-83667822D01*
X103277088Y-83150849D01*
X103221713Y-82634761D01*
X103066719Y-82139394D01*
X102843698Y-81722148D01*
X102476939Y-81506026D01*
X100809045Y-83173920D01*
X100449835Y-83173920D01*
X98781941Y-81506026D01*
X98415182Y-81722148D01*
X98174502Y-82182025D01*
X98028165Y-82680018D01*
X97981792Y-83196991D01*
X93832280Y-83196991D01*
X93832280Y-80720800D01*
X99645542Y-80720800D01*
X99594914Y-80736641D01*
G37*
%TD.AperFunction*%
%TD*%
M02*
