%TF.GenerationSoftware,KiCad,Pcbnew,(5.1.10-1-10_14)*%
%TF.CreationDate,2021-07-19T20:00:40-07:00*%
%TF.ProjectId,XDS-Analog-to-StudioHub,5844532d-416e-4616-9c6f-672d746f2d53,rev?*%
%TF.SameCoordinates,Original*%
%TF.FileFunction,Legend,Top*%
%TF.FilePolarity,Positive*%
%FSLAX46Y46*%
G04 Gerber Fmt 4.6, Leading zero omitted, Abs format (unit mm)*
G04 Created by KiCad (PCBNEW (5.1.10-1-10_14)) date 2021-07-19 20:00:40*
%MOMM*%
%LPD*%
G01*
G04 APERTURE LIST*
%ADD10C,0.150000*%
%ADD11C,0.120000*%
G04 APERTURE END LIST*
D10*
X116522619Y-96591380D02*
X116522619Y-95591380D01*
X116855952Y-96305666D01*
X117189285Y-95591380D01*
X117189285Y-96591380D01*
X117665476Y-96210428D02*
X118427380Y-96210428D01*
X120078619Y-96591380D02*
X120078619Y-95591380D01*
X120411952Y-96305666D01*
X120745285Y-95591380D01*
X120745285Y-96591380D01*
X121221476Y-96210428D02*
X121983380Y-96210428D01*
X121602428Y-96591380D02*
X121602428Y-95829476D01*
D11*
%TO.C,JP11*%
X109795000Y-90750080D02*
X109795000Y-93410080D01*
X112395000Y-90750080D02*
X109795000Y-90750080D01*
X112395000Y-93410080D02*
X109795000Y-93410080D01*
X112395000Y-90750080D02*
X112395000Y-93410080D01*
X113665000Y-90750080D02*
X114995000Y-90750080D01*
X114995000Y-90750080D02*
X114995000Y-92080080D01*
%TO.C,J1*%
X139428000Y-87442000D02*
X139428000Y-104082000D01*
X139428000Y-87397000D02*
X131818000Y-87397000D01*
X139428000Y-104127000D02*
X131818000Y-104127000D01*
X123458000Y-87442000D02*
X123458000Y-104127000D01*
X123458000Y-87397000D02*
X129018000Y-87397000D01*
X123458000Y-104127000D02*
X129018000Y-104127000D01*
X132018000Y-87202000D02*
X131518000Y-86702000D01*
X131518000Y-86702000D02*
X132518000Y-86702000D01*
X132518000Y-86702000D02*
X132018000Y-87202000D01*
%TO.C,JP8*%
X109795000Y-101794000D02*
X109795000Y-104454000D01*
X112395000Y-101794000D02*
X109795000Y-101794000D01*
X112395000Y-104454000D02*
X109795000Y-104454000D01*
X112395000Y-101794000D02*
X112395000Y-104454000D01*
X113665000Y-101794000D02*
X114995000Y-101794000D01*
X114995000Y-101794000D02*
X114995000Y-103124000D01*
%TO.C,J2*%
X93209440Y-80188920D02*
X103689440Y-80188920D01*
X103689440Y-80188920D02*
X103689440Y-111158920D01*
X103689440Y-111158920D02*
X93209440Y-111158920D01*
X104583778Y-100963920D02*
X104583778Y-101463920D01*
X104583778Y-101463920D02*
X104150765Y-101213920D01*
X104150765Y-101213920D02*
X104583778Y-100963920D01*
%TO.C,JP5*%
X122361000Y-104454000D02*
X121031000Y-104454000D01*
X122361000Y-103124000D02*
X122361000Y-104454000D01*
X122361000Y-101854000D02*
X119701000Y-101854000D01*
X119701000Y-101854000D02*
X119701000Y-99254000D01*
X122361000Y-101854000D02*
X122361000Y-99254000D01*
X122361000Y-99254000D02*
X119701000Y-99254000D01*
%TO.C,JP6*%
X114995000Y-94428000D02*
X114995000Y-95758000D01*
X113665000Y-94428000D02*
X114995000Y-94428000D01*
X112395000Y-94428000D02*
X112395000Y-97088000D01*
X112395000Y-97088000D02*
X109795000Y-97088000D01*
X112395000Y-94428000D02*
X109795000Y-94428000D01*
X109795000Y-94428000D02*
X109795000Y-97088000D01*
%TO.C,JP7*%
X109795000Y-98111000D02*
X109795000Y-100771000D01*
X112395000Y-98111000D02*
X109795000Y-98111000D01*
X112395000Y-100771000D02*
X109795000Y-100771000D01*
X112395000Y-98111000D02*
X112395000Y-100771000D01*
X113665000Y-98111000D02*
X114995000Y-98111000D01*
X114995000Y-98111000D02*
X114995000Y-99441000D01*
%TO.C,JP9*%
X118678000Y-99254000D02*
X116018000Y-99254000D01*
X118678000Y-101854000D02*
X118678000Y-99254000D01*
X116018000Y-101854000D02*
X116018000Y-99254000D01*
X118678000Y-101854000D02*
X116018000Y-101854000D01*
X118678000Y-103124000D02*
X118678000Y-104454000D01*
X118678000Y-104454000D02*
X117348000Y-104454000D01*
%TO.C,JP10*%
X114995000Y-87089001D02*
X114995000Y-88419001D01*
X113665000Y-87089001D02*
X114995000Y-87089001D01*
X112395000Y-87089001D02*
X112395000Y-89749001D01*
X112395000Y-89749001D02*
X109795000Y-89749001D01*
X112395000Y-87089001D02*
X109795000Y-87089001D01*
X109795000Y-87089001D02*
X109795000Y-89749001D01*
%TO.C,R+*%
X119701000Y-87062000D02*
X121031000Y-87062000D01*
X119701000Y-88392000D02*
X119701000Y-87062000D01*
X119701000Y-89662000D02*
X122361000Y-89662000D01*
X122361000Y-89662000D02*
X122361000Y-94802000D01*
X119701000Y-89662000D02*
X119701000Y-94802000D01*
X119701000Y-94802000D02*
X122361000Y-94802000D01*
%TO.C,R-*%
X116018000Y-94802000D02*
X118678000Y-94802000D01*
X116018000Y-89662000D02*
X116018000Y-94802000D01*
X118678000Y-89662000D02*
X118678000Y-94802000D01*
X116018000Y-89662000D02*
X118678000Y-89662000D01*
X116018000Y-88392000D02*
X116018000Y-87062000D01*
X116018000Y-87062000D02*
X117348000Y-87062000D01*
%TO.C,JP11*%
D10*
X105512511Y-92705180D02*
X105036321Y-92705180D01*
X105036321Y-91705180D01*
X105845844Y-92324228D02*
X106607749Y-92324228D01*
X106226797Y-92705180D02*
X106226797Y-91943276D01*
X107036321Y-92419466D02*
X107512511Y-92419466D01*
X106941082Y-92705180D02*
X107274416Y-91705180D01*
X107607749Y-92705180D01*
X108417273Y-92705180D02*
X107941082Y-92705180D01*
X107941082Y-91705180D01*
X108607749Y-91705180D02*
X109179178Y-91705180D01*
X108893463Y-92705180D02*
X108893463Y-91705180D01*
%TO.C,JP8*%
X104632428Y-103782761D02*
X104775285Y-103830380D01*
X105013380Y-103830380D01*
X105108619Y-103782761D01*
X105156238Y-103735142D01*
X105203857Y-103639904D01*
X105203857Y-103544666D01*
X105156238Y-103449428D01*
X105108619Y-103401809D01*
X105013380Y-103354190D01*
X104822904Y-103306571D01*
X104727666Y-103258952D01*
X104680047Y-103211333D01*
X104632428Y-103116095D01*
X104632428Y-103020857D01*
X104680047Y-102925619D01*
X104727666Y-102878000D01*
X104822904Y-102830380D01*
X105061000Y-102830380D01*
X105203857Y-102878000D01*
X105632428Y-103830380D02*
X105632428Y-102830380D01*
X105632428Y-103306571D02*
X106203857Y-103306571D01*
X106203857Y-103830380D02*
X106203857Y-102830380D01*
X106680047Y-103449428D02*
X107441952Y-103449428D01*
X107870523Y-103782761D02*
X108013380Y-103830380D01*
X108251476Y-103830380D01*
X108346714Y-103782761D01*
X108394333Y-103735142D01*
X108441952Y-103639904D01*
X108441952Y-103544666D01*
X108394333Y-103449428D01*
X108346714Y-103401809D01*
X108251476Y-103354190D01*
X108061000Y-103306571D01*
X107965761Y-103258952D01*
X107918142Y-103211333D01*
X107870523Y-103116095D01*
X107870523Y-103020857D01*
X107918142Y-102925619D01*
X107965761Y-102878000D01*
X108061000Y-102830380D01*
X108299095Y-102830380D01*
X108441952Y-102878000D01*
X108870523Y-103830380D02*
X108870523Y-102830380D01*
X108870523Y-103306571D02*
X109441952Y-103306571D01*
X109441952Y-103830380D02*
X109441952Y-102830380D01*
%TO.C,JP5*%
X120300857Y-105291000D02*
X120205619Y-105243380D01*
X120062761Y-105243380D01*
X119919904Y-105291000D01*
X119824666Y-105386238D01*
X119777047Y-105481476D01*
X119729428Y-105671952D01*
X119729428Y-105814809D01*
X119777047Y-106005285D01*
X119824666Y-106100523D01*
X119919904Y-106195761D01*
X120062761Y-106243380D01*
X120158000Y-106243380D01*
X120300857Y-106195761D01*
X120348476Y-106148142D01*
X120348476Y-105814809D01*
X120158000Y-105814809D01*
X120777047Y-105862428D02*
X121538952Y-105862428D01*
X122538952Y-105291000D02*
X122443714Y-105243380D01*
X122300857Y-105243380D01*
X122158000Y-105291000D01*
X122062761Y-105386238D01*
X122015142Y-105481476D01*
X121967523Y-105671952D01*
X121967523Y-105814809D01*
X122015142Y-106005285D01*
X122062761Y-106100523D01*
X122158000Y-106195761D01*
X122300857Y-106243380D01*
X122396095Y-106243380D01*
X122538952Y-106195761D01*
X122586571Y-106148142D01*
X122586571Y-105814809D01*
X122396095Y-105814809D01*
%TO.C,JP6*%
X107767476Y-96210380D02*
X107291285Y-96210380D01*
X107291285Y-95210380D01*
X108100809Y-95829428D02*
X108862714Y-95829428D01*
%TO.C,JP7*%
X107879236Y-99888300D02*
X107403045Y-99888300D01*
X107403045Y-98888300D01*
X108212569Y-99507348D02*
X108974474Y-99507348D01*
X108593521Y-99888300D02*
X108593521Y-99126396D01*
%TO.C,JP9*%
X115609857Y-105291000D02*
X115514619Y-105243380D01*
X115371761Y-105243380D01*
X115228904Y-105291000D01*
X115133666Y-105386238D01*
X115086047Y-105481476D01*
X115038428Y-105671952D01*
X115038428Y-105814809D01*
X115086047Y-106005285D01*
X115133666Y-106100523D01*
X115228904Y-106195761D01*
X115371761Y-106243380D01*
X115467000Y-106243380D01*
X115609857Y-106195761D01*
X115657476Y-106148142D01*
X115657476Y-105814809D01*
X115467000Y-105814809D01*
X116086047Y-105862428D02*
X116847952Y-105862428D01*
X117276523Y-106195761D02*
X117419380Y-106243380D01*
X117657476Y-106243380D01*
X117752714Y-106195761D01*
X117800333Y-106148142D01*
X117847952Y-106052904D01*
X117847952Y-105957666D01*
X117800333Y-105862428D01*
X117752714Y-105814809D01*
X117657476Y-105767190D01*
X117467000Y-105719571D01*
X117371761Y-105671952D01*
X117324142Y-105624333D01*
X117276523Y-105529095D01*
X117276523Y-105433857D01*
X117324142Y-105338619D01*
X117371761Y-105291000D01*
X117467000Y-105243380D01*
X117705095Y-105243380D01*
X117847952Y-105291000D01*
X118276523Y-106243380D02*
X118276523Y-105243380D01*
X118276523Y-105719571D02*
X118847952Y-105719571D01*
X118847952Y-106243380D02*
X118847952Y-105243380D01*
%TO.C,JP10*%
X105553151Y-89067900D02*
X105076961Y-89067900D01*
X105076961Y-88067900D01*
X105886484Y-88686948D02*
X106648389Y-88686948D01*
X107076961Y-88782186D02*
X107553151Y-88782186D01*
X106981722Y-89067900D02*
X107315056Y-88067900D01*
X107648389Y-89067900D01*
X108457913Y-89067900D02*
X107981722Y-89067900D01*
X107981722Y-88067900D01*
X108648389Y-88067900D02*
X109219818Y-88067900D01*
X108934103Y-89067900D02*
X108934103Y-88067900D01*
%TO.C,R+*%
X120721476Y-86514380D02*
X120388142Y-86038190D01*
X120150047Y-86514380D02*
X120150047Y-85514380D01*
X120531000Y-85514380D01*
X120626238Y-85562000D01*
X120673857Y-85609619D01*
X120721476Y-85704857D01*
X120721476Y-85847714D01*
X120673857Y-85942952D01*
X120626238Y-85990571D01*
X120531000Y-86038190D01*
X120150047Y-86038190D01*
X121150047Y-86133428D02*
X121911952Y-86133428D01*
X121531000Y-86514380D02*
X121531000Y-85752476D01*
%TO.C,R-*%
X117038476Y-86514380D02*
X116705142Y-86038190D01*
X116467047Y-86514380D02*
X116467047Y-85514380D01*
X116848000Y-85514380D01*
X116943238Y-85562000D01*
X116990857Y-85609619D01*
X117038476Y-85704857D01*
X117038476Y-85847714D01*
X116990857Y-85942952D01*
X116943238Y-85990571D01*
X116848000Y-86038190D01*
X116467047Y-86038190D01*
X117467047Y-86133428D02*
X118228952Y-86133428D01*
%TD*%
M02*
