M48
; DRILL file {KiCad (5.1.10-1-10_14)} date Monday, July 19, 2021 at 08:00:43 PM
; FORMAT={-:-/ absolute / metric / decimal}
; #@! TF.CreationDate,2021-07-19T20:00:43-07:00
; #@! TF.GenerationSoftware,Kicad,Pcbnew,(5.1.10-1-10_14)
; #@! TF.FileFunction,Plated,1,2,PTH
FMAT,2
METRIC
T1C0.890
T2C1.000
T3C1.570
T4C3.200
%
G90
G05
T1
X129.538Y-93.218
X129.538Y-95.25
X129.538Y-97.282
X129.538Y-99.314
X131.318Y-92.202
X131.318Y-94.234
X131.318Y-96.266
X131.318Y-98.298
T2
X98.089Y-91.519
X98.089Y-94.289
X98.089Y-97.059
X98.089Y-99.829
X100.929Y-90.134
X100.929Y-92.904
X100.929Y-95.674
X100.929Y-98.444
X100.929Y-101.214
X111.125Y-88.419
X111.125Y-92.08
X111.125Y-95.758
X111.125Y-99.441
X111.125Y-103.124
X113.665Y-88.419
X113.665Y-92.08
X113.665Y-95.758
X113.665Y-99.441
X113.665Y-103.124
X117.348Y-88.392
X117.348Y-90.932
X117.348Y-93.472
X117.348Y-100.584
X117.348Y-103.124
X121.031Y-88.392
X121.031Y-90.932
X121.031Y-93.472
X121.031Y-100.584
X121.031Y-103.124
T3
X130.428Y-87.632
X130.428Y-103.892
T4
X100.629Y-83.174
X100.629Y-108.174
T0
M30
