%TF.GenerationSoftware,KiCad,Pcbnew,(5.1.10-1-10_14)*%
%TF.CreationDate,2021-06-16T22:39:50-07:00*%
%TF.ProjectId,XDS-Analog-to-StudioHub,5844532d-416e-4616-9c6f-672d746f2d53,rev?*%
%TF.SameCoordinates,Original*%
%TF.FileFunction,Legend,Bot*%
%TF.FilePolarity,Positive*%
%FSLAX46Y46*%
G04 Gerber Fmt 4.6, Leading zero omitted, Abs format (unit mm)*
G04 Created by KiCad (PCBNEW (5.1.10-1-10_14)) date 2021-06-16 22:39:50*
%MOMM*%
%LPD*%
G01*
G04 APERTURE LIST*
%ADD10C,0.300000*%
G04 APERTURE END LIST*
D10*
X129268382Y-89486908D02*
X129339811Y-89701194D01*
X129339811Y-90058337D01*
X129268382Y-90201194D01*
X129196954Y-90272622D01*
X129054097Y-90344051D01*
X128911240Y-90344051D01*
X128768382Y-90272622D01*
X128696954Y-90201194D01*
X128625525Y-90058337D01*
X128554097Y-89772622D01*
X128482668Y-89629765D01*
X128411240Y-89558337D01*
X128268382Y-89486908D01*
X128125525Y-89486908D01*
X127982668Y-89558337D01*
X127911240Y-89629765D01*
X127839811Y-89772622D01*
X127839811Y-90129765D01*
X127911240Y-90344051D01*
X128339811Y-90772622D02*
X128339811Y-91344051D01*
X127839811Y-90986908D02*
X129125525Y-90986908D01*
X129268382Y-91058337D01*
X129339811Y-91201194D01*
X129339811Y-91344051D01*
X129268382Y-92415480D02*
X129339811Y-92272622D01*
X129339811Y-91986908D01*
X129268382Y-91844051D01*
X129125525Y-91772622D01*
X128554097Y-91772622D01*
X128411240Y-91844051D01*
X128339811Y-91986908D01*
X128339811Y-92272622D01*
X128411240Y-92415480D01*
X128554097Y-92486908D01*
X128696954Y-92486908D01*
X128839811Y-91772622D01*
X128339811Y-92986908D02*
X129339811Y-93344051D01*
X128339811Y-93701194D01*
X129268382Y-94844051D02*
X129339811Y-94701194D01*
X129339811Y-94415480D01*
X129268382Y-94272622D01*
X129125525Y-94201194D01*
X128554097Y-94201194D01*
X128411240Y-94272622D01*
X128339811Y-94415480D01*
X128339811Y-94701194D01*
X128411240Y-94844051D01*
X128554097Y-94915480D01*
X128696954Y-94915480D01*
X128839811Y-94201194D01*
X129339811Y-97558337D02*
X128625525Y-97058337D01*
X129339811Y-96701194D02*
X127839811Y-96701194D01*
X127839811Y-97272622D01*
X127911240Y-97415480D01*
X127982668Y-97486908D01*
X128125525Y-97558337D01*
X128339811Y-97558337D01*
X128482668Y-97486908D01*
X128554097Y-97415480D01*
X128625525Y-97272622D01*
X128625525Y-96701194D01*
X128339811Y-98844051D02*
X129339811Y-98844051D01*
X128339811Y-98201194D02*
X129125525Y-98201194D01*
X129268382Y-98272622D01*
X129339811Y-98415480D01*
X129339811Y-98629765D01*
X129268382Y-98772622D01*
X129196954Y-98844051D01*
X129339811Y-99558337D02*
X127839811Y-99558337D01*
X128411240Y-99558337D02*
X128339811Y-99701194D01*
X128339811Y-99986908D01*
X128411240Y-100129765D01*
X128482668Y-100201194D01*
X128625525Y-100272622D01*
X129054097Y-100272622D01*
X129196954Y-100201194D01*
X129268382Y-100129765D01*
X129339811Y-99986908D01*
X129339811Y-99701194D01*
X129268382Y-99558337D01*
X129339811Y-100915480D02*
X128339811Y-100915480D01*
X127839811Y-100915480D02*
X127911240Y-100844051D01*
X127982668Y-100915480D01*
X127911240Y-100986908D01*
X127839811Y-100915480D01*
X127982668Y-100915480D01*
X128339811Y-101629765D02*
X129339811Y-101629765D01*
X128482668Y-101629765D02*
X128411240Y-101701194D01*
X128339811Y-101844051D01*
X128339811Y-102058337D01*
X128411240Y-102201194D01*
X128554097Y-102272622D01*
X129339811Y-102272622D01*
X131818382Y-80736908D02*
X131889811Y-80879765D01*
X131889811Y-81165480D01*
X131818382Y-81308337D01*
X131675525Y-81379765D01*
X131604097Y-81379765D01*
X131461240Y-81308337D01*
X131389811Y-81165480D01*
X131389811Y-80951194D01*
X131318382Y-80808337D01*
X131175525Y-80736908D01*
X131104097Y-80736908D01*
X130961240Y-80808337D01*
X130889811Y-80951194D01*
X130889811Y-81165480D01*
X130961240Y-81308337D01*
X131818382Y-82594051D02*
X131889811Y-82451194D01*
X131889811Y-82165480D01*
X131818382Y-82022622D01*
X131675525Y-81951194D01*
X131104097Y-81951194D01*
X130961240Y-82022622D01*
X130889811Y-82165480D01*
X130889811Y-82451194D01*
X130961240Y-82594051D01*
X131104097Y-82665480D01*
X131246954Y-82665480D01*
X131389811Y-81951194D01*
X131889811Y-83308337D02*
X130889811Y-83308337D01*
X131175525Y-83308337D02*
X131032668Y-83379765D01*
X130961240Y-83451194D01*
X130889811Y-83594051D01*
X130889811Y-83736908D01*
X131175525Y-85165480D02*
X131104097Y-85094051D01*
X131032668Y-84951194D01*
X131032668Y-84808337D01*
X131104097Y-84665480D01*
X131175525Y-84594051D01*
X131318382Y-84522622D01*
X131461240Y-84522622D01*
X131604097Y-84594051D01*
X131675525Y-84665480D01*
X131746954Y-84808337D01*
X131746954Y-84951194D01*
X131675525Y-85094051D01*
X131604097Y-85165480D01*
X131032668Y-85165480D02*
X131604097Y-85165480D01*
X131675525Y-85236908D01*
X131675525Y-85308337D01*
X131604097Y-85451194D01*
X131461240Y-85522622D01*
X131104097Y-85522622D01*
X130889811Y-85379765D01*
X130746954Y-85165480D01*
X130675525Y-84879765D01*
X130746954Y-84594051D01*
X130889811Y-84379765D01*
X131104097Y-84236908D01*
X131389811Y-84165480D01*
X131675525Y-84236908D01*
X131889811Y-84379765D01*
X132032668Y-84594051D01*
X132104097Y-84879765D01*
X132032668Y-85165480D01*
X131889811Y-85379765D01*
X131889811Y-86165480D02*
X130889811Y-86165480D01*
X131175525Y-86165480D02*
X131032668Y-86236908D01*
X130961240Y-86308337D01*
X130889811Y-86451194D01*
X130889811Y-86594051D01*
X130889811Y-87736908D02*
X131889811Y-87736908D01*
X130889811Y-87094051D02*
X131675525Y-87094051D01*
X131818382Y-87165480D01*
X131889811Y-87308337D01*
X131889811Y-87522622D01*
X131818382Y-87665480D01*
X131746954Y-87736908D01*
X131889811Y-88451194D02*
X130389811Y-88451194D01*
X130961240Y-88451194D02*
X130889811Y-88594051D01*
X130889811Y-88879765D01*
X130961240Y-89022622D01*
X131032668Y-89094051D01*
X131175525Y-89165480D01*
X131604097Y-89165480D01*
X131746954Y-89094051D01*
X131818382Y-89022622D01*
X131889811Y-88879765D01*
X131889811Y-88594051D01*
X131818382Y-88451194D01*
X131889811Y-89808337D02*
X130889811Y-89808337D01*
X130389811Y-89808337D02*
X130461240Y-89736908D01*
X130532668Y-89808337D01*
X130461240Y-89879765D01*
X130389811Y-89808337D01*
X130532668Y-89808337D01*
X130889811Y-90522622D02*
X131889811Y-90522622D01*
X131032668Y-90522622D02*
X130961240Y-90594051D01*
X130889811Y-90736908D01*
X130889811Y-90951194D01*
X130961240Y-91094051D01*
X131104097Y-91165480D01*
X131889811Y-91165480D01*
X131889811Y-91879765D02*
X130389811Y-91879765D01*
X130961240Y-91879765D02*
X130889811Y-92022622D01*
X130889811Y-92308337D01*
X130961240Y-92451194D01*
X131032668Y-92522622D01*
X131175525Y-92594051D01*
X131604097Y-92594051D01*
X131746954Y-92522622D01*
X131818382Y-92451194D01*
X131889811Y-92308337D01*
X131889811Y-92022622D01*
X131818382Y-91879765D01*
X131889811Y-93236908D02*
X130889811Y-93236908D01*
X131175525Y-93236908D02*
X131032668Y-93308337D01*
X130961240Y-93379765D01*
X130889811Y-93522622D01*
X130889811Y-93665480D01*
X131889811Y-94379765D02*
X131818382Y-94236908D01*
X131746954Y-94165480D01*
X131604097Y-94094051D01*
X131175525Y-94094051D01*
X131032668Y-94165480D01*
X130961240Y-94236908D01*
X130889811Y-94379765D01*
X130889811Y-94594051D01*
X130961240Y-94736908D01*
X131032668Y-94808337D01*
X131175525Y-94879765D01*
X131604097Y-94879765D01*
X131746954Y-94808337D01*
X131818382Y-94736908D01*
X131889811Y-94594051D01*
X131889811Y-94379765D01*
X131889811Y-96165480D02*
X131104097Y-96165480D01*
X130961240Y-96094051D01*
X130889811Y-95951194D01*
X130889811Y-95665480D01*
X130961240Y-95522622D01*
X131818382Y-96165480D02*
X131889811Y-96022622D01*
X131889811Y-95665480D01*
X131818382Y-95522622D01*
X131675525Y-95451194D01*
X131532668Y-95451194D01*
X131389811Y-95522622D01*
X131318382Y-95665480D01*
X131318382Y-96022622D01*
X131246954Y-96165480D01*
X131889811Y-97522622D02*
X130389811Y-97522622D01*
X131818382Y-97522622D02*
X131889811Y-97379765D01*
X131889811Y-97094051D01*
X131818382Y-96951194D01*
X131746954Y-96879765D01*
X131604097Y-96808337D01*
X131175525Y-96808337D01*
X131032668Y-96879765D01*
X130961240Y-96951194D01*
X130889811Y-97094051D01*
X130889811Y-97379765D01*
X130961240Y-97522622D01*
X131818382Y-98879765D02*
X131889811Y-98736908D01*
X131889811Y-98451194D01*
X131818382Y-98308337D01*
X131746954Y-98236908D01*
X131604097Y-98165480D01*
X131175525Y-98165480D01*
X131032668Y-98236908D01*
X130961240Y-98308337D01*
X130889811Y-98451194D01*
X130889811Y-98736908D01*
X130961240Y-98879765D01*
X131889811Y-100165480D02*
X131104097Y-100165480D01*
X130961240Y-100094051D01*
X130889811Y-99951194D01*
X130889811Y-99665480D01*
X130961240Y-99522622D01*
X131818382Y-100165480D02*
X131889811Y-100022622D01*
X131889811Y-99665480D01*
X131818382Y-99522622D01*
X131675525Y-99451194D01*
X131532668Y-99451194D01*
X131389811Y-99522622D01*
X131318382Y-99665480D01*
X131318382Y-100022622D01*
X131246954Y-100165480D01*
X131818382Y-100808337D02*
X131889811Y-100951194D01*
X131889811Y-101236908D01*
X131818382Y-101379765D01*
X131675525Y-101451194D01*
X131604097Y-101451194D01*
X131461240Y-101379765D01*
X131389811Y-101236908D01*
X131389811Y-101022622D01*
X131318382Y-100879765D01*
X131175525Y-100808337D01*
X131104097Y-100808337D01*
X130961240Y-100879765D01*
X130889811Y-101022622D01*
X130889811Y-101236908D01*
X130961240Y-101379765D01*
X130889811Y-101879765D02*
X130889811Y-102451194D01*
X130389811Y-102094051D02*
X131675525Y-102094051D01*
X131818382Y-102165480D01*
X131889811Y-102308337D01*
X131889811Y-102451194D01*
X131889811Y-102951194D02*
X130889811Y-102951194D01*
X130389811Y-102951194D02*
X130461240Y-102879765D01*
X130532668Y-102951194D01*
X130461240Y-103022622D01*
X130389811Y-102951194D01*
X130532668Y-102951194D01*
X130889811Y-103665480D02*
X131889811Y-103665480D01*
X131032668Y-103665480D02*
X130961240Y-103736908D01*
X130889811Y-103879765D01*
X130889811Y-104094051D01*
X130961240Y-104236908D01*
X131104097Y-104308337D01*
X131889811Y-104308337D01*
X130889811Y-105665480D02*
X132104097Y-105665480D01*
X132246954Y-105594051D01*
X132318382Y-105522622D01*
X132389811Y-105379765D01*
X132389811Y-105165480D01*
X132318382Y-105022622D01*
X131818382Y-105665480D02*
X131889811Y-105522622D01*
X131889811Y-105236908D01*
X131818382Y-105094051D01*
X131746954Y-105022622D01*
X131604097Y-104951194D01*
X131175525Y-104951194D01*
X131032668Y-105022622D01*
X130961240Y-105094051D01*
X130889811Y-105236908D01*
X130889811Y-105522622D01*
X130961240Y-105665480D01*
X131746954Y-106379765D02*
X131818382Y-106451194D01*
X131889811Y-106379765D01*
X131818382Y-106308337D01*
X131746954Y-106379765D01*
X131889811Y-106379765D01*
X131818382Y-107736908D02*
X131889811Y-107594051D01*
X131889811Y-107308337D01*
X131818382Y-107165480D01*
X131746954Y-107094051D01*
X131604097Y-107022622D01*
X131175525Y-107022622D01*
X131032668Y-107094051D01*
X130961240Y-107165480D01*
X130889811Y-107308337D01*
X130889811Y-107594051D01*
X130961240Y-107736908D01*
X131889811Y-108594051D02*
X131818382Y-108451194D01*
X131746954Y-108379765D01*
X131604097Y-108308337D01*
X131175525Y-108308337D01*
X131032668Y-108379765D01*
X130961240Y-108451194D01*
X130889811Y-108594051D01*
X130889811Y-108808337D01*
X130961240Y-108951194D01*
X131032668Y-109022622D01*
X131175525Y-109094051D01*
X131604097Y-109094051D01*
X131746954Y-109022622D01*
X131818382Y-108951194D01*
X131889811Y-108808337D01*
X131889811Y-108594051D01*
X131889811Y-109736908D02*
X130889811Y-109736908D01*
X131032668Y-109736908D02*
X130961240Y-109808337D01*
X130889811Y-109951194D01*
X130889811Y-110165480D01*
X130961240Y-110308337D01*
X131104097Y-110379765D01*
X131889811Y-110379765D01*
X131104097Y-110379765D02*
X130961240Y-110451194D01*
X130889811Y-110594051D01*
X130889811Y-110808337D01*
X130961240Y-110951194D01*
X131104097Y-111022622D01*
X131889811Y-111022622D01*
X95867611Y-89422874D02*
X95153325Y-88922874D01*
X95867611Y-88565731D02*
X94367611Y-88565731D01*
X94367611Y-89137160D01*
X94439040Y-89280017D01*
X94510468Y-89351445D01*
X94653325Y-89422874D01*
X94867611Y-89422874D01*
X95010468Y-89351445D01*
X95081897Y-89280017D01*
X95153325Y-89137160D01*
X95153325Y-88565731D01*
X94367611Y-90494302D02*
X95439040Y-90494302D01*
X95653325Y-90422874D01*
X95796182Y-90280017D01*
X95867611Y-90065731D01*
X95867611Y-89922874D01*
X94867611Y-91851445D02*
X95867611Y-91851445D01*
X94296182Y-91494302D02*
X95367611Y-91137160D01*
X95367611Y-92065731D01*
X94367611Y-93351445D02*
X94367611Y-92637160D01*
X95081897Y-92565731D01*
X95010468Y-92637160D01*
X94939040Y-92780017D01*
X94939040Y-93137160D01*
X95010468Y-93280017D01*
X95081897Y-93351445D01*
X95224754Y-93422874D01*
X95581897Y-93422874D01*
X95724754Y-93351445D01*
X95796182Y-93280017D01*
X95867611Y-93137160D01*
X95867611Y-92780017D01*
X95796182Y-92637160D01*
X95724754Y-92565731D01*
X94867611Y-94994302D02*
X94867611Y-95565731D01*
X94367611Y-95208588D02*
X95653325Y-95208588D01*
X95796182Y-95280017D01*
X95867611Y-95422874D01*
X95867611Y-95565731D01*
X95867611Y-96280017D02*
X95796182Y-96137160D01*
X95724754Y-96065731D01*
X95581897Y-95994302D01*
X95153325Y-95994302D01*
X95010468Y-96065731D01*
X94939040Y-96137160D01*
X94867611Y-96280017D01*
X94867611Y-96494302D01*
X94939040Y-96637160D01*
X95010468Y-96708588D01*
X95153325Y-96780017D01*
X95581897Y-96780017D01*
X95724754Y-96708588D01*
X95796182Y-96637160D01*
X95867611Y-96494302D01*
X95867611Y-96280017D01*
X94367611Y-98422874D02*
X95867611Y-99422874D01*
X94367611Y-99422874D02*
X95867611Y-98422874D01*
X95867611Y-99994302D02*
X94367611Y-99994302D01*
X94367611Y-100351445D01*
X94439040Y-100565731D01*
X94581897Y-100708588D01*
X94724754Y-100780017D01*
X95010468Y-100851445D01*
X95224754Y-100851445D01*
X95510468Y-100780017D01*
X95653325Y-100708588D01*
X95796182Y-100565731D01*
X95867611Y-100351445D01*
X95867611Y-99994302D01*
X95796182Y-101422874D02*
X95867611Y-101637160D01*
X95867611Y-101994302D01*
X95796182Y-102137160D01*
X95724754Y-102208588D01*
X95581897Y-102280017D01*
X95439040Y-102280017D01*
X95296182Y-102208588D01*
X95224754Y-102137160D01*
X95153325Y-101994302D01*
X95081897Y-101708588D01*
X95010468Y-101565731D01*
X94939040Y-101494302D01*
X94796182Y-101422874D01*
X94653325Y-101422874D01*
X94510468Y-101494302D01*
X94439040Y-101565731D01*
X94367611Y-101708588D01*
X94367611Y-102065731D01*
X94439040Y-102280017D01*
M02*
